<svg class="animated" id="freepik_stories-location-tracking" xmlns="http://www.w3.org/2000/svg" viewBox="0 0 500 500" version="1.1"><style>@keyframes slideLeft{0%{opacity:0;transform:translateX(-30px)}to{opacity:1;transform:translateX(0)}}@keyframes zoomIn{0%{opacity:0;transform:scale(.5)}to{opacity:1;transform:scale(1)}}@keyframes heartbeat{0%,30%,40%,60%,to{transform:scale(1)}10%,50%{transform:scale(1.1)}}@keyframes zoomOut{0%{opacity:0;transform:scale(1.5)}to{opacity:1;transform:scale(1)}}@keyframes wind{0%{transform:rotate(0deg)}25%{transform:rotate(1deg)}75%{transform:rotate(-1deg)}}svg#freepik_stories-location-tracking:not(.animated) .animable{opacity:0}</style><g id="freepik--Shadow--inject-45" class="animable" style="transform-origin:250px 416.24px"><ellipse id="freepik--path--inject-45" cx="250" cy="416.24" rx="193.89" ry="11.32" style="fill:#f5f5f5;transform-origin:250px 416.24px" class="animable"/></g><g id="freepik--Plant--inject-45" class="animable" style="transform-origin:92.8334px 372.636px;animation:1s 1 forwards cubic-bezier(.36,-.01,.5,1.38) slideLeft;animation-delay:0s"><path d="M94.68 389.08h-1c0-1.31 1.1-32.32 6.5-37.58 5.58-5.43 12.14-.08 12.2 0l-.64.77c-.24-.2-5.93-4.82-10.86 0-5.12 4.88-6.19 36.49-6.2 36.81z" style="fill:#407bff;transform-origin:103.03px 369.074px" id="elw1r9f8jf8fp" class="animable"/><path d="m94.24 395.3-1-.1c0-.37 3.48-37.6-10-53.07l.76-.65c13.76 15.79 10.39 52.27 10.24 53.82z" style="fill:#407bff;transform-origin:88.9749px 368.39px" id="el25qk3jg06yd" class="animable"/><path d="M94.55 391.32c-.11-1.76-2.71-43.19 7.68-52.75l.68.74c-10 9.23-7.39 51.52-7.36 51.94z" style="fill:#407bff;transform-origin:98.5463px 364.945px" id="elxcytkp7zepc" class="animable"/><path d="M93.24 391.29c0-.28-.32-28.07-7.67-32.28a4.59 4.59 0 0 0-4.24-.44c-4.31 1.78-6.6 10-6.62 10.09l-1-.26c.1-.36 2.45-8.79 7.2-10.75a5.6 5.6 0 0 1 5.13.49c7.84 4.49 8.16 32 8.17 33.14z" style="fill:#407bff;transform-origin:83.96px 374.267px" id="eliabi0kyz51" class="animable"/><path d="M96.27 391.31c0-.89-1.19-22 4.8-29.83 1.6-2.09 3.39-3.07 5.32-2.94 4.28.3 7.59 6.08 7.73 6.33l-.87.49c0-.06-3.19-5.56-6.93-5.82-1.57-.11-3.07.75-4.45 2.55-5.77 7.53-4.61 29-4.6 29.17z" style="fill:#407bff;transform-origin:105.147px 374.919px" id="eleeszk57blhw" class="animable"/><path d="m95.2 394.23-1-.07c0-.51 3.76-50.74-2.42-59.1l.8-.6c6.42 8.66 2.78 57.69 2.62 59.77z" style="fill:#407bff;transform-origin:94.0758px 364.345px" id="elxben0hgakvk" class="animable"/><path d="M79.24 362.7s3.83 1.41 2.69 4.74-13.24 8.82-13.24 8.82-5.07-4.65-.42-12.21 10.87-3.73 10.97-1.35z" style="fill:#407bff;transform-origin:74.2244px 367.926px" id="el7n1mdzohdxb" class="animable"/><path d="M79.24 362.7s3.83 1.41 2.69 4.74-13.24 8.82-13.24 8.82-5.07-4.65-.42-12.21 10.87-3.73 10.97-1.35z" style="fill:#fff;opacity:.2;isolation:isolate;transform-origin:74.2244px 367.926px" class="animable" id="el493fjccfm8r"/><path d="M95.89 356.36s-4.08-.17-4.31 3.34 8.83 13.24 8.83 13.24 6.47-2.34 5.08-11.11-8.59-7.64-9.6-5.47z" style="fill:#407bff;transform-origin:98.6307px 363.881px" id="elowq83ct206r" class="animable"/><path d="M95.89 356.36s-4.08-.17-4.31 3.34 8.83 13.24 8.83 13.24 6.47-2.34 5.08-11.11-8.59-7.64-9.6-5.47z" style="fill:#fff;opacity:.2;isolation:isolate;transform-origin:98.6307px 363.881px" class="animable" id="elxlm1z5r6sia"/><path d="M99.34 339.53s-2.72-.29-2.5-1.94 10.57-5.92 16.68 1c0 0-3.91 6.72-9.56 6.8s-4.62-5.86-4.62-5.86z" style="fill:#407bff;transform-origin:105.174px 340.08px" id="elspqukkaspz" class="animable"/><path d="M99.34 339.53s-2.72-.29-2.5-1.94 10.57-5.92 16.68 1c0 0-3.91 6.72-9.56 6.8s-4.62-5.86-4.62-5.86z" style="fill:#fff;opacity:.2;isolation:isolate;transform-origin:105.174px 340.08px" class="animable" id="elqeaazaea67p"/><path d="M94.28 335.51s2.46 1.19 3.15-.33-5.84-10.61-14.67-8c0 0-.23 7.77 4.52 10.83s7-2.5 7-2.5z" style="fill:#407bff;transform-origin:90.1191px 332.821px" id="elh1gfbfzv0dr" class="animable"/><path d="M94.28 335.51s2.46 1.19 3.15-.33-5.84-10.61-14.67-8c0 0-.23 7.77 4.52 10.83s7-2.5 7-2.5z" style="fill:#fff;opacity:.2;isolation:isolate;transform-origin:90.1191px 332.821px" class="animable" id="elh5ex8lgwjbh"/><path d="M107.15 361.36s-1.88-1.51.15-2.25 12-.53 12.06 9.31c0 0-11.57 1.92-13-1.83s.79-5.23.79-5.23z" style="fill:#407bff;transform-origin:112.62px 363.88px" id="elgeuh5c0lgw6" class="animable"/><path d="M107.15 361.36s-1.88-1.51.15-2.25 12-.53 12.06 9.31c0 0-11.57 1.92-13-1.83s.79-5.23.79-5.23z" style="fill:#fff;opacity:.2;isolation:isolate;transform-origin:112.62px 363.88px" class="animable" id="eldwef4xffjz4"/><path d="M83.55 339.29s1.88-1.52-.15-2.26-12-.53-12.06 9.32c0 0 11.57 1.92 13-1.83s-.79-5.23-.79-5.23z" style="fill:#407bff;transform-origin:78.0801px 341.805px" id="elw4miv0rqpy" class="animable"/><path d="M83.55 339.29s1.88-1.52-.15-2.26-12-.53-12.06 9.32c0 0 11.57 1.92 13-1.83s-.79-5.23-.79-5.23z" style="fill:#fff;opacity:.2;isolation:isolate;transform-origin:78.0801px 341.805px" class="animable" id="elgfpupxqttcq"/><path d="M89.67 347.22s.16-1.85-1.32-1.12-6.67 6.31-1.3 11.61c0 0 7.23-5.36 5.93-8.14s-3.31-2.35-3.31-2.35z" style="fill:#407bff;transform-origin:88.9035px 351.82px" id="el5owdngnlc75" class="animable"/><path d="M89.67 347.22s.16-1.85-1.32-1.12-6.67 6.31-1.3 11.61c0 0 7.23-5.36 5.93-8.14s-3.31-2.35-3.31-2.35z" style="fill:#fff;opacity:.2;isolation:isolate;transform-origin:88.9035px 351.82px" class="animable" id="elafj2c8mu44r"/><path d="M108.83 349.84s-1.13-1.47.52-1.65 9 1.78 7.29 9.13c0 0-9-.68-9.36-3.73s1.55-3.75 1.55-3.75z" style="fill:#407bff;transform-origin:112.065px 352.749px" id="eltv9nhq0jzzo" class="animable"/><path d="M108.83 349.84s-1.13-1.47.52-1.65 9 1.78 7.29 9.13c0 0-9-.68-9.36-3.73s1.55-3.75 1.55-3.75z" style="fill:#fff;opacity:.2;isolation:isolate;transform-origin:112.065px 352.749px" class="animable" id="elne5f8m5pwz"/><path style="fill:#263238;transform-origin:93.915px 401.72px" id="el2i5x2nufffj" class="animable" d="M78.53 418.56h30.77l3.32-33.68H75.21l3.32 33.68z"/><path style="fill:#263238;transform-origin:93.915px 384.875px;transform:rotate(180deg)" class="animable" d="M73.57 381.16h40.69v7.43H73.57z" id="elpy9lutnex8g"/><path style="fill:#fff;opacity:.2;isolation:isolate;transform-origin:93.915px 384.875px;transform:rotate(180deg)" class="animable" d="M73.57 381.16h40.69v7.43H73.57z" id="elc2xnr5hozdo"/></g><g id="freepik--Device--inject-45" class="animable" style="transform-origin:232.025px 234.135px"><path d="M173.59 143.9H147l-.23-2.69a.63.63 0 0 1 .63-.69h25.26a.77.77 0 0 1 .75.69z" style="fill:#263238;transform-origin:160.179px 142.21px" id="elpqmicf95axh" class="animable"/><path d="M143.59 143.9H117l-.23-2.69a.63.63 0 0 1 .63-.69h25.26a.77.77 0 0 1 .75.69z" style="fill:#263238;transform-origin:130.179px 142.21px" id="el6ljgdn5pr92" class="animable"/><path d="M355.57 141.9H92.77a6 6 0 0 0-6.08 6.53l14.61 172.79a7.3 7.3 0 0 0 7.18 6.53h262.8a6 6 0 0 0 6.08-6.53l-14.61-172.79a7.29 7.29 0 0 0-7.18-6.53z" style="fill:#263238;transform-origin:232.025px 234.825px" id="el7mr1jrb9xaa" class="animable"/><path d="M371.28 327.75h-258.8a7.3 7.3 0 0 1-7.18-6.53L90.69 148.43a6 6 0 0 1 6.08-6.53h258.8a7.29 7.29 0 0 1 7.18 6.53l14.61 172.79a6 6 0 0 1-6.08 6.53z" style="fill:#fff;opacity:.2;transform-origin:234.025px 234.825px" class="animable" id="el43q4qm9wqb7"/><path style="fill:#407bff;transform-origin:229.93px 234.82px" id="eljtr4g06hn5r" class="animable" d="M358.75 322.38H115.91l-14.8-175.12h242.84l14.8 175.12z"/><g style="opacity:.5;transform-origin:102.74px 234.825px" class="animable" id="el5n0w41g7yf6"><path d="M104.52 231.38a2 2 0 0 0-1.93-1.75 1.6 1.6 0 0 0-1.63 1.75 2 2 0 0 0 1.93 1.76 1.6 1.6 0 0 0 1.63-1.76z" style="opacity:.6;isolation:isolate;transform-origin:102.74px 231.385px" class="animable" id="el2gymdnzt82"/><path d="M103.32 238.26a.8.8 0 0 0-.81.88 1 1 0 0 0 1 .88.81.81 0 0 0 .82-.88 1 1 0 0 0-1.01-.88z" style="opacity:.6;isolation:isolate;transform-origin:103.42px 239.14px" class="animable" id="el5vctyi2trhm"/></g><path d="M365.78 234.82a4.91 4.91 0 0 1-5 5.38 6 6 0 0 1-5.91-5.38 4.9 4.9 0 0 1 5-5.37 6 6 0 0 1 5.91 5.37z" style="opacity:.5;isolation:isolate;transform-origin:360.325px 234.825px" class="animable" id="el2nlhrqdyfio"/><path d="M90.71 170.82H89a.77.77 0 0 1-.75-.68L87 155.74a.63.63 0 0 1 .64-.68h1.71a.77.77 0 0 1 .75.68l1.22 14.4a.62.62 0 0 1-.61.68z" style="fill:#263238;transform-origin:89.1605px 162.94px" id="ellvdx2k2or6l" class="animable"/><path d="M90.71 170.82H89a.77.77 0 0 1-.75-.68L87 155.74a.63.63 0 0 1 .64-.68h1.71a.77.77 0 0 1 .75.68l1.22 14.4a.62.62 0 0 1-.61.68z" style="fill:#fff;opacity:.2;transform-origin:89.1605px 162.94px" class="animable" id="elo3h8g0qltxm"/><path style="fill:#fff;opacity:.7;isolation:isolate;transform-origin:229.93px 234.82px" class="animable" d="M358.75 322.38H115.91l-14.8-175.12h242.84l14.8 175.12z" id="elpl6ntqyurf"/><path style="opacity:.1;isolation:isolate;transform-origin:227.475px 234.825px" class="animable" d="m263.53 189.49 4.55 53.81h83.99l1.77 20.95h-50.8l4.92 58.13h-9.5l-4.92-58.13h-71.21l4.92 58.13h-21.28l-4.92-58.13h-51.11l2.78 32.91-9.13 4.29-28.33 13.3-.87-10.29 28.33-13.3-2.28-26.91h-29.45l-1.77-20.95h90.06l-3.39-40.18-94.39-51.19-.39-4.66h10.77l83.09 45.06-3.8-45.06h21.28l8.11 96.03h38.02l-8.11-96.03h9.5l2.77 32.86h83.99l.79 9.36h-83.99z" id="el7ldy904uvq"/><path style="fill:#fff;opacity:.4;isolation:isolate;transform-origin:176.055px 226.905px" class="animable" d="M159.74 238.26h34.55l-1.92-22.71h-34.55l1.92 22.71z" id="elda92g3wk6t5"/><path style="fill:#fff;opacity:.4;isolation:isolate;transform-origin:148.745px 230.96px" class="animable" d="M155.54 223.66h-14.83l1.23 14.6h14.84l-1.24-14.6z" id="el3ud8y2kuivr"/><path style="fill:#fff;opacity:.4;isolation:isolate;transform-origin:130.94px 230.96px" class="animable" d="M124.14 238.26h14.83l-1.23-14.6h-14.83l1.23 14.6z" id="elnv5f128jmd8"/><path style="fill:#fff;opacity:.4;isolation:isolate;transform-origin:120.405px 172.385px" class="animable" d="m130.93 173.22-17.27-9.28-3.78 7.6 17.26 9.29 3.79-7.61z" id="elce0yr4pwwmt"/><path style="fill:#fff;opacity:.4;isolation:isolate;transform-origin:139.795px 182.815px" class="animable" d="m146.54 191.26 3.78-7.6-17.26-9.29-3.79 7.6 17.27 9.29z" id="elutxxv94xoze"/><path style="fill:#fff;opacity:.4;isolation:isolate;transform-origin:159.19px 193.255px" class="animable" d="m165.93 201.7 3.78-7.61-17.26-9.28-3.78 7.6 17.26 9.29z" id="el88p41b4eywr"/><path d="M123.1 190.24h-4.75a6.17 6.17 0 0 0-6.3 6.77l1.15 13.63a7.57 7.57 0 0 0 7.45 6.76h4.74a6.18 6.18 0 0 0 6.31-6.76L130.54 197a7.56 7.56 0 0 0-7.44-6.76z" style="fill:#fff;opacity:.4;isolation:isolate;transform-origin:121.874px 203.82px" class="animable" id="elc4eq1z1xjn"/><path style="fill:#fff;opacity:.4;isolation:isolate;transform-origin:237.975px 226.195px" class="animable" d="M250.92 215.55h-27.69l1.8 21.29h27.69l-1.8-21.29z" id="elzh10s5b8x6l"/><path style="fill:#fff;opacity:.4;isolation:isolate;transform-origin:240.805px 198.805px" class="animable" d="M232.83 207.37h17.4l-1.45-17.13h-17.4l1.45 17.13z" id="elvcmtnazx81g"/><path style="fill:#fff;opacity:.4;isolation:isolate;transform-origin:228.995px 174.99px" class="animable" d="M237.42 165.94h-18.38l1.53 18.1h18.38l-1.53-18.1z" id="elm4a9avspmjk"/><path style="fill:#fff;opacity:.4;isolation:isolate;transform-origin:275.97px 165.94px" class="animable" d="M284.39 156.89h-18.38l1.53 18.1h18.39l-1.54-18.1z" id="eliti32uzq2m"/><path style="fill:#fff;opacity:.4;isolation:isolate;transform-origin:284.085px 231.875px" class="animable" d="M272.77 236.84h23.47l-.84-9.93h-23.47l.84 9.93z" id="eldzkhs0nu6m9"/><path style="fill:#fff;opacity:.4;isolation:isolate;transform-origin:311.245px 231.875px" class="animable" d="M299.93 236.84h23.47l-.84-9.93h-23.47l.84 9.93z" id="ely2x7fz0ncu"/><path style="fill:#fff;opacity:.4;isolation:isolate;transform-origin:335.25px 231.875px" class="animable" d="M327.1 236.84h17.14l-.84-9.93h-17.14l.84 9.93z" id="elnxstkbocxvj"/><path d="M267.71 283.05a15.63 15.63 0 0 0-16 17.14 19.15 19.15 0 0 0 18.85 17.13 15.62 15.62 0 0 0 16-17.13 19.15 19.15 0 0 0-18.85-17.14z" style="fill:#fff;opacity:.4;isolation:isolate;transform-origin:269.135px 300.185px" class="animable" id="elvksm12gkz0e"/><ellipse cx="327.97" cy="210.14" rx="10.94" ry="11.92" style="fill:#fff;opacity:.4;isolation:isolate;transform-origin:327.97px 210.14px;transform:rotate(-51.52deg)" class="animable" id="elb10cbnqpn1i"/><path style="fill:#fff;opacity:.4;isolation:isolate;transform-origin:239.05px 276.345px" class="animable" d="M249.16 269.64H227.8l1.14 13.41h21.36l-1.14-13.41z" id="el4cmxwcq6fk5"/><path style="fill:#fff;opacity:.4;isolation:isolate;transform-origin:318.095px 286.34px" class="animable" d="M313.44 303.04h12.13l-2.82-33.4h-12.13l2.82 33.4z" id="el5nsu72bqp3"/><path style="fill:#fff;opacity:.4;isolation:isolate;transform-origin:340.085px 276.345px" class="animable" d="m328.81 269.64 1.14 13.41h21.41l-1.13-13.41h-21.42z" id="elsqbjw4gaztf"/><path style="fill:#fff;opacity:.4;isolation:isolate;transform-origin:128.9px 276.345px" class="animable" d="M122.65 283.05h13.63l-1.13-13.41h-13.63l1.13 13.41z" id="elyr0gutjz5w"/><path style="fill:#fff;opacity:.4;isolation:isolate;transform-origin:171.275px 279.935px" class="animable" d="M161.05 288.76H183l-1.49-17.65h-21.96l1.5 17.65z" id="elb838cz9a6ed"/><path style="fill:#fff;opacity:.4;isolation:isolate;transform-origin:179.065px 311.28px" class="animable" d="M159.5 317.44h40.17l-1.04-12.32h-40.17l1.04 12.32z" id="elweq6ig0bin"/><path style="fill:#fff;opacity:.4;isolation:isolate;transform-origin:174.52px 167.375px" class="animable" d="m163.9 165.69 21.94 11.56-1.67-19.75H163.2l.7 8.19z" id="el97zkuw6aws"/><path d="M204.36 151.39A8.93 8.93 0 0 0 191.73 164l6.31 6.31 6.32-6.31a8.93 8.93 0 0 0 0-12.61zm-3.86 8.77a3.48 3.48 0 1 1 0-4.92 3.47 3.47 0 0 1 0 4.92z" style="fill:#263238;transform-origin:198.159px 159.656px" id="elksx7d0s8wun" class="animable"/><path d="m204.36 164-6.36 6.33v-9.15a3.48 3.48 0 0 0 0-7v-5.45a8.94 8.94 0 0 1 6.36 15.27z" style="fill:#fff;opacity:.2;transform-origin:202.494px 159.53px" class="animable" id="elzublc2ebtak"/><path d="M321.84 212.25a8.93 8.93 0 0 0-12.63 12.63l6.31 6.31 6.32-6.31a8.93 8.93 0 0 0 0-12.63zM318 221a3.48 3.48 0 1 1 0-4.92 3.47 3.47 0 0 1 0 4.92z" style="fill:#263238;transform-origin:315.525px 220.412px" id="el1kwu9q159mo" class="animable"/><path d="m321.84 224.88-6.32 6.31V222a3.48 3.48 0 0 0 0-7v-5.45a8.94 8.94 0 0 1 6.32 15.25z" style="fill:#fff;opacity:.2;transform-origin:319.983px 220.37px" class="animable" id="eldgszl434x7l"/><path d="M201.54 294.5a8.93 8.93 0 0 0-12.63 12.63l6.31 6.31 6.32-6.31a8.93 8.93 0 0 0 0-12.63zm-3.86 8.77a3.48 3.48 0 1 1 0-4.92 3.47 3.47 0 0 1 0 4.92z" style="fill:#263238;transform-origin:195.23px 302.666px" id="eld6wq713y6it" class="animable"/><path d="m201.54 307.13-6.32 6.31v-9.15a3.48 3.48 0 0 0 0-7v-5.45a8.94 8.94 0 0 1 6.32 15.25z" style="fill:#fff;opacity:.2;transform-origin:199.683px 302.64px" class="animable" id="el5o23cr26r0x"/></g><g id="freepik--location-3--inject-45" class="animable" style="transform-origin:281.38px 182.83px;animation:1s 1 forwards cubic-bezier(.36,-.01,.5,1.38) zoomIn,6s Infinite linear heartbeat;animation-delay:0s,2s"><path d="M331.94 156H227.76a5.6 5.6 0 0 0-5.59 5.6v37.66a5.59 5.59 0 0 0 5.59 5.59h76.15l10.09 7.81-3-7.84h21a5.59 5.59 0 0 0 5.59-5.59v-37.66a5.6 5.6 0 0 0-5.65-5.57z" style="opacity:.2;isolation:isolate;transform-origin:279.88px 184.33px" class="animable" id="eldpft779m1r5"/><path d="M334.94 153H230.76a5.6 5.6 0 0 0-5.59 5.6v37.66a5.59 5.59 0 0 0 5.59 5.59h76.15l7.09 10.81v-10.84h21a5.59 5.59 0 0 0 5.59-5.59v-37.66a5.6 5.6 0 0 0-5.65-5.57z" style="fill:#407bff;transform-origin:282.88px 182.83px" id="eldnh18c7nm1k" class="animable"/><path d="M266.61 163.55v27.7a2.73 2.73 0 0 1-.29 1.24.36.36 0 0 1 0 .09 2.49 2.49 0 0 1-.19.3 2.83 2.83 0 0 1-1 .87 2.79 2.79 0 0 1-.95.31 1.27 1.27 0 0 1-.28 0h-28a2.52 2.52 0 0 1-.56-.09h-.08a3 3 0 0 1-.58-.26 2.25 2.25 0 0 1-.36-.24 2.66 2.66 0 0 1-.6-.65 2.74 2.74 0 0 1-.46-1.38 1.21 1.21 0 0 1 0-.19v-27.7a2.84 2.84 0 0 1 2.75-2.84h27.78a2.84 2.84 0 0 1 2.82 2.84z" style="fill:#fff;opacity:.7;transform-origin:249.933px 177.389px" class="animable" id="elzts23tjnyxj"/><path d="M326.18 172.56h-47.12a1.24 1.24 0 0 1-1.24-1.24 1.24 1.24 0 0 1 1.24-1.23h47.12a1.23 1.23 0 0 1 1.23 1.23 1.23 1.23 0 0 1-1.23 1.24z" style="fill:#fff;transform-origin:302.615px 171.325px" id="elv5vax4rw8y" class="animable"/><path d="M311.05 160.71h-31.47a1.76 1.76 0 1 0 0 3.51h31.47a1.76 1.76 0 0 0 0-3.51z" style="fill:#fff;transform-origin:295.182px 162.465px" id="el21tjjhrvwum" class="animable"/><path d="M307.18 177.64h-28.12a1.25 1.25 0 0 1-1.24-1.24 1.25 1.25 0 0 1 1.24-1.24h28.12a1.24 1.24 0 0 1 1.23 1.24 1.24 1.24 0 0 1-1.23 1.24z" style="fill:#fff;transform-origin:293.115px 176.4px" id="elfe0ed1r47rp" class="animable"/><path d="M245.1 161.31a13.07 13.07 0 0 1 12.27-2.71c7.11 2.21 4 15.44 4 15.44a9.75 9.75 0 0 1 1.79 10c-2.22 5.87-19.2 7.17-24.95 2.1s.94-17.8 4.23-19.28 2.66-5.55 2.66-5.55z" style="fill:#263238;transform-origin:249.89px 173.683px" id="eln97sjdk7nfp" class="animable"/><path d="M265.11 193.75a2.79 2.79 0 0 1-.95.31 1.27 1.27 0 0 1-.28 0h-28a2.52 2.52 0 0 1-.56-.09h-.08a3 3 0 0 1-.58-.26 2.25 2.25 0 0 1-.36-.24 2.66 2.66 0 0 1-.6-.65c-.09-.44-.18-.9-.28-1.36 2-.34 3.92-.61 5.9-.79 1.46-.14 2.93-.23 4.41-.28.71 0 1.43 0 2.14-.06 2.42 0 4.85 0 7.26.24l1.55.14c2.27.28 4.67.72 6.55 1.1s3.44.74 3.44.74.27.1.44 1.2z" style="fill:#407bff;transform-origin:249.265px 192.199px" id="elk84h6cctpt" class="animable"/><path d="M265.11 193.75a2.79 2.79 0 0 1-.95.31 1.27 1.27 0 0 1-.28 0h-28a2.52 2.52 0 0 1-.56-.09h-.08a3 3 0 0 1-.58-.26 2.25 2.25 0 0 1-.36-.24 2.66 2.66 0 0 1-.6-.65c-.09-.44-.18-.9-.28-1.36 2-.34 3.92-.61 5.9-.79 1.46-.14 2.93-.23 4.41-.28.71 0 1.43 0 2.14-.06 2.42 0 4.85 0 7.26.24l1.55.14c2.27.28 4.67.72 6.55 1.1s3.44.74 3.44.74.27.1.44 1.2z" style="opacity:.3;isolation:isolate;transform-origin:249.265px 192.199px" class="animable" id="el09f4eiy6ar2q"/><path d="M254 194.09h-6.18a7.81 7.81 0 0 1-3-2.66 5.5 5.5 0 0 0 1.15-1.1 5.4 5.4 0 0 0 .74-1.2 9.93 9.93 0 0 0 .41-5.91c-.15-.75-.32-1.27-.35-1.38l7 2.29c-.14.47-.25.91-.35 1.32-.15.61-.25 1.16-.33 1.65a9.51 9.51 0 0 0-.11 2 4 4 0 0 0 .31 1.46c.42 1 1.12 1.13 1.12 1.13a2.52 2.52 0 0 1-.41 2.4z" style="fill:#e4897b;transform-origin:249.685px 187.965px" id="el4xraywvh925" class="animable"/><path d="M253.62 184.1a23.44 23.44 0 0 0-.68 3c-3.33-1.26-6.27-5.26-6.27-5.26z" style="opacity:.2;isolation:isolate;transform-origin:250.145px 184.47px" class="animable" id="el8sq9smd4zk"/><path d="M249.92 163.5c6.23-.62 8.58 2.52 9.67 8.9 1.37 8 .16 13.86-7.81 12.92-10.78-1.32-12.22-20.79-1.86-21.82z" style="fill:#e4897b;transform-origin:251.475px 174.421px" id="el1k69xgb2z69" class="animable"/><path d="M255.52 172.45a13.11 13.11 0 0 0 2.08 2.41 1.73 1.73 0 0 1-1.58.87z" style="fill:#de5753;transform-origin:256.56px 174.091px" id="el7vcxso4x7ih" class="animable"/><path d="M251.65 172.32c.07.51-.16 1-.5 1s-.67-.34-.73-.85.16-1 .5-1 .67.34.73.85z" style="fill:#263238;transform-origin:251.036px 172.395px" id="elhucxlttpus" class="animable"/><path d="m250.78 171.51 1.06-.57s-.44 1-1.06.57z" style="fill:#263238;transform-origin:251.31px 171.279px" id="el4i3e7x349sp" class="animable"/><path d="M258 171.43c.06.51-.16 1-.51 1s-.66-.33-.73-.85.17-1 .51-1 .66.34.73.85z" style="fill:#263238;transform-origin:257.379px 171.505px" id="el5qlsoyncjax" class="animable"/><path d="m257.13 170.63 1.06-.58s-.44 1.01-1.06.58z" style="fill:#263238;transform-origin:257.66px 170.393px" id="el6th6v617rhs" class="animable"/><path d="M248.55 169.59a.36.36 0 0 1-.2-.06.37.37 0 0 1-.1-.5 3.59 3.59 0 0 1 2.92-1.37.37.37 0 0 1 .36.37.4.4 0 0 1-.38.35 2.93 2.93 0 0 0-2.3 1.05.34.34 0 0 1-.3.16z" style="fill:#263238;transform-origin:249.861px 168.624px" id="el0d7nqf5py39o" class="animable"/><path d="M258.21 167.93a.33.33 0 0 1-.17 0 2.56 2.56 0 0 0-2.21-.26.36.36 0 0 1-.32-.65 3.26 3.26 0 0 1 2.87.27.36.36 0 0 1 .15.49.37.37 0 0 1-.32.15z" style="fill:#263238;transform-origin:256.94px 167.374px" id="el4n0ixzmp1kg" class="animable"/><path d="M255.36 178.27a15.74 15.74 0 0 0-.52 2.24h-.4c-1.84 0-2.69-.61-3.07-1.28a2.34 2.34 0 0 1-.29-1.08 2.31 2.31 0 0 1 0-.64 8.69 8.69 0 0 0 3.6.75c.43.02.68.01.68.01z" style="fill:#263238;transform-origin:253.209px 179.01px" id="el2ra65vg0ejg" class="animable"/><path d="m254.73 178.26-.17.66c-1.72 0-2.94-.25-3.48-.77a2.31 2.31 0 0 1 0-.64 8.69 8.69 0 0 0 3.65.75z" style="fill:#fff;transform-origin:252.894px 178.215px" id="elpkk1pjcejx8" class="animable"/><path d="M254.44 180.51c-1.84 0-2.69-.61-3.07-1.28a6.07 6.07 0 0 1 2 .41 2.19 2.19 0 0 1 1.07.87z" style="fill:#de5753;transform-origin:252.905px 179.87px" id="elilh9tomfwtl" class="animable"/><path d="M244.14 174.69s2.41-5.42 1.58-9.33c0 0 11.86-6.28 13.71 6.21 0 0 .1-11.26-10.64-10.45s-9.15 16.51-3.14 20.63c0 0-2.99-3.68-1.51-7.06z" style="fill:#263238;transform-origin:250.178px 171.414px" id="el1pnerifmuc5" class="animable"/><path d="M245.29 175.9a2.74 2.74 0 0 0-3.19-2.2c-1.91.4-2.44 4.46 2.46 4.94.71.06 1.03-.64.73-2.74z" style="fill:#e4897b;transform-origin:243.063px 176.149px" id="elnb7biu0gq1" class="animable"/><path d="M265.11 193.75a2.79 2.79 0 0 1-.95.31 1.27 1.27 0 0 1-.28 0h-28a2.52 2.52 0 0 1-.56-.09h-.08a3 3 0 0 1-.58-.26 2.25 2.25 0 0 1-.36-.24 2.66 2.66 0 0 1-.6-.65c-.09-.44-.18-.9-.28-1.36 2-.34 3.92-.61 5.9-.79 1.46-.14 2.93-.23 4.41-.28.71 0 1.43 0 2.14-.06 2.42 0 4.85 0 7.26.24l1.55.14c2.27.28 4.67.72 6.55 1.1s3.44.74 3.44.74.27.1.44 1.2z" style="fill:#e4897b;transform-origin:249.265px 192.199px" id="eloehk43nyaxd" class="animable"/><path d="M240.87 194.09h-5a2.52 2.52 0 0 1-.56-.09h-.08a3 3 0 0 1-.58-.26 2.25 2.25 0 0 1-.36-.24 2.66 2.66 0 0 1-.6-.65 2.74 2.74 0 0 1-.46-1.38l5.56-1.73s.2.34.52 1 .97 1.88 1.56 3.35z" style="fill:#fff;transform-origin:237.05px 191.915px" id="eltos6n3mz628" class="animable"/><path d="M266.32 192.49a.36.36 0 0 1 0 .09 2.49 2.49 0 0 1-.19.3 2.83 2.83 0 0 1-1 .87 2.79 2.79 0 0 1-.95.31 1.27 1.27 0 0 1-.28 0h-4.53c-.17-1.57-.34-3.58-.34-3.58z" style="fill:#fff;transform-origin:262.676px 192.274px" id="elwrl6yfxb16" class="animable"/><path d="M249.92 163.5s1.21 7.91-6.07 10.44c-8.79 3.06-9.22 12.18-1.34 14.4 0 0-8-1.9-8.87-7.42s4.71-13.06 4.71-13.06-1.87-4.81 5.26-7.44c4.02-1.48 6.31 3.08 6.31 3.08z" style="fill:#263238;transform-origin:241.772px 174.232px" id="elbhx2bjjfeal" class="animable"/><path d="M249 170.92a.27.27 0 0 1-.12 0 .26.26 0 0 1-.1-.34c2.95-5.28.45-7.78.34-7.89a.25.25 0 0 1 0-.35.26.26 0 0 1 .36 0c.12.12 2.9 2.85-.25 8.49a.26.26 0 0 1-.23.09z" style="fill:#263238;transform-origin:249.74px 166.597px" id="elcnw6kj5mvv" class="animable"/><path d="M262.06 186.73a.25.25 0 0 1-.18-.08.24.24 0 0 1 0-.35 7.32 7.32 0 0 0 2.5-5.56c-.13-3.92-3.75-7.07-3.78-7.1a.24.24 0 0 1 0-.35.25.25 0 0 1 .35 0c.16.14 3.82 3.32 4 7.46a7.82 7.82 0 0 1-2.65 5.94.23.23 0 0 1-.24.04z" style="fill:#263238;transform-origin:262.737px 179.983px" id="el43p7wz3nie9" class="animable"/></g><g id="freepik--location-2--inject-45" class="animable" style="transform-origin:187.145px 117.405px;animation:1s 1 forwards cubic-bezier(.36,-.01,.5,1.38) zoomOut,3s Infinite linear heartbeat;animation-delay:0s,4.5s"><path d="M237.75 86.55H133.57a5.6 5.6 0 0 0-5.59 5.6v37.66a5.6 5.6 0 0 0 5.59 5.6h52.82l8.61 15.85-1.73-15.85h44.44a5.6 5.6 0 0 0 5.6-5.6V92.15a5.6 5.6 0 0 0-5.56-5.6z" style="opacity:.2;isolation:isolate;transform-origin:185.645px 118.905px" class="animable" id="elb04o1h9fodb"/><path d="M240.75 83.55H136.57a5.6 5.6 0 0 0-5.59 5.6v37.66a5.6 5.6 0 0 0 5.59 5.6h52.82l5.61 18.85 1.27-18.85h44.44a5.6 5.6 0 0 0 5.6-5.6V89.15a5.6 5.6 0 0 0-5.56-5.6z" style="fill:#407bff;transform-origin:188.645px 117.405px" id="el9ostgxk4jgr" class="animable"/><path d="M172.43 94.13v27.7a.37.37 0 0 1 0 .11 2.8 2.8 0 0 1-.32 1.22 2.49 2.49 0 0 1-.19.3 2.81 2.81 0 0 1-1.44 1.07 2.68 2.68 0 0 1-.49.11 1.27 1.27 0 0 1-.28 0h-28a2.52 2.52 0 0 1-.56-.09h-.08a3 3 0 0 1-.58-.26 2.25 2.25 0 0 1-.36-.24 2.73 2.73 0 0 1-.48-.48 2 2 0 0 1-.24-.39 2.69 2.69 0 0 1-.35-1.35v-27.7a2.84 2.84 0 0 1 2.75-2.84h27.78a2.84 2.84 0 0 1 2.84 2.84z" style="fill:#fff;opacity:.7;transform-origin:155.747px 107.969px" class="animable" id="elkbs6dz0vsgi"/><path d="M232 103.14h-47.13a1.24 1.24 0 0 1-1.24-1.23 1.24 1.24 0 0 1 1.24-1.24H232a1.24 1.24 0 0 1 1.24 1.24 1.24 1.24 0 0 1-1.24 1.23z" style="fill:#fff;transform-origin:208.435px 101.905px" id="elm3727ushxu" class="animable"/><path d="M216.86 91.29h-31.47a1.76 1.76 0 1 0 0 3.51h31.47a1.76 1.76 0 1 0 0-3.51z" style="fill:#fff;transform-origin:201.125px 93.045px" id="elx2u9v6m8ywj" class="animable"/><path d="M213 108.22h-28.13a1.25 1.25 0 0 1-1.24-1.24 1.25 1.25 0 0 1 1.24-1.24H213a1.25 1.25 0 0 1 1.24 1.24 1.25 1.25 0 0 1-1.24 1.24z" style="fill:#fff;transform-origin:198.935px 106.98px" id="elr872q35g5a" class="animable"/><path d="M167 124.67h-19.2a6.58 6.58 0 0 1 0-1.4v-.39a2.72 2.72 0 0 1 .07-.33 3.35 3.35 0 0 1 1.65-2.44c.38-.09.84-.18 1.36-.28l.9-.15.91-.14a37.42 37.42 0 0 1 5.89-.4 18.76 18.76 0 0 1 1.88.12 4.68 4.68 0 0 1 .54.08 6.84 6.84 0 0 1 2.85 1 7.33 7.33 0 0 1 1.62 1.66 11.81 11.81 0 0 1 .72 1.11 12.55 12.55 0 0 1 .81 1.56z" style="fill:#263238;transform-origin:157.381px 121.904px" id="elq32ml2czha" class="animable"/><path d="M172.42 121.94a2.8 2.8 0 0 1-.32 1.22 2.49 2.49 0 0 1-.19.3 2.81 2.81 0 0 1-1.44 1.07 2.68 2.68 0 0 1-.49.11 1.27 1.27 0 0 1-.28 0h-28a2.52 2.52 0 0 1-.56-.09h-.08a3 3 0 0 1-.58-.26 2.25 2.25 0 0 1-.36-.24 2.73 2.73 0 0 1-.48-.48c1.25-.12 3-.28 5.12-.45l2-.16.73-.06h.32l2.11-.15h.48c2-.15 4.24-.28 6.53-.4l3.66-.16 2.57-.09H167.01c1.85-.17 3.64-.18 5.41-.16z" style="fill:#263238;transform-origin:156.03px 123.29px" id="elefdeszrybv" class="animable"/><path d="M172.42 121.94a2.8 2.8 0 0 1-.32 1.22 2.49 2.49 0 0 1-.19.3 2.81 2.81 0 0 1-1.44 1.07 2.68 2.68 0 0 1-.49.11 1.27 1.27 0 0 1-.28 0h-28a2.52 2.52 0 0 1-.56-.09h-.08a3 3 0 0 1-.58-.26 2.25 2.25 0 0 1-.36-.24 2.73 2.73 0 0 1-.48-.48c1.25-.12 3-.28 5.12-.45l2-.16.73-.06h.32l2.11-.15h.48c2-.15 4.24-.28 6.53-.4l3.66-.16 2.57-.09H167.01c1.85-.17 3.64-.18 5.41-.16z" style="fill:#fff;opacity:.8;isolation:isolate;transform-origin:156.03px 123.29px" class="animable" id="elb2n20mtgnlu"/><path d="M162.58 124.67h-7.72l-.34-.07a9 9 0 0 1-4.07-1.9l-.24-.23a6.47 6.47 0 0 0 1.64-2.79c.06-.2.13-.41.18-.62a18.39 18.39 0 0 0 .55-4.2 1.93 1.93 0 0 0 0-.24 36.15 36.15 0 0 0-.12-3.76 51.695 51.695 0 0 0-.65-4.84l.87.76.08.06 3.46 3 1 .86 3.52 3.06a15.8 15.8 0 0 0-.35 1.63v.15a8.86 8.86 0 0 0-.06 2.76 4 4 0 0 0 .09.48 4 4 0 0 0 .15.49.49.49 0 0 0 0 .11 4.55 4.55 0 0 0 .77 1.3 5.44 5.44 0 0 0 1.88 1.38 8.75 8.75 0 0 0 1.62.56c.51.93-.96 1.63-2.26 2.05z" style="fill:#e4897b;transform-origin:157.577px 115.345px" id="elwzfv9nbqvkk" class="animable"/><path d="M153.65 110.62c-.08 5.71 4.47 7.65 6.73 8.15a8.19 8.19 0 0 1 0-3.24z" style="opacity:.2;isolation:isolate;transform-origin:157.014px 114.695px" class="animable" id="elua27nwh1bap"/><path d="M165.47 124.67h-15.66l-2-1.4-.38-.27.11-.1.39-.35 1.64-1.48 1.37-1.24.95-.86.14.09.73.48 4.24 2.76 2.85 1.87.81-2 .6-1.52h.09L164 122l.27.14a2.12 2.12 0 0 1 .58.44 2.08 2.08 0 0 1 .41.63 1.34 1.34 0 0 1 .07.18 2.63 2.63 0 0 1 .14 1.28z" style="fill:#fff;transform-origin:156.463px 121.82px" id="elhnz5viuwec" class="animable"/><path d="M166.31 92.69c2.84 1.65 3.47 8.58-.45 13.13s-7.84-12-7.84-12 6.48-2.18 8.29-1.13z" style="fill:#263238;transform-origin:163.32px 99.5078px" id="elmodd4eazeee" class="animable"/><path d="M153.82 116.16a8.33 8.33 0 0 0 10 .93 9.26 9.26 0 0 0 4.14-5.41c.09-.31.16-.63.23-1 1-6-.49-15.69-7.09-17.9a9 9 0 0 0-11.82 9.78c.84 6.58 1 10.44 4.54 13.6z" style="fill:#e4897b;transform-origin:158.832px 105.317px" id="elk9mkdjtt3tp" class="animable"/><path d="M159.4 103.81c0 .53.34 1 .69.92s.6-.47.57-1-.35-.94-.69-.92-.6.46-.57 1z" style="fill:#263238;transform-origin:160.03px 103.774px" id="el6x3jpqawp1d" class="animable"/><path d="M165.44 103.42c0 .54.35 1 .7.93s.6-.48.57-1-.35-1-.7-.93-.6.5-.57 1z" style="fill:#263238;transform-origin:166.075px 103.385px" id="elv082bb9k9sf" class="animable"/><path d="M163.54 103.81a19 19 0 0 0 2.84 4.41 3.1 3.1 0 0 1-2.54.64z" style="fill:#de5753;transform-origin:164.96px 106.363px" id="el7kt2jfj3ays" class="animable"/><path d="M167.51 100.7a.31.31 0 0 1-.32 0 2.56 2.56 0 0 0-2.27-.12.31.31 0 1 1-.3-.54 3.14 3.14 0 0 1 2.86.12.31.31 0 0 1 .14.42.57.57 0 0 1-.11.12z" style="fill:#263238;transform-origin:166.045px 100.248px" id="elbyiv214t9c" class="animable"/><path d="M158.05 101.47a.35.35 0 0 1-.18 0 .31.31 0 0 1 0-.44 3.14 3.14 0 0 1 2.73-.89.32.32 0 0 1 .24.38.32.32 0 0 1-.38.23 2.57 2.57 0 0 0-2.15.74.3.3 0 0 1-.26-.02z" style="fill:#263238;transform-origin:159.313px 100.805px" id="eljsezqs87qgk" class="animable"/><path d="m153.61 94.11.22 1c-.88.61-.89 3.62-.32 4.71 1.2 2.32.24 6.23-1.45 7.94 0 0-.17-1-1-.69s0 5.79 2 8.2c0 0-2.88-2.07-5-7.64-2-5.16-2.63-9.56-1.76-11.74z" style="fill:#263238;transform-origin:149.982px 104.69px" id="el5cgibl90rdl" class="animable"/><path d="M146.79 108.18a6.25 6.25 0 0 0 3.78 2.93c2.12.56 3.16-1.35 2.55-3.34-.56-1.76-2.32-4.24-4.45-3.9a2.79 2.79 0 0 0-1.88 4.31z" style="fill:#e4897b;transform-origin:149.805px 107.524px" id="elztrdcffqyy9" class="animable"/><path d="M163.54 110.58a16.92 16.92 0 0 0-.69 2.41h-.44c-2-.11-2.88-.82-3.26-1.57a2.71 2.71 0 0 1-.25-1.19 2.33 2.33 0 0 1 .1-.69 9.38 9.38 0 0 0 3.86 1 6.38 6.38 0 0 0 .68.04z" style="fill:#263238;transform-origin:161.22px 111.265px" id="elxm5syxy80y" class="animable"/><path d="m162.86 110.53-.22.71c-1.88-.11-3.18-.44-3.74-1a2.33 2.33 0 0 1 .1-.69 9.38 9.38 0 0 0 3.86.98z" style="fill:#fff;transform-origin:160.88px 110.395px" id="el50z9kyutm79" class="animable"/><path d="M162.41 113c-2-.11-2.88-.82-3.26-1.57a6.44 6.44 0 0 1 2.19.56 2.4 2.4 0 0 1 1.07 1.01z" style="fill:#de5753;transform-origin:160.78px 112.215px" id="elgngz7l13uk" class="animable"/><path d="M165.83 110.89a2.93 2.93 0 0 0-3.52-1 4.09 4.09 0 0 0-2.53-1.37 4.89 4.89 0 0 0-3.55 1.32 4.12 4.12 0 0 0-.33.4 4.8 4.8 0 0 0-.67 1.55 7.66 7.66 0 0 0 .11 4 5.08 5.08 0 0 0 1.06 2 4.32 4.32 0 0 0 1.59 1.14c.22.09.43.16.65.23a5.78 5.78 0 0 0 1.92.23h.5a5.66 5.66 0 0 0 4.28-2.84 7.75 7.75 0 0 0 .44-1c.68-1.82.76-3.88.05-4.66zm-8.62-.2a2 2 0 0 1 1.41-1.41 3.53 3.53 0 0 1 3.51 1s2.81-1.12 3.19 1.92-1.68 4.51-2.89 3.74-.18-2.15-.18-2.15l-1.32-.37a2.73 2.73 0 0 1-.55 1.92l-.09.11a1.44 1.44 0 0 1-2.16.12 4.05 4.05 0 0 1-1.11-2.52 5.16 5.16 0 0 1 .19-2.36z" style="fill:#263238;transform-origin:160.672px 113.956px" id="elm9mix1u735k" class="animable"/><path d="M152.28 95.88a7.47 7.47 0 0 1 7-.81c3.63 1.26 4.68 1.64 5.89-1.07s-.93-8.92-5.87-9.11-7.95 6.24-7.95 6.24-7.77 2.86-5.1 10.09z" style="fill:#263238;transform-origin:155.596px 93.0529px" id="elugf1awh5fwt" class="animable"/><path d="M139.65 123.57a2 2 0 0 1-.24-.39l6.59-1.28.32-.06.53 1.12c.22.45.49 1 .83 1.71h-5.91a2.52 2.52 0 0 1-.56-.09h-.08a3 3 0 0 1-.58-.26 2.25 2.25 0 0 1-.36-.24 2.73 2.73 0 0 1-.54-.51z" style="fill:#263238;transform-origin:143.545px 123.255px" id="eleszrxgb58ct" class="animable"/><path d="M172.43 121.43v.4a.37.37 0 0 1 0 .11 2.8 2.8 0 0 1-.32 1.22 2.49 2.49 0 0 1-.19.3 2.81 2.81 0 0 1-1.44 1.07 2.68 2.68 0 0 1-.49.11 1.27 1.27 0 0 1-.28 0h-2.9c-.19-.59-.36-1.12-.52-1.57s-.29-.82-.41-1.12c-.2-.53-.33-.84-.36-.91z" style="fill:#263238;transform-origin:168.977px 122.844px" id="elsj0d3tbh4eb" class="animable"/><path d="M150.61 124.67h-6.84a9.87 9.87 0 0 1 1-1.55 8.56 8.56 0 0 1 1.23-1.22 7.71 7.71 0 0 1 3.62-1.79 2.71 2.71 0 0 0 0 1 12.12 12.12 0 0 0 .4 1.66c.1.54.32 1.23.59 1.9z" style="fill:#263238;transform-origin:147.19px 122.39px" id="elnujvkswyzpf" class="animable"/><path d="M170.47 124.53a2.68 2.68 0 0 1-.49.11 1.27 1.27 0 0 1-.28 0h-3.93c-.14-.42-.28-.83-.43-1.23a1.34 1.34 0 0 0-.07-.18c-.16-.43-.33-.84-.52-1.25a17.67 17.67 0 0 0-.83-1.69 16.92 16.92 0 0 1 1.56.73c.45.23 1 .52 1.56.89a24.89 24.89 0 0 1 3.43 2.62z" style="fill:#263238;transform-origin:167.195px 122.469px" id="el6if64c9dobq" class="animable"/></g><g id="freepik--location-1--inject-45" class="animable" style="transform-origin:159.34px 266.16px;animation:1s 1 forwards cubic-bezier(.36,-.01,.5,1.38) zoomOut,6s Infinite linear heartbeat;animation-delay:0s,1.5s"><path d="M209.91 239.32H105.74a5.6 5.6 0 0 0-5.6 5.59v37.67a5.6 5.6 0 0 0 5.6 5.59h76.14l10.06 5.92-3-5.92h21a5.6 5.6 0 0 0 5.6-5.59v-37.67a5.6 5.6 0 0 0-5.63-5.59z" style="opacity:.2;isolation:isolate;transform-origin:157.84px 266.705px" class="animable" id="elebexkmp5bp"/><path d="M212.91 236.32H108.74a5.6 5.6 0 0 0-5.6 5.59v37.67a5.6 5.6 0 0 0 5.6 5.59h76.14l7.06 10.83v-10.83h21a5.6 5.6 0 0 0 5.6-5.59v-37.67a5.6 5.6 0 0 0-5.63-5.59z" style="fill:#407bff;transform-origin:160.84px 266.16px" id="el9scen5ji1k9" class="animable"/><path d="M144.58 246.9v27.7a2.85 2.85 0 0 1-.33 1.33 2.49 2.49 0 0 1-.19.3 2.82 2.82 0 0 1-1.93 1.18 1.27 1.27 0 0 1-.28 0h-28a2.52 2.52 0 0 1-.56-.09h-.08a3 3 0 0 1-.58-.26 2.25 2.25 0 0 1-.36-.24 2.81 2.81 0 0 1-1.07-2.22v-27.7a2.84 2.84 0 0 1 2.75-2.84h27.78a2.84 2.84 0 0 1 2.85 2.84z" style="fill:#fff;opacity:.7;transform-origin:127.89px 260.739px" class="animable" id="els3lf2334ud"/><g id="freepik--group--inject-45" class="animable" style="transform-origin:128.025px 260.125px"><path d="M142.13 277.41a1.27 1.27 0 0 1-.28 0h-1.42v-.42h.09a5.33 5.33 0 0 1 1.63.38z" style="fill:#263238;transform-origin:141.29px 277.204px" id="eli9lu20dtn9r" class="animable"/><path d="M142.13 277.41a1.27 1.27 0 0 1-.28 0h-1.42v-.42h.09a5.33 5.33 0 0 1 1.63.38z" style="fill:#fff;opacity:.4;isolation:isolate;transform-origin:141.29px 277.204px" class="animable" id="elsa53yopigt"/><path d="M141.84 277.43h-24.7l.07.14a1 1 0 0 1-.08-.14h-3.23c.93-.15 1.95-.3 3-.42l.67-.08c.89-.11 1.8-.2 2.7-.27h.25c1.62-.13 3.23-.23 4.85-.3h.37c.77 0 1.53-.06 2.29-.07h4.04c.83 0 1.67 0 2.5.05l.93.08c.27 0 .53.05.8.06.74.08 1.46.17 2.15.27l1 .15.49.08.46.07h.08a5.34 5.34 0 0 1 1.24.36z" style="fill:#263238;transform-origin:127.87px 276.93px" id="eldf4j7tnrt15" class="animable"/><path d="M135.83 277.44H121.5a9.15 9.15 0 0 1-1-.8l-.44-.41a6.21 6.21 0 0 0 1.57-2c1.2-2.36 1-5.29.69-7.38-.13-1-.29-1.76-.33-2.23a1 1 0 0 1 0-.16c0-.15 0-.25.06-.28l.19.07.47.17.23.08 7.94 2.85c-.06.26-.11.52-.16.78s-.1.53-.13.79l-.06.49a9.55 9.55 0 0 0-.06 1.06 7 7 0 0 0 .25 2 4.5 4.5 0 0 0 .94 1.78 3.11 3.11 0 0 0 .44.45 7.13 7.13 0 0 0 3.24 1.47 2.29 2.29 0 0 1 .14.27 3.43 3.43 0 0 1 .35 1z" style="fill:#ebb376;transform-origin:127.945px 270.81px" id="elc9h4gv7f4zt" class="animable"/><path d="M130.74 272.4c-3-.62-6.42-2.7-7.32-5.26a10.88 10.88 0 0 1-.69-2.75l8.17 2.93a10.48 10.48 0 0 0-.16 5.08z" style="opacity:.2;isolation:isolate;transform-origin:126.815px 268.395px" class="animable" id="elza71vcv7bnf"/><path d="M120.88 254.67c.55 6.42.56 10.21 3.91 13.41 5 4.84 12.88 1.69 14.27-4.78 1.24-5.82.11-15.35-6.26-17.75a8.81 8.81 0 0 0-11.38 5 9 9 0 0 0-.54 4.12z" style="fill:#ebb376;transform-origin:130.169px 257.693px" id="el8qu4irtalq7" class="animable"/><path d="M130.7 256.22c0 .52.29.93.64.93s.61-.45.6-1-.31-.94-.65-.93-.6.46-.59 1z" style="fill:#263238;transform-origin:131.32px 256.185px" id="elk0dfujlihzl" class="animable"/><path d="M136.62 256.06c0 .52.3.94.64.93s.61-.44.6-1-.3-.94-.64-.93-.61.51-.6 1z" style="fill:#263238;transform-origin:137.24px 256.025px" id="eldzcsxmoqzjv" class="animable"/><path d="M134.74 256.37a19 19 0 0 0 2.62 4.42 3 3 0 0 1-2.5.53z" style="fill:#d58745;transform-origin:136.05px 258.885px" id="el263b4j918b4" class="animable"/><path d="M128.81 254.34a.3.3 0 0 0 .29-.12 2.46 2.46 0 0 1 2-1.08.32.32 0 0 0 .32-.3.33.33 0 0 0-.3-.32 3 3 0 0 0-2.46 1.34.29.29 0 0 0 0 .42z" style="fill:#263238;transform-origin:129.995px 253.432px" id="el99caag4o9cw" class="animable"/><path d="M132.47 263.77a4.69 4.69 0 0 1-3.73-2.25.17.17 0 0 1 .07-.22.16.16 0 0 1 .21.06 4.5 4.5 0 0 0 3.47 2.07.16.16 0 0 1 .15.17.16.16 0 0 1-.16.16z" style="fill:#263238;transform-origin:130.682px 262.526px" id="el90pr21uoypm" class="animable"/><path d="M139.11 254a.23.23 0 0 0 .18 0 .3.3 0 0 0 .14-.41 3.06 3.06 0 0 0-2.26-1.68.32.32 0 0 0-.34.28.31.31 0 0 0 .28.33 2.5 2.5 0 0 1 1.77 1.36.28.28 0 0 0 .23.12z" style="fill:#263238;transform-origin:138.146px 252.964px" id="elz1o4m35jmdk" class="animable"/><path d="M122.69 259.92s3.34-5.77 1.66-10.43a9.2 9.2 0 0 1 6.48.62 9.67 9.67 0 0 0-.44-2.2s5.75-.37 9.07 2.89a9.76 9.76 0 0 0-2.85-5.57 4.4 4.4 0 0 1 2.54 0s-5.23-4.21-13.44-1.81-10.77 7.38-8.89 14.7 5.84 8.92 5.84 8.92-1.64-5.57-1.28-6.82 1.31-.3 1.31-.3z" style="fill:#263238;transform-origin:127.847px 254.86px" id="elhbf1ti8p67h" class="animable"/><path d="M118.16 261.84a6.16 6.16 0 0 0 3.89 2.6c2.11.41 3-1.52 2.26-3.43-.66-1.68-2.55-4-4.6-3.51a2.74 2.74 0 0 0-1.55 4.34z" style="fill:#ebb376;transform-origin:121.079px 260.965px" id="el9pbg5w2n0op" class="animable"/><path d="m128.16 277.3.37.14h-11.4c-.08-.14-.15-.28-.22-.43l3.66-3.51a12.2 12.2 0 0 0 1.1.75 33.24 33.24 0 0 0 4.08 2.1c.42.19.86.37 1.33.56z" style="fill:#263238;transform-origin:122.72px 275.47px" id="elxrie3vu8rw" class="animable"/><path d="M136.31 276.44v1H131l.07-.16a5.66 5.66 0 0 0 .34-1 .13.13 0 0 0 0-.06c.05-.22.1-.45.14-.71a10.37 10.37 0 0 0 .1-1.35v-1.08z" style="fill:#263238;transform-origin:133.655px 275.26px" id="elu6adqiabk1k" class="animable"/><path d="M132.08 276.25a4.22 4.22 0 0 1-.34 1v.15H131l.08-.16a5.66 5.66 0 0 0 .34-1v-.06a6 6 0 0 0 .14-.71 8.74 8.74 0 0 0 .11-1.34v-1.08a3.68 3.68 0 0 1 .48 1.53 5.15 5.15 0 0 1-.07 1.67z" style="opacity:.2;isolation:isolate;transform-origin:131.594px 275.225px" class="animable" id="el3a38uroi5ck"/></g><path d="M204.15 255.91H157a1.23 1.23 0 0 1-1.23-1.24 1.23 1.23 0 0 1 1.23-1.23h47.12a1.24 1.24 0 0 1 1.24 1.23 1.24 1.24 0 0 1-1.21 1.24z" style="fill:#fff;transform-origin:180.565px 254.675px" id="elykjv1cbxax9" class="animable"/><path d="M189 244.06h-31.45a1.76 1.76 0 0 0 0 3.51H189a1.76 1.76 0 1 0 0-3.51z" style="fill:#fff;transform-origin:173.408px 245.815px" id="el14z52ur18kk" class="animable"/><path d="M185.15 261H157a1.23 1.23 0 0 1-1.23-1.23 1.23 1.23 0 0 1 1.23-1.24h28.12a1.24 1.24 0 0 1 1.24 1.24 1.24 1.24 0 0 1-1.21 1.23z" style="fill:#fff;transform-origin:171.065px 259.765px" id="el5v7xiggmg4n" class="animable"/></g><g id="freepik--Briefcase--inject-45" class="animable" style="transform-origin:306.615px 393.28px"><path d="M294.22 373.59s4.35-5.6 10.16-5.6 10.47 5.6 10.47 5.6h-4.25a11 11 0 0 0-6.22-4c-3.92-.76-6.42 4-6.42 4z" style="fill:#263238;transform-origin:304.535px 370.79px" id="elufo2kceo8fq" class="animable"/><rect x="276.91" y="372.61" width="60.82" height="45.96" rx="4.94" style="fill:#263238;transform-origin:307.32px 395.59px" id="el03fztmzvebok" class="animable"/><path d="M337.73 377.87v35.44a5.25 5.25 0 0 1-5.26 5.25h-50.29a5.25 5.25 0 0 1-5.26-5.25v-35.44a5.26 5.26 0 0 1 5.26-5.26h50.29a5.26 5.26 0 0 1 5.26 5.26z" style="fill:#fff;opacity:.2;transform-origin:307.325px 395.585px" class="animable" id="elb9ln6oqffpa"/><path d="M333.8 377.87v35.44a5.25 5.25 0 0 1-5.26 5.25h-46.36a5.25 5.25 0 0 1-5.26-5.25v-35.44a5.26 5.26 0 0 1 5.26-5.26h46.36a5.26 5.26 0 0 1 5.26 5.26z" style="fill:#fff;opacity:.2;transform-origin:305.36px 395.585px" class="animable" id="elkohm6zm2ll"/><path d="M335 373.26a5.88 5.88 0 0 0-3.23 5.26v18.68a2.36 2.36 0 0 1-2.37 2.36h-51.54a2.34 2.34 0 0 1-2.36-2.36v-18.68a5.9 5.9 0 0 1 5.91-5.91h51.06a5.26 5.26 0 0 1 2.53.65z" style="fill:#263238;transform-origin:305.25px 386.085px" id="el48tvyvv8gi1" class="animable"/><path d="M335 373.26a5.88 5.88 0 0 0-3.23 5.26v18.68a2.36 2.36 0 0 1-2.37 2.36h-51.54a2.34 2.34 0 0 1-2.36-2.36v-18.68a5.9 5.9 0 0 1 5.91-5.91h51.06a5.26 5.26 0 0 1 2.53.65z" style="fill:#fff;opacity:.2;transform-origin:305.25px 386.085px" class="animable" id="elha3y5d5alf4"/><path d="M299.55 398.28h3.93v6.07a1.85 1.85 0 0 1-1.85 1.85h-.24a1.85 1.85 0 0 1-1.85-1.85v-6.07z" style="fill:#263238;transform-origin:301.51px 402.24px" id="eloffb1ddjtsd" class="animable"/><rect x="298.67" y="398.28" width="5.71" height="5.05" rx=".65" style="fill:#fff;transform-origin:301.525px 400.805px" id="el6k6cmcusd4w" class="animable"/><path style="fill:#263238;transform-origin:301.515px 398.28px" id="elvzz15avhqhq" class="animable" d="M299.55 394.32h3.93v7.92h-3.93z"/></g><g id="freepik--Character--inject-45" class="animable animator-active" style="transform-origin:387.532px 285.013px;animation:6s Infinite linear wind;animation-delay:0s"><g id="freepik--group--inject-45" class="animable" style="transform-origin:387.532px 285.013px"><path d="m409.53 236.75-5.83 5.84c-.9.9-.3 6.29 0 8.09s7.51 5.09 7.95 4.79 1.79-6.54 1.79-6.54l-6-3.08 4.2-4.91z" style="fill:#9f5b53;transform-origin:408.332px 246.12px" id="elqejy57qd8fs" class="animable"/><path d="M408.94 194.74c3.44 1.39 16.78 27.83 16.84 32.61s-16.84 17.44-16.84 17.44l-3.72-3.56s12.31-14.49 12.7-16.34-13.46-20-13.46-20z" style="fill:#407bff;transform-origin:415.12px 219.765px" id="elpzcnel1eoj" class="animable"/><path d="M425.78 227.35c.06 4.78-16.84 17.44-16.84 17.44l-3.72-3.56s12.31-14.49 12.7-16.34c.21-1-3.54-6.47-7.13-11.45-3.23-4.47-6.33-8.53-6.33-8.53l1.31-3 3.17-7.2c3.44 1.42 16.78 27.86 16.84 32.64z" style="fill:#fff;opacity:.4;isolation:isolate;transform-origin:415.12px 219.75px" class="animable" id="eld9upd3wl0z"/><path style="fill:#407bff;transform-origin:407.765px 242.68px" id="elquh8ec9ii3" class="animable" d="m405.92 238.99 5.15 5.8-2.13 1.58-4.48-5.01 1.46-2.37z"/><path d="M410.79 213.44c-3.23-4.47-6.33-8.53-6.33-8.53l1.31-3c.24-.14.48-.27.74-.4 0 .03 4.62 5.25 4.28 11.93z" style="opacity:.2;isolation:isolate;transform-origin:407.634px 207.475px" class="animable" id="el7usjxnrpcaw"/><path d="M380.31 172.76a18.07 18.07 0 0 1-2.67 3.4 2.33 2.33 0 0 0 2.19 1.08z" style="fill:#a24e3f;transform-origin:378.975px 175.005px" id="elria96ou9a1j" class="animable"/><path d="M379.46 171.43c-.06.7.27 1.3.74 1.33s.89-.5.94-1.2-.28-1.29-.74-1.33-.89.5-.94 1.2z" style="fill:#2e353a;transform-origin:380.299px 171.495px" id="elf2viv0c7mje" class="animable"/><path d="M380.25 179.85a8.79 8.79 0 0 0 .32 1 10.07 10.07 0 0 0 3.58 4.78 11.85 11.85 0 0 0 1.31.81 9.11 9.11 0 0 0 7.85.34 9 9 0 0 0 3-2.07c3.63-3.67 3.54-7.9 3.95-15.07a9.84 9.84 0 0 0-13.57-9.8c-7.03 2.9-7.99 13.56-6.44 20.01z" style="fill:#9f5b53;transform-origin:389.949px 173.302px" id="elof8r7vharnr" class="animable"/><path d="M384.15 185.66a11.85 11.85 0 0 0 1.31.81 9.11 9.11 0 0 0 7.85.34 10.6 10.6 0 0 0-1.28-2.43 14.11 14.11 0 0 0-7.88 1.28z" style="opacity:.2;isolation:isolate;transform-origin:388.73px 185.903px" class="animable" id="el78b0w0e9dci"/><path d="M398.58 195c-3.54 3.21-12.19 2-12.19 2s-5.4-1.47-4.26-3.16c3.18-.53 4.72-2 5.36-3.91a9.44 9.44 0 0 0 .32-3.63 20.16 20.16 0 0 0-.27-2l10.69-7.92c-1.4 5.17-3.11 14.78.35 18.62z" style="fill:#9f5b53;transform-origin:390.276px 186.802px" id="el1kcvhvop877" class="animable"/><path d="M388.73 156.78s-1.89-1.16-5.13 1.89c-2.72 2.57 0 4.63-1.63 7.93s.58 6.55.58 6.55 1.57 3.38 4.31 3.17c0 0 2.23 2.7 1.87 5.5s3.66 5 9.13 4.94 3.28-3.49 3.28-3.49a22.68 22.68 0 0 0 3.8-6.13 21.26 21.26 0 0 0 1.55-8.57 11.46 11.46 0 0 0-3.16-8.29c-3.65-4.11-12.33-6.18-14.6-3.5z" style="fill:#263238;transform-origin:393.934px 171.169px" id="eliukmmyysxef" class="animable"/><path d="M388.22 174.76a4.63 4.63 0 0 1-2.38 3.19c-1.46.62-2.42-1.44-2.21-3.6.2-1.91 1.19-4.6 2.75-4.24s2.35 2.72 1.84 4.65z" style="fill:#9f5b53;transform-origin:385.988px 174.07px" id="elpv5i4zj5nu" class="animable"/><path d="M382.53 164.43s-5.36-5-2.92-10.41 2.92 0 2.92 0 4.05-3.22 6.2-2.4-1.36 2.67-1.36 2.67 15.27-2.73 16.63 6.71-21.47 3.43-21.47 3.43z" style="fill:#263238;transform-origin:391.516px 158.901px" id="eln0skdvdbmy" class="animable"/><path d="M381.2 169.71a.35.35 0 0 1-.29-.14 1.08 1.08 0 0 0-.73-.47.36.36 0 0 1-.37-.34.36.36 0 0 1 .32-.38 1.67 1.67 0 0 1 1.35.75.36.36 0 0 1-.06.51.34.34 0 0 1-.22.07z" style="fill:#2e353a;transform-origin:380.684px 169.045px" id="eln6ntzja1i58" class="animable"/><path d="m399.45 194.28-1.58-4.08s-10.66-2-14.27 3.26 15.85.82 15.85.82z" style="fill:#407bff;transform-origin:391.302px 192.929px" id="el83otf439amj" class="animable"/><path style="fill:#9f5b53;transform-origin:366.57px 404.025px" id="el6nr2lainagv" class="animable" d="m371.01 411.7-7.48.78-.38-4.33-1.02-11.79 7.48-.79 1.13 13.02.27 3.11z"/><path style="fill:#9f5b53;transform-origin:404.405px 402.455px" id="elm7s7z4grut" class="animable" d="M408.33 410.75h-7.25l-.06-1.64-.01-.2-.37-10.51-.01-.21-.15-4.03h7.26l.59 16.59z"/><path style="opacity:.2;isolation:isolate;transform-origin:366.435px 402.08px" class="animable" d="m369.61 395.57 1.13 13.02-7.59-.44-1.02-11.79 7.48-.79z" id="el29n2v3tx73v"/><path style="opacity:.2;isolation:isolate;transform-origin:404.455px 404.295px" class="animable" d="M408.28 409.83h-.01l-7.25-.92h-.01l-.38-10.15h.01l7.27.59.36 10.16.01.32z" id="eloekrv6p1suj"/><path d="M400.08 410.31h8.8a.64.64 0 0 1 .62.5l1.43 6.46a1.07 1.07 0 0 1-.83 1.26.85.85 0 0 1-.23 0c-2.85-.05-4.92-.23-8.5-.23-2.2 0-8.85.24-11.89.24s-3.44-3-2.2-3.29c5.59-1.21 9.79-2.9 11.58-4.5a1.78 1.78 0 0 1 1.22-.44z" style="fill:#263238;transform-origin:398.787px 414.425px" id="elqugfhz5fftk" class="animable"/><path d="M362.74 410.08h8.81a.64.64 0 0 1 .61.5l1.43 6.45a1.07 1.07 0 0 1-.82 1.27h-.24c-2.85-.05-4.92-.23-8.5-.23-2.2 0-8.85.23-11.89.23s-3.44-3-2.2-3.28c5.59-1.21 9.8-2.9 11.58-4.51a1.83 1.83 0 0 1 1.22-.43z" style="fill:#263238;transform-origin:361.448px 414.19px" id="elacqobeuvnkg" class="animable"/><path d="M361.45 407.06h10.63s-.87-91.5 10.63-122.41c.81 10.22 1.72 20.82 2.61 29.65.57 5.47 1.12 10.16 1.64 13.74 3.35 23 11.8 79.94 11.8 79.94h10.5s-1.25-54.51-2.49-77.17c-1.38-24.58-2-78.63-2-83.24h-38.48c-3.66 19.36-13.05 96.8-4.84 159.49z" style="fill:#263238;transform-origin:383.719px 327.775px" id="elsv3c474te2a" class="animable"/><path d="M382.71 284.61c.81 10.22 1.72 20.84 2.61 29.67 1.31-12.75 2.92-21.84 2.92-21.84s1.5-1.24 5.63-7.83 0-18.9 0-18.9c.13 11.43-11.16 18.9-11.16 18.9z" style="opacity:.2;isolation:isolate;transform-origin:389.208px 289.995px" class="animable" id="elb9nt4sb5erg"/><path style="fill:#407bff;transform-origin:366.79px 405.565px" id="el8kx8abubpre" class="animable" d="m360.25 404.07.52 2.99h12.56v-2.76l-13.08-.23z"/><path style="fill:#407bff;transform-origin:403.765px 406.605px" id="el5cofwiaeii3" class="animable" d="m397.55 405.22 1.21 2.77h10.53l.69-2.77h-12.43z"/><path d="M405.7 250.13s-1.48-8.72.72-34.15c.57-6.55 1.38-13.67 2.52-21.24 0 0-20.91-4.62-35.5 0 0 0-.6 3.1-1.42 8.37-.51 3.17-1.09 7.13-1.67 11.68l-.06.51c-1.45 11.08-4.21 19.29-4.49 34.17z" style="fill:#407bff;transform-origin:387.37px 221.408px" id="elzmhv1h7ek3" class="animable"/><path d="M406.42 216c-2.2 25.43-.72 34.15-.72 34.15l-39.91-.65c.25-13.18 2.44-21.13 3.95-30.48.19-1.2.38-2.43.54-3.69l.06-.51c.48-3.77 1-7.13 1.41-10 .08-.59.17-1.16.26-1.7.82-5.27 1.42-8.37 1.42-8.37 14.59-4.62 35.5 0 35.5 0-1.13 7.56-1.93 14.68-2.51 21.25z" style="fill:#fff;opacity:.4;isolation:isolate;transform-origin:387.36px 221.423px" class="animable" id="el6m810amvuvb"/><path d="M374.15 205.27s-.36 8.84-4.41 13.73c.19-1.2.38-2.43.54-3.69l.06-.51c.48-3.77 1-7.13 1.41-10a12.37 12.37 0 0 1 2.4.47z" style="opacity:.2;isolation:isolate;transform-origin:371.945px 211.9px" class="animable" id="elqrnj31623vm"/><path d="m366.24 188.18 2.95-3.71a10.6 10.6 0 0 1 1.23-2.37c.43-.38 5.79-3 6.15-2.84a49 49 0 0 1 2.68 5.14c.28.58-4 2.61-5.14 2.9a3.71 3.71 0 0 1-2.17-.15l-2.32 3.76" style="fill:#9f5b53;transform-origin:372.752px 185.081px" id="elmpw0640nuxe" class="animable"/><path d="M373.57 194.78c-3 1.22-6.32 4.57-11 9.34l8.17-14.75-4.22-2.49s-16.91 23.65-16.91 26.93 4.44 5.85 21.4-3c0 0 4.51-6.45 4.51-10.24a8.49 8.49 0 0 0-1.95-5.79z" style="fill:#407bff;transform-origin:362.569px 201.87px" id="el1941rde8iy3" class="animable"/><path d="M373.57 194.78c-3 1.22-6.32 4.57-11 9.34l8.17-14.75-4.22-2.49s-16.91 23.65-16.91 26.93 4.44 5.85 21.4-3c0 0 4.51-6.45 4.51-10.24a8.49 8.49 0 0 0-1.95-5.79z" style="fill:#fff;opacity:.4;isolation:isolate;transform-origin:362.569px 201.87px" class="animable" id="elp62bubbg27c"/><path style="fill:#407bff;transform-origin:368.12px 188.845px" id="elzhs583lnyj8" class="animable" d="m366.96 186.01 4.92 2.77-1.01 2.9-6.51-3.62 2.6-2.05z"/></g></g><defs><filter id="active" height="200%"><feMorphology in="SourceAlpha" result="DILATED" operator="dilate" radius="2"/><feFlood flood-color="#32DFEC" flood-opacity="1" result="PINK"/><feComposite in="PINK" in2="DILATED" operator="in" result="OUTLINE"/><feMerge><feMergeNode in="OUTLINE"/><feMergeNode in="SourceGraphic"/></feMerge></filter><filter id="hover" height="200%"><feMorphology in="SourceAlpha" result="DILATED" operator="dilate" radius="2"/><feFlood flood-color="red" flood-opacity=".5" result="PINK"/><feComposite in="PINK" in2="DILATED" operator="in" result="OUTLINE"/><feMerge><feMergeNode in="OUTLINE"/><feMergeNode in="SourceGraphic"/></feMerge><feColorMatrix values="0 0 0 0 0 0 1 0 0 0 0 0 0 0 0 0 0 0 1 0"/></filter></defs></svg>