<svg class="animated" id="freepik_stories-light-bulb" xmlns="http://www.w3.org/2000/svg" viewBox="0 0 500 500" version="1.1"><style>@keyframes wind{0%{transform:rotate(0deg)}25%{transform:rotate(1deg)}75%{transform:rotate(-1deg)}}@keyframes heartbeat{0%,30%,40%,60%,to{transform:scale(1)}10%,50%{transform:scale(1.1)}}svg#freepik_stories-light-bulb:not(.animated) .animable{opacity:0}</style><g id="freepik--background-complete--inject-31" class="animable" style="transform-origin:246.745px 246.03px"><path d="m231.71 169.75-78.62-1.05-23.83-.2h-8.74a2.39 2.39 0 0 0 .58 0l1.68.05 6.48.11 23.83.21 78.62.35c30.69.11 58.48.25 78.59.48 10.06.11 18.2.23 23.83.36 2.81.07 5 .13 6.47.19a13.4 13.4 0 0 1 2.26.18 10.75 10.75 0 0 1-2.26.14c-1.48 0-3.67.07-6.48.08-5.63 0-13.77 0-23.83-.06-20.11-.06-47.9-.41-78.58-.84z" style="fill:#ebebeb;transform-origin:231.69px 169.575px" id="eljh8wc7v74ir" class="animable"/><path d="m231.07 176.68-77.5-13.26-23.51-3.91-6.39-1-1.67-.24-.57-.06a4 4 0 0 0 .56.13l1.65.31 6.39 1.11 23.5 3.92 77.62 12.55c30.29 4.87 57.72 9.33 77.56 12.68 9.92 1.67 17.94 3.06 23.48 4.06 2.76.5 4.91.91 6.36 1.2a13.14 13.14 0 0 1 2.21.53 11.53 11.53 0 0 1-2.26-.21c-1.47-.19-3.63-.5-6.41-.93-5.56-.84-13.6-2.12-23.53-3.75-19.85-3.27-47.25-7.93-77.49-13.13z" style="fill:#ebebeb;transform-origin:231.095px 176.455px" id="el0ykj2jvuvbu" class="animable"/><path d="m229.35 183.42-74.44-25.31-22.6-7.55-6.16-2-1.6-.5a4.16 4.16 0 0 0-.56-.15l.53.22 1.59.56 6.13 2.11 22.59 7.57L229.5 183c29.15 9.59 55.54 18.31 74.6 24.74 9.53 3.21 17.24 5.85 22.55 7.71 2.65.93 4.71 1.67 6.1 2.19a13.06 13.06 0 0 1 2.09.87 11.94 11.94 0 0 1-2.2-.56c-1.42-.42-3.51-1.07-6.19-1.93-5.36-1.7-13.09-4.24-22.64-7.41-19.09-6.37-45.41-15.29-74.46-25.19z" style="fill:#ebebeb;transform-origin:229.415px 183.21px" id="elr0wrsgdva5d" class="animable"/><path d="m226.6 189.8-69.54-36.7-21.12-11-5.77-3-1.51-.75a3.9 3.9 0 0 0-.52-.24 2.05 2.05 0 0 0 .49.3l1.48.81 5.72 3 21.12 11 69.86 36.07c27.28 14.05 52 26.82 69.78 36.17 8.91 4.67 16.1 8.48 21.05 11.16 2.48 1.33 4.39 2.39 5.68 3.12a12 12 0 0 1 1.93 1.18 11.57 11.57 0 0 1-2.08-.9c-1.33-.64-3.29-1.61-5.8-2.88-5-2.53-12.27-6.25-21.2-10.88-17.85-9.17-42.44-22.12-69.57-36.46z" style="fill:#ebebeb;transform-origin:226.695px 189.515px" id="elqkkhjf8w4r" class="animable"/><path d="m222.88 195.67-62.94-47.12-19.15-14.18-5.23-3.82-1.38-1a2.71 2.71 0 0 0-.48-.31 4.9 4.9 0 0 0 .44.37l1.34 1 5.17 3.9 19.14 14.19 63.37 46.54c24.75 18.15 47.13 34.62 63.26 46.63 8.07 6 14.58 10.9 19.05 14.32 2.24 1.71 4 3.05 5.12 4a12.49 12.49 0 0 1 1.72 1.47 11.28 11.28 0 0 1-1.91-1.21c-1.22-.84-3-2.11-5.29-3.75-4.56-3.29-11.13-8.09-19.23-14.07-16.18-11.92-38.45-28.56-63-46.96z" style="fill:#ebebeb;transform-origin:223.005px 195.45px" id="elizikpm3b1u" class="animable"/><path d="m218.29 200.88-54.85-56.33c-7-7.16-12.75-13-16.7-17l-4.58-4.55-1.16-1.2-.43-.39a3.08 3.08 0 0 0 .38.44l1.15 1.22 4.51 4.66 16.69 17 55.36 55.83c21.63 21.77 41.18 41.52 55.25 55.9 7 7.19 12.7 13 16.58 17.11 1.95 2 3.45 3.62 4.45 4.71a11.67 11.67 0 0 1 1.47 1.73 11.56 11.56 0 0 1-1.7-1.5c-1.08-1-2.64-2.55-4.64-4.53-4-4-9.75-9.72-16.81-16.88-14.17-14.32-33.58-34.21-54.97-56.22z" style="fill:#ebebeb;transform-origin:218.49px 200.71px" id="eloc7khz3issp" class="animable"/><path d="m213 205.32-45.42-64.17-13.86-19.38-3.81-5.25-1-1.35a3.11 3.11 0 0 0-.36-.44 4.92 4.92 0 0 0 .31.48l.95 1.39 3.73 5.3c3.28 4.6 8 11.22 13.84 19.39 11.79 16.33 28 38.87 46 63.76s34.21 47.43 45.87 63.82c5.83 8.2 10.52 14.85 13.73 19.48 1.6 2.31 2.83 4.11 3.65 5.35a12.82 12.82 0 0 1 1.19 1.93 11.22 11.22 0 0 1-1.45-1.75c-.9-1.17-2.21-2.92-3.88-5.19-3.33-4.53-8.11-11.12-14-19.29-11.76-16.34-27.83-39.01-45.49-64.08z" style="fill:#ebebeb;transform-origin:213.185px 205.18px" id="elajbjqmotkr7" class="animable"/><path d="m207 208.88-34.83-70.49c-4.49-9-8.13-16.26-10.66-21.31l-2.94-5.78c-.34-.64-.6-1.13-.78-1.49a4.63 4.63 0 0 0-.29-.5 3.49 3.49 0 0 0 .23.53l.72 1.53 2.85 5.81c2.52 5.06 6.16 12.33 10.64 21.32 9.09 18 21.62 42.77 35.47 70.17s26.39 52.19 35.34 70.2c4.48 9 8.07 16.32 10.51 21.38 1.22 2.54 2.16 4.51 2.78 5.86a12.42 12.42 0 0 1 .86 2.09 10.85 10.85 0 0 1-1.15-1.94c-.71-1.31-1.73-3.24-3-5.74-2.59-5-6.28-12.25-10.8-21.24-9.07-17.98-21.4-42.88-34.95-70.4z" style="fill:#ebebeb;transform-origin:207.2px 208.755px" id="eljxorjpyieim" class="animable"/><path d="m200.53 211.45-23.31-75.09-7.17-22.73c-.86-2.66-1.53-4.73-2-6.16-.23-.69-.41-1.21-.54-1.59a3.85 3.85 0 0 0-.2-.54 3.11 3.11 0 0 0 .14.56l.47 1.61 1.9 6.2c1.7 5.38 4.14 13.14 7.16 22.72 6.14 19.18 14.62 45.64 24 74.88s17.83 55.69 23.84 74.89c3 9.6 5.4 17.38 7 22.77.8 2.69 1.42 4.79 1.81 6.22a11.93 11.93 0 0 1 .53 2.2 11.27 11.27 0 0 1-.84-2.11c-.49-1.39-1.19-3.46-2.08-6.13-1.77-5.34-4.27-13.09-7.31-22.68-6.08-19.17-14.33-45.7-23.4-75.02z" style="fill:#ebebeb;transform-origin:200.735px 211.365px" id="eld2mw2acudhp" class="animable"/><path d="M193.75 213c-4.38-30.39-8.33-57.89-11.2-77.82l-3.51-23.57c-.44-2.76-.77-4.91-1-6.4-.12-.71-.22-1.26-.28-1.66a4.41 4.41 0 0 0-.12-.56 2.24 2.24 0 0 0 .05.57l.21 1.67c.21 1.49.51 3.65.9 6.42.83 5.58 2 13.63 3.49 23.57 3.06 19.9 7.26 47.37 11.91 77.72s8.86 57.8 11.77 77.7c1.46 10 2.6 18 3.35 23.59.37 2.79.65 5 .82 6.43a13.11 13.11 0 0 1 .17 2.26 10.6 10.6 0 0 1-.49-2.21c-.27-1.46-.64-3.61-1.09-6.39-.91-5.55-2.16-13.6-3.66-23.54-3-19.93-6.98-47.43-11.32-77.78z" style="fill:#ebebeb;transform-origin:193.975px 212.955px" id="elibzp6z2bis" class="animable"/><path d="M186.81 213.42c.39-30.7.74-58.48 1-78.62.08-10.05.14-18.18.19-23.83v-8.16a4.09 4.09 0 0 0 0-.57 3.09 3.09 0 0 0 0 .57v1.68c0 1.51-.06 3.68-.1 6.48-.05 5.65-.12 13.78-.2 23.83-.08 20.14-.18 47.92-.3 78.62s-.22 58.48-.43 78.6c-.1 10.05-.22 18.19-.35 23.82-.06 2.81-.13 5-.19 6.48a11 11 0 0 1-.18 2.25 12.71 12.71 0 0 1-.14-2.26c0-1.48-.06-3.66-.08-6.48v-23.82c.03-20.12.36-47.91.78-78.59z" style="fill:#ebebeb;transform-origin:187.02px 213.405px" id="elwgfero0v73f" class="animable"/><path d="M179.88 212.79c5.16-30.27 9.83-57.66 13.21-77.51l3.91-23.51c.44-2.76.78-4.91 1-6.4.11-.72.19-1.27.24-1.67a4 4 0 0 0 .06-.57 5.41 5.41 0 0 0-.13.56c-.07.4-.17 1-.3 1.66-.26 1.48-.63 3.63-1.11 6.38-.93 5.57-2.26 13.6-3.91 23.51l-12.5 77.62c-4.86 30.3-9.3 57.73-12.63 77.57-1.67 9.92-3.05 17.95-4.05 23.48-.5 2.77-.9 4.92-1.2 6.37a12.36 12.36 0 0 1-.52 2.2 10.56 10.56 0 0 1 .21-2.25c.19-1.47.5-3.63.92-6.41.84-5.57 2.12-13.61 3.74-23.54 3.24-19.85 7.88-47.28 13.06-77.49z" style="fill:#ebebeb;transform-origin:180.124px 212.805px" id="el07o4ovbky2iy" class="animable"/><path d="M173.14 211.08c9.86-29.08 18.79-55.39 25.26-74.46l7.54-22.62c.86-2.66 1.54-4.73 2-6.16.22-.69.38-1.22.5-1.6a4.16 4.16 0 0 0 .15-.56 4.77 4.77 0 0 0-.21.53q-.21.57-.57 1.59c-.49 1.42-1.19 3.48-2.1 6.13-1.79 5.35-4.37 13.07-7.56 22.59-6.29 19.13-15 45.53-24.57 74.69s-18.27 55.55-24.68 74.62c-3.21 9.53-5.84 17.24-7.7 22.55-.93 2.65-1.67 4.71-2.19 6.1a10.33 10.33 0 0 1-.87 2.09 12.16 12.16 0 0 1 .56-2.2c.43-1.42 1.07-3.5 1.93-6.18 1.7-5.37 4.23-13.11 7.39-22.65 6.34-19.09 15.24-45.41 25.12-74.46z" style="fill:#ebebeb;transform-origin:173.365px 211.125px" id="eld4q3qok6yps" class="animable"/><path d="M166.76 208.33c14.31-27.17 27.26-51.75 36.65-69.56l11-21.14 3-5.77q.48-1 .75-1.5a4.1 4.1 0 0 0 .23-.53 3.44 3.44 0 0 0-.3.49c-.19.35-.46.84-.8 1.48l-3 5.72c-2.61 5-6.38 12.22-11 21.13l-36 69.89c-14 27.29-26.79 52-36.13 69.8-4.66 8.91-8.47 16.1-11.14 21.06-1.34 2.47-2.39 4.39-3.12 5.68a12.06 12.06 0 0 1-1.19 1.93 12.26 12.26 0 0 1 .91-2.08c.64-1.34 1.6-3.3 2.87-5.81 2.53-5 6.24-12.27 10.87-21.2 9.14-17.86 22.07-42.46 36.4-69.59z" style="fill:#ebebeb;transform-origin:167.05px 208.42px" id="elu2yvih5wwuk" class="animable"/><path d="m160.89 204.61 47.07-63 14.18-19.16 3.81-5.23 1-1.38a3.77 3.77 0 0 0 .31-.48 3.51 3.51 0 0 0-.37.44c-.24.32-.59.76-1 1.33-.9 1.21-2.21 3-3.89 5.18l-14.19 19.15-46.5 63.4c-18.13 24.76-34.58 47.15-46.59 63.29-6 8.07-10.89 14.58-14.3 19.06-1.71 2.23-3.05 4-4 5.12a12.49 12.49 0 0 1-1.47 1.72 11.28 11.28 0 0 1 1.21-1.91c.84-1.22 2.11-3 3.75-5.29 3.28-4.57 8.08-11.14 14-19.24 11.97-16.16 28.59-38.43 46.98-63z" style="fill:#ebebeb;transform-origin:161.105px 204.705px" id="eld7g5jkibd08" class="animable"/><path d="M155.67 200 212 145.14l17-16.72 4.59-4.58 1.17-1.2a3.24 3.24 0 0 0 .39-.43 2.78 2.78 0 0 0-.43.38c-.3.27-.7.66-1.23 1.16l-4.65 4.5-17 16.71-55.84 55.4c-21.76 21.63-41.49 41.2-55.87 55.27-7.18 7-13 12.71-17.09 16.6-2 1.95-3.62 3.45-4.71 4.45a12.34 12.34 0 0 1-1.73 1.47 11.56 11.56 0 0 1 1.5-1.7c1-1.08 2.55-2.64 4.52-4.64 4-4 9.72-9.75 16.88-16.82 14.3-14.14 34.18-33.56 56.17-54.99z" style="fill:#ebebeb;transform-origin:155.875px 200.18px" id="elmeiyxwa7d1" class="animable"/><path d="m151.22 194.68 64.15-45.46 19.38-13.87 5.23-3.81 1.36-1a3.11 3.11 0 0 0 .44-.36 3 3 0 0 0-.49.31l-1.38 1-5.3 3.73L215.23 149l-63.74 46c-24.86 18-47.4 34.25-63.78 45.92-8.2 5.83-14.85 10.53-19.47 13.74-2.31 1.6-4.11 2.83-5.35 3.65a12.82 12.82 0 0 1-1.89 1.25 11.38 11.38 0 0 1 1.74-1.45c1.18-.9 2.93-2.21 5.19-3.88 4.53-3.34 11.12-8.12 19.29-14 16.29-11.73 38.95-27.82 64-45.55z" style="fill:#ebebeb;transform-origin:151.39px 194.87px" id="elxswxmzrrw5" class="animable"/><path d="m147.67 188.72 70.47-34.87 21.3-10.68 5.77-2.94 1.49-.79a2.65 2.65 0 0 0 .5-.29 3.49 3.49 0 0 0-.53.23l-1.52.72-5.82 2.9L218 153.62l-70.15 35.51C120.51 203 95.7 215.55 77.69 224.51c-9 4.49-16.3 8.08-21.37 10.53-2.53 1.22-4.51 2.16-5.86 2.77a11.37 11.37 0 0 1-2.09.87 12.2 12.2 0 0 1 2-1.16c1.3-.7 3.23-1.72 5.73-3 5-2.59 12.25-6.28 21.24-10.8 17.92-9.07 42.81-21.41 70.33-35z" style="fill:#ebebeb;transform-origin:147.785px 188.915px" id="el87g3qap841o" class="animable"/><path d="m145.09 182.26 75.08-23.34 22.72-7.19 6.16-2 1.59-.54a4.56 4.56 0 0 0 .54-.21 3.11 3.11 0 0 0-.56.14l-1.61.47-6.2 1.91-22.72 7.17-74.86 24c-29.21 9.4-55.68 17.88-74.87 23.9-9.6 3-17.38 5.41-22.77 7-2.69.81-4.79 1.42-6.22 1.82a11.26 11.26 0 0 1-2.2.52 11.83 11.83 0 0 1 2.11-.83c1.39-.5 3.46-1.2 6.13-2.09 5.34-1.77 13.09-4.28 22.67-7.33 19.17-6.03 45.7-14.31 75.01-23.4z" style="fill:#ebebeb;transform-origin:145.175px 182.445px" id="elc3f7e34wr96" class="animable"/><path d="m143.56 175.48 77.82-11.24 23.56-3.53 6.4-1 1.66-.28a4.37 4.37 0 0 0 .57-.12 2.31 2.31 0 0 0-.58.05l-1.67.21-6.41.91-23.57 3.52-77.71 11.95c-30.33 4.69-57.8 8.9-77.7 11.82-10 1.47-18 2.61-23.59 3.36-2.79.38-5 .66-6.43.82a12.63 12.63 0 0 1-2.25.18 10.92 10.92 0 0 1 2.21-.5c1.45-.27 3.61-.63 6.38-1.09 5.56-.91 13.6-2.16 23.55-3.67 19.89-3.02 47.39-7.02 77.76-11.39z" style="fill:#ebebeb;transform-origin:143.615px 175.719px" id="el81ck7sd06bh" class="animable"/><path d="m143.11 168.55 78.62.95 23.83.18H254.26a3.29 3.29 0 0 0-.58 0l-1.68-.05-6.48-.09-23.83-.19-78.58-.35c-30.69-.07-58.48-.18-78.59-.38-10.06-.1-18.2-.21-23.83-.33-2.81-.07-5-.13-6.48-.19a11 11 0 0 1-2.25-.18 12.84 12.84 0 0 1 2.26-.14c1.48 0 3.66-.07 6.48-.08h23.82c20.12.14 47.91.45 78.59.85z" style="fill:#ebebeb;transform-origin:143.11px 168.69px" id="el2gyuqv75tkt" class="animable"/><path d="m143.74 161.62 77.52 13.16 23.51 3.88 6.4 1 1.66.24a4 4 0 0 0 .58.06 5.41 5.41 0 0 0-.56-.13l-1.66-.3-6.38-1.11-23.51-3.89-77.63-12.45c-30.31-4.84-57.74-9.26-77.58-12.58-9.93-1.66-18-3-23.49-4-2.77-.49-4.91-.9-6.37-1.19a12.69 12.69 0 0 1-2.2-.52 10.9 10.9 0 0 1 2.26.2c1.47.19 3.63.5 6.41.92 5.56.84 13.61 2.11 23.53 3.73 19.86 3.19 47.26 7.82 77.51 12.98z" style="fill:#ebebeb;transform-origin:143.72px 161.874px" id="el3clwcgjnp99" class="animable"/><path d="m145.45 154.88 74.47 25.21 22.61 7.52 6.16 2 1.61.51a3.94 3.94 0 0 0 .56.14l-.54-.21-1.58-.57-6.13-2.09-22.61-7.55-74.7-24.52c-29.16-9.54-55.56-18.23-74.63-24.64-9.54-3.2-17.24-5.82-22.56-7.68-2.65-.93-4.71-1.66-6.1-2.18a12 12 0 0 1-2.09-.87 12.16 12.16 0 0 1 2.2.56c1.42.42 3.5 1.07 6.19 1.92 5.36 1.7 13.1 4.22 22.65 7.38 19.1 6.32 45.43 15.19 74.49 25.07z" style="fill:#ebebeb;transform-origin:145.39px 155.105px" id="elunpm3joel5h" class="animable"/><path d="m148.19 148.5 69.59 36.61 21.14 11 5.77 2.94 1.51.75a3 3 0 0 0 .52.23 3 3 0 0 0-.49-.29l-1.48-.81-5.72-3-21.14-11-69.91-36c-27.3-14-52-26.76-69.82-36.08-8.92-4.66-16.11-8.47-21.07-11.14-2.47-1.33-4.39-2.38-5.68-3.11a11.47 11.47 0 0 1-1.93-1.19 13.05 13.05 0 0 1 2.08.9c1.33.64 3.29 1.61 5.81 2.87 5 2.53 12.27 6.24 21.2 10.86 17.87 9.23 42.43 22.15 69.62 36.46z" style="fill:#ebebeb;transform-origin:148.1px 148.72px" id="elza3m6nsg8o" class="animable"/><path d="m151.9 142.62 63 47 19.16 14.16 5.24 3.81c.59.42 1.05.74 1.37 1a4.22 4.22 0 0 0 .49.31 4.68 4.68 0 0 0-.44-.37l-1.34-1-5.18-3.89-19.15-14.17L151.63 143c-24.77-18.12-47.18-34.56-63.33-46.56-8.07-6-14.58-10.88-19.06-14.29-2.24-1.7-4-3-5.13-4a12.49 12.49 0 0 1-1.72-1.47 10.82 10.82 0 0 1 1.91 1.21c1.22.84 3 2.1 5.29 3.74 4.58 3.28 11.15 8.08 19.25 14 16.21 12.01 38.49 28.62 63.06 46.99z" style="fill:#ebebeb;transform-origin:151.775px 142.79px" id="el7g738vv2l8h" class="animable"/><path d="m156.49 137.4 54.92 56.26 16.73 17 4.58 4.58 1.2 1.18a3.52 3.52 0 0 0 .43.38 3.52 3.52 0 0 0-.38-.43l-1.16-1.22c-1-1.08-2.56-2.65-4.51-4.65l-16.71-17-55.43-55.77C134.5 116 114.93 96.25 100.84 81.89c-7-7.18-12.72-13-16.61-17.08-1.94-2-3.44-3.62-4.45-4.71a11.67 11.67 0 0 1-1.47-1.73 11.56 11.56 0 0 1 1.7 1.5c1.08 1 2.64 2.54 4.65 4.52 4 4 9.76 9.71 16.83 16.86 14.15 14.3 33.58 34.17 55 56.15z" style="fill:#ebebeb;transform-origin:156.33px 137.585px" id="eldkd8spkc75d" class="animable"/><path d="m161.82 133 45.51 64.12 13.88 19.37 3.81 5.23 1 1.35a2.56 2.56 0 0 0 .37.45 4.22 4.22 0 0 0-.31-.49l-1-1.39-3.73-5.29-13.87-19.37-46.08-63.71c-18-24.85-34.28-47.38-46-63.76-5.75-8.23-10.4-14.88-13.66-19.51-1.61-2.31-2.84-4.12-3.66-5.35a12.82 12.82 0 0 1-1.19-1.93 11.38 11.38 0 0 1 1.45 1.74c.9 1.18 2.21 2.93 3.89 5.19 3.34 4.53 8.12 11.11 14 19.28C128 85.26 144.08 107.91 161.82 133z" style="fill:#ebebeb;transform-origin:161.64px 133.12px" id="elin3kxedhkf" class="animable"/><path d="M167.79 129.39c13.63 27.51 26 52.4 34.92 70.45l10.68 21.29 3 5.77.79 1.49a3.59 3.59 0 0 0 .28.5 2.53 2.53 0 0 0-.22-.53l-.73-1.52-2.9-5.84c-2.53-5.05-6.18-12.32-10.68-21.31-9.1-18-21.67-42.74-35.56-70.12S140.93 77.45 132 59.44c-4.49-9-8.09-16.3-10.54-21.37-1.22-2.53-2.16-4.5-2.78-5.85a12.08 12.08 0 0 1-.87-2.09 11.17 11.17 0 0 1 1.16 1.94c.71 1.31 1.73 3.24 3 5.73 2.59 5 6.29 12.25 10.82 21.23 9.03 17.97 21.39 42.86 35 70.36z" style="fill:#ebebeb;transform-origin:167.635px 129.51px" id="el9nm6ugejhr" class="animable"/><path d="M174.24 126.81c9.14 29.31 17.4 55.84 23.4 75.06 3 9.58 5.49 17.33 7.2 22.72.87 2.66 1.54 4.73 2 6.16l.54 1.59a3.85 3.85 0 0 0 .2.54 2.28 2.28 0 0 0-.14-.56l-.47-1.61c-.44-1.44-1.09-3.52-1.91-6.2-1.7-5.38-4.16-13.13-7.19-22.71-6.17-19.17-14.68-45.62-24.08-74.85s-17.92-55.66-24-74.86c-3-9.59-5.42-17.37-7-22.76a397.7 397.7 0 0 1-1.83-6.21 12.11 12.11 0 0 1-.53-2.21 10.81 10.81 0 0 1 .84 2.11c.5 1.39 1.2 3.46 2.09 6.13 1.78 5.34 4.29 13.09 7.34 22.67 6.14 19.18 14.43 45.69 23.54 74.99z" style="fill:#ebebeb;transform-origin:174.005px 126.895px" id="el5b1sfwzpvou" class="animable"/><path d="M181 125.28c4.41 30.38 8.4 57.88 11.3 77.81 1.49 9.93 2.7 18 3.53 23.56.44 2.76.78 4.91 1 6.4.13.72.22 1.27.29 1.66a2.68 2.68 0 0 0 .12.56 4.92 4.92 0 0 0-.05-.57c-.05-.4-.13-.95-.22-1.67-.21-1.49-.52-3.64-.91-6.41-.83-5.59-2-13.63-3.52-23.57-3.08-19.9-7.32-47.36-12-77.7s-8.93-57.79-11.87-77.7c-1.47-9.95-2.62-18-3.37-23.58-.38-2.79-.66-5-.83-6.43a10.93 10.93 0 0 1-.17-2.26 12.88 12.88 0 0 1 .49 2.21c.27 1.46.64 3.61 1.1 6.39.91 5.55 2.17 13.59 3.68 23.54 3.05 19.89 7.06 47.39 11.43 77.76z" style="fill:#ebebeb;transform-origin:180.768px 125.325px" id="eljy8p9c1mhgn" class="animable"/><path d="M188 124.82c-.35 30.7-.67 58.49-.9 78.62-.07 10.05-.12 18.18-.16 23.83v8.16a2.17 2.17 0 0 0 0 .58 4.36 4.36 0 0 0 0-.58c0-.4 0-1 .05-1.68 0-1.5.05-3.68.09-6.48 0-5.65.1-13.78.17-23.82.05-20.14.12-47.93.2-78.63s.15-58.48.33-78.59c.09-10.06.2-18.2.32-23.83.06-2.81.12-5 .18-6.47a11.14 11.14 0 0 1 .18-2.26 12.84 12.84 0 0 1 .14 2.26c0 1.48.07 3.66.09 6.48v23.82c-.06 20.12-.36 47.91-.69 78.59z" style="fill:#ebebeb;transform-origin:187.805px 124.84px" id="el9wn2wce5g2" class="animable"/><path d="M194.88 125.45c-5.12 30.27-9.75 57.67-13.11 77.52-1.63 9.92-2.94 17.94-3.86 23.52-.43 2.76-.77 4.91-1 6.4-.1.71-.18 1.27-.24 1.66a4 4 0 0 0-.06.58 3.34 3.34 0 0 0 .13-.56c.07-.4.17-.95.31-1.66.25-1.48.62-3.63 1.1-6.39.91-5.57 2.24-13.59 3.87-23.51 3.18-19.88 7.56-47.32 12.4-77.64s9.23-57.74 12.58-77.59c1.66-9.92 3-17.94 4-23.48.5-2.77.9-4.92 1.19-6.37a11 11 0 0 1 .53-2.2 12.56 12.56 0 0 1-.21 2.25c-.19 1.47-.5 3.63-.91 6.42-.84 5.56-2.1 13.6-3.72 23.53-3.25 19.86-7.88 47.26-13 77.52z" style="fill:#ebebeb;transform-origin:194.665px 125.43px" id="el0kq6gjx9w69" class="animable"/><path d="M201.62 127.15c-9.82 29.09-18.71 55.41-25.16 74.49-3.16 9.54-5.73 17.25-7.51 22.61l-2 6.17c-.22.69-.38 1.22-.5 1.61a3.87 3.87 0 0 0-.15.55 3.73 3.73 0 0 0 .22-.53c.13-.38.32-.91.56-1.59.48-1.42 1.19-3.48 2.09-6.13 1.79-5.36 4.36-13.07 7.53-22.61 6.27-19.14 14.92-45.54 24.47-74.72s18.2-55.57 24.59-74.64c3.2-9.54 5.82-17.25 7.67-22.56.93-2.66 1.66-4.72 2.18-6.11a10.33 10.33 0 0 1 .87-2.09 11.94 11.94 0 0 1-.56 2.2c-.42 1.42-1.07 3.51-1.91 6.19-1.7 5.36-4.22 13.1-7.38 22.66-6.29 19.1-15.16 45.43-25.01 74.5z" style="fill:#ebebeb;transform-origin:201.39px 127.09px" id="elr1cc2bag72d" class="animable"/><path d="m208 129.89-36.55 69.61c-4.63 8.91-8.38 16.13-11 21.15l-2.94 5.77c-.33.65-.57 1.15-.75 1.51a3 3 0 0 0-.23.52 3 3 0 0 0 .29-.49l.81-1.48 3-5.73c2.6-5 6.36-12.22 11-21.14l35.93-69.93c14-27.31 26.72-52 36-69.85 4.66-8.91 8.46-16.11 11.13-21.07 1.33-2.48 2.38-4.39 3.1-5.69a12.06 12.06 0 0 1 1.19-1.93 11.22 11.22 0 0 1-.9 2.08c-.64 1.34-1.6 3.3-2.87 5.82-2.52 5-6.22 12.27-10.84 21.21-9.17 17.87-22.07 42.48-36.37 69.64z" style="fill:#ebebeb;transform-origin:207.755px 129.795px" id="el4eda9hpgmd6" class="animable"/><path d="m213.89 133.6-47 63c-6 8.09-10.79 14.63-14.15 19.18l-3.81 5.24-1 1.37a3.25 3.25 0 0 0-.31.48 3.51 3.51 0 0 0 .37-.44l1-1.33c.91-1.2 2.21-2.95 3.89-5.18l14.16-19.17 46.42-63.46C231.61 108.54 248 86.13 260 70c6-8.08 10.88-14.6 14.28-19.07 1.71-2.24 3-4 4-5.13a12.29 12.29 0 0 1 1.45-1.8 10.62 10.62 0 0 1-1.21 2c-.84 1.22-2.1 3-3.74 5.29-3.27 4.57-8.07 11.16-14 19.26-11.94 16.17-28.53 38.45-46.89 63.05z" style="fill:#ebebeb;transform-origin:213.675px 133.435px" id="eludcqskhsxh" class="animable"/><path d="m219.11 138.18-56.22 55-17 16.73-4.58 4.59-1.18 1.21a3.14 3.14 0 0 0-.38.42 3.87 3.87 0 0 0 .43-.37l1.23-1.16 4.64-4.52 17-16.72 55.73-55.47c21.73-21.67 41.44-41.26 55.8-55.35 7.17-7 13-12.73 17.07-16.62 2-1.95 3.62-3.45 4.71-4.45a11.2 11.2 0 0 1 1.73-1.47 13 13 0 0 1-1.5 1.7c-1 1.07-2.54 2.64-4.51 4.64-3.95 4-9.71 9.77-16.86 16.84-14.29 14.12-34.15 33.56-56.11 55z" style="fill:#ebebeb;transform-origin:218.92px 138.065px" id="eljgcgrnpuvgq" class="animable"/><path d="m223.56 143.51-64.09 45.55L140.12 203l-5.24 3.82-1.35 1a3.11 3.11 0 0 0-.44.36 3.59 3.59 0 0 0 .48-.3l1.39-1 5.29-3.73 19.37-13.89 63.67-46.12c24.84-18 47.36-34.31 63.73-46 8.19-5.85 14.83-10.55 19.45-13.76 2.31-1.61 4.11-2.85 5.34-3.67a11.66 11.66 0 0 1 1.93-1.18A11.18 11.18 0 0 1 312 80c-1.17.91-2.92 2.22-5.18 3.89-4.53 3.35-11.11 8.14-19.27 14-16.32 11.75-38.96 27.87-63.99 45.62z" style="fill:#ebebeb;transform-origin:223.415px 143.355px" id="elv9s4otqivb" class="animable"/><path d="m227.13 149.48-70.43 35-21.29 10.7-5.76 3-1.49.79a2.27 2.27 0 0 0-.5.29 4.1 4.1 0 0 0 .53-.23l1.52-.73 5.81-2.86 21.3-10.68 70.1-35.61c27.35-13.92 52.14-26.48 70.13-35.47 9-4.49 16.3-8.1 21.37-10.55 2.53-1.23 4.5-2.17 5.85-2.78a11.37 11.37 0 0 1 2.09-.87 12.79 12.79 0 0 1-1.95 1.15c-1.3.71-3.23 1.74-5.72 3-5 2.59-12.25 6.29-21.23 10.83-17.95 9.02-42.84 21.39-70.33 35.02z" style="fill:#ebebeb;transform-origin:227.01px 149.37px" id="el6043srcnerm" class="animable"/><path d="m229.71 155.93-75.05 23.44-22.66 7.22-6.16 2-1.6.54a3.25 3.25 0 0 0-.53.21 4.55 4.55 0 0 0 .55-.14l1.62-.48 6.19-1.91 22.71-7.2 74.83-24.14c29.2-9.44 55.65-17.95 74.84-24 9.6-3 17.37-5.44 22.76-7.06 2.69-.81 4.79-1.43 6.22-1.83a11.93 11.93 0 0 1 2.2-.53 12.22 12.22 0 0 1-2.11.84c-1.39.5-3.46 1.2-6.13 2.09-5.34 1.78-13.08 4.3-22.66 7.36-19.2 6.15-45.73 14.46-75.02 23.59z" style="fill:#ebebeb;transform-origin:229.67px 155.695px" id="elsv8zjn940i" class="animable"/><path d="m231.25 162.7-77.8 11.35-23.56 3.55-6.4 1-1.66.28a4.37 4.37 0 0 0-.57.12 3.11 3.11 0 0 0 .58-.05l1.67-.22 6.41-.91 23.56-3.54 77.7-12.06c30.32-4.73 57.78-9 77.69-11.91 9.94-1.48 18-2.64 23.58-3.4 2.79-.37 4.95-.65 6.43-.82a11.51 11.51 0 0 1 2.25-.18 10.92 10.92 0 0 1-2.21.5c-1.45.27-3.61.64-6.38 1.1-5.55.91-13.6 2.18-23.54 3.7-19.89 3.06-47.38 7.09-77.75 11.49z" style="fill:#ebebeb;transform-origin:231.195px 162.454px" id="elz9uhzswsq8c" class="animable"/><path d="M104.34 370.35c5.75-3 12.51-3.35 18.88-2.3 3.43.57 7 1.59 9.33 4.17s2.77 7.1.1 9.31c-1.59 1.31-3.82 1.51-5.88 1.49-5-.06-10.53-.94-14.52 2.06-2.27 1.72-3.79 4.57-6.51 5.41s-5.66-.75-7.07-3.15a11 11 0 0 1-.8-8.11 12.36 12.36 0 0 1 6.47-8.88z" style="fill:#ebebeb;transform-origin:115.959px 379.115px" id="elnno78krcam" class="animable"/><path d="M91.19 345c3.51 5 10.33 3.35 13.5.29s4.5-7.5 5.72-11.73c2.78-9.67 5.58-19.81 3.52-29.65a16.51 16.51 0 0 0-3.79-8.07 8.62 8.62 0 0 0-8.16-2.71c-3.44.91-5.58 4.28-7.12 7.49a70.64 70.64 0 0 0-7 30.33c0 4.89.56 10 3.32 14.05" style="fill:#ebebeb;transform-origin:101.25px 320.572px" id="elzrh7vmlq24f" class="animable"/><path d="M81.54 352.14c3.82-4.52 4.54-11.12 2.84-16.79s-5.53-10.49-9.94-14.43a53.46 53.46 0 0 0-17.82-10.51 18.89 18.89 0 0 0-8-1.36 8.4 8.4 0 0 0-6.72 4.07c-1.87 3.57-.08 7.91 1.87 11.45a135.29 135.29 0 0 0 11.7 17.81c3.5 4.52 7.52 9 12.86 11s10.9 1.81 13.73-1.9" style="fill:#ebebeb;transform-origin:63.1794px 331.836px" id="elipy8p5egeys" class="animable"/><path d="M91 420.6a11.46 11.46 0 0 0 .32-2.27c.16-1.66.36-3.75.6-6.22a89 89 0 0 1 1.4-9.13 70.44 70.44 0 0 1 3.32-10.76 39.78 39.78 0 0 1 5.5-9.75 20.46 20.46 0 0 1 7-5.78 19.42 19.42 0 0 1 5.85-1.82 10.56 10.56 0 0 0 2.27-.33 11.46 11.46 0 0 0-2.31 0 17.63 17.63 0 0 0-6.1 1.59 20.52 20.52 0 0 0-7.34 5.82 39.3 39.3 0 0 0-5.7 9.94 65.9 65.9 0 0 0-3.29 10.95 77.77 77.77 0 0 0-1.21 9.24c-.2 2.64-.27 4.78-.31 6.25a10.29 10.29 0 0 0 0 2.27z" style="fill:#e0e0e0;transform-origin:104.099px 397.541px" id="elc1yy6mhuem" class="animable"/><path d="M91.38 415.82a4.89 4.89 0 0 0 .06-1.06v-3c0-2.63 0-6.43.14-11.11.23-9.38 1-19.48 2.59-33.71 1.48-13.38 3.46-29 5.56-39.08.45-2.31.9-4.38 1.32-6.19s.75-3.39 1.09-4.66.52-2.17.71-2.94a4.41 4.41 0 0 0 .18-1 4.31 4.31 0 0 0-.37 1c-.23.76-.52 1.72-.87 2.9s-.79 2.81-1.25 4.62-1 3.88-1.46 6.18A341.8 341.8 0 0 0 93.23 364c-1.56 14.26-2.27 27.25-2.33 36.65-.06 4.7 0 8.51.16 11.14.08 1.22.14 2.22.19 3a3.83 3.83 0 0 0 .13 1.03z" style="fill:#e0e0e0;transform-origin:96.9536px 364.445px" id="eld0128ps4ogu" class="animable"/><path d="M91.44 390.77a20.09 20.09 0 0 0 0-3.16c-.12-2-.4-5-1-8.55a113.24 113.24 0 0 0-2.78-12.47 101.63 101.63 0 0 0-5.22-14.76A78.44 78.44 0 0 0 67.14 328a38 38 0 0 0-3.6-3.35c-.56-.47-1-.93-1.54-1.3l-1.4-1a20 20 0 0 0-2.66-1.7c-.15.21 3.77 2.51 8.72 7.78a82.67 82.67 0 0 1 14.93 23.76 116.33 116.33 0 0 1 5.24 14.61c1.37 4.59 2.28 8.8 3 12.35s1 6.46 1.25 8.47a20.88 20.88 0 0 0 .36 3.15z" style="fill:#e0e0e0;transform-origin:74.719px 355.71px" id="elksklj2brpyb" class="animable"/><path style="fill:#e0e0e0;transform-origin:91.825px 452.145px" id="eleiu4rzvape" class="animable" d="m67.23 434.95 2.51 34.39h44.17l2.51-34.39H67.23z"/><path style="fill:#e0e0e0;transform-origin:92.33px 428.175px" id="eljex7j7pf5or" class="animable" d="M62.97 421.4h58.72v13.55H62.97z"/><path style="fill:#ebebeb;transform-origin:91.845px 469.9px" id="elmvv1xbuxodl" class="animable" d="M62.97 468.02v3.76h57.75v-3.76H62.97z"/><path style="fill:#e0e0e0;transform-origin:92.175px 475.085px" id="elyworarlkdo" class="animable" d="m68.43 478.39-2.7-6.61h52.89l-3.16 6.61H68.43z"/><path d="M115.6 446.19a1.28 1.28 0 0 1-.21.32l-.65.87-2.58 3.29-.11.15-.11-.15-6.32-8.75h.38c-1.88 2.67-4 5.63-6.22 8.82l-.2.27-.22-.26L92 442h.43l-.41.51-6.6 8.27-.22.28-.2-.29-6.23-8.81h.36l-7.67 8.73-.13.16-.11-.18c-1-1.69-1.81-3.05-2.4-4l-.61-1.07a1.62 1.62 0 0 1-.19-.39 2.29 2.29 0 0 1 .26.34l.68 1 2.52 4h-.24l7.54-8.85.19-.22.18.24 6.28 8.77H85l6.58-8.29.41-.51.21-.26.21.26 7.36 8.8h-.41l6.29-8.76.18-.26.18.26 6.19 8.83h-.23l2.68-3.21.72-.83c.13-.25.22-.34.23-.33z" style="fill:#f5f5f5;transform-origin:91.81px 446.245px" id="elk0ihk7k3mwl" class="animable"/><path d="M117 434.73c0 .15-11.07.27-24.72.27s-24.72-.12-24.72-.27 11.07-.28 24.72-.28 24.72.13 24.72.28z" style="fill:#f5f5f5;transform-origin:92.28px 434.725px" id="elw2tpyeo25gb" class="animable"/><path d="M119.27 472.15c0 .15-12 .27-26.86.27s-26.87-.12-26.87-.27 12-.28 26.87-.28 26.86.13 26.86.28z" style="fill:#f5f5f5;transform-origin:92.405px 472.145px" id="elk32lpp90m1t" class="animable"/><path style="fill:#e0e0e0;transform-origin:407.78px 137.965px" id="el6oiu8f5me54" class="animable" d="M354.03 60.06h107.5v155.81h-107.5z"/><path style="fill:#f5f5f5;transform-origin:402.4px 137.965px" id="elnla9tv92au" class="animable" d="M348.65 60.06h107.5v155.81h-107.5z"/><path style="fill:#fff;transform-origin:402.395px 137.97px" id="el4jopsofbem5" class="animable" d="M362 76.94h80.79V199H362z"/><path d="M442.79 199V189.97c0-5.85 0-14.37-.07-25.14 0-21.52-.08-52-.13-87.89l.27.26h-80.78l.29-.29c0 46 0 88.5-.05 122.06l-.24-.24 58.8.13 16.25.06h5.74H437.22l-16.19.06-58.95.12h-.23v-.1c0-33.56 0-76-.06-122.06v-.3h81.35v.27c-.06 36-.1 66.5-.14 88.07 0 10.74-.05 19.24-.07 25.08v8.34c0 .39-.14.6-.14.6z" style="fill:#e0e0e0;transform-origin:402.465px 137.87px" id="elgawgl7mk6gl" class="animable"/><path d="M456.45 60.06a19.09 19.09 0 0 1-1.92 2.78c-1.25 1.67-3 4-5 6.4s-3.92 4.63-5.32 6.18a17.65 17.65 0 0 1-2.36 2.41 20.18 20.18 0 0 1 2.05-2.68l5.1-6.28 5.18-6.28a20 20 0 0 1 2.27-2.53z" style="fill:#e0e0e0;transform-origin:449.15px 68.945px" id="elitdpvz0dljq" class="animable"/><path d="M443.2 198.6a100.15 100.15 0 0 0 14.09 17.63" style="fill:#fff;transform-origin:450.245px 207.415px" id="elpaveavodg3" class="animable"/><path d="M457.29 216.23a16.73 16.73 0 0 1-2.46-2.24 79 79 0 0 1-5.31-6 76.33 76.33 0 0 1-4.68-6.51 16.63 16.63 0 0 1-1.64-2.89 23.26 23.26 0 0 1 2 2.66c1.19 1.66 2.85 3.94 4.8 6.37s3.79 4.56 5.15 6.08a21.37 21.37 0 0 1 2.14 2.53z" style="fill:#e0e0e0;transform-origin:450.245px 207.41px" id="el9qs8fw80tgr" class="animable"/><path d="m348.63 215.75 14.08-17.37" style="fill:#fff;transform-origin:355.67px 207.065px" id="elaohacq7j42j" class="animable"/><path d="M362.71 198.38a105.87 105.87 0 0 1-6.81 8.87 105.64 105.64 0 0 1-7.27 8.5 111.36 111.36 0 0 1 6.81-8.87 108.1 108.1 0 0 1 7.27-8.5z" style="fill:#e0e0e0;transform-origin:355.67px 207.065px" id="elpgzax8hodyc" class="animable"/><path d="M348.65 60.06a100.27 100.27 0 0 1 6.83 8.17 98.8 98.8 0 0 1 6.38 8.53 94.86 94.86 0 0 1-6.86-8.17 97.31 97.31 0 0 1-6.35-8.53z" style="fill:#e0e0e0;transform-origin:355.255px 68.41px" id="el2gup2cv9w8g" class="animable"/><path style="fill:#e0e0e0;transform-origin:404.095px 140.12px" id="ela97b9c0snj" class="animable" d="M390.57 101.72h27.05v76.8h-27.05z"/></g><g id="freepik--Character--inject-31" class="animable" style="transform-origin:324.525px 363.308px;animation:6s Infinite linear wind;animation-delay:0s"><path d="M317.12 269.6c-6.84-6.6-22.52-4.51-25.95.35a12 12 0 0 0-15.38 6.26L259.28 281c-2.82.81-5.76 1.7-7.83 3.77s-2.86 5.74-.9 7.92c-5.8 1.92-7.54 10.86-2.88 14.81a6.36 6.36 0 0 0 1.54 9.12 63.58 63.58 0 0 0-9.56 19.38c-.86 2.9-1.5 6.12-.26 8.88s5.09 4.47 7.42 2.54a7.47 7.47 0 0 0 .18 8.05c-2.83.25-3.38 4.69-1.3 6.62s5.26 1.94 8.09 1.69 5.89-.6 8.32.87a2.56 2.56 0 0 1-.8 1.85c-4.61 4.28-5.54 11.19-1.56 16l1 1.24c1.8 2.22 6 4.09 8.62 5.24 6.62 2.92 10.4 2 17.62 2.6-1.65 4.75 10.64 14.2 23.28 3.28 27 5.39 46.3 6.84 73.77 5.11 3.92-.25 8.6-1.09 10.11-4.72 3.23.64 6.56-1.06 8.76-3.52s3.47-5.57 4.71-8.63a17.09 17.09 0 0 0 11.28-16.19 21.16 21.16 0 0 0 7-15.53c6.46-2.45 9.54-11.25 6-17.19a74.88 74.88 0 0 0-9.67-22.59c4.43-1.27 5.72-7.44 3.6-11.53s-6.39-6.52-10.43-8.74c3.41.68 6.06-3.74 5-7.07s-4.22-5.46-7.31-7a63.21 63.21 0 0 0-14.34-5.3c-2-5.81-10-12.05-15.69-14.3-23-9.11-38.87-10.75-66 12" style="fill:#263238;transform-origin:336.038px 326.024px" id="eldurg3o6kvo" class="animable"/><path d="M382.61 351.82a8.12 8.12 0 0 1 3-2.4h-.25a4 4 0 0 1 .68-.17 3.2 3.2 0 0 1 2.54.08 6 6 0 0 1 3.51 2.54 7.06 7.06 0 0 1-.18 7.32 5.4 5.4 0 0 1-10-1 6.67 6.67 0 0 1 .7-6.37z" style="fill:#455a64;transform-origin:387.215px 355.574px" id="el00gw4abz9hxqc" class="animable"/><path d="M382.12 308.09c-2.79-15.27-15.22-32.93-30.35-29.49l-46.41 17.76a9.08 9.08 0 0 0-7 10.1l13.76 102.32a28.31 28.31 0 0 0 26.14 24.47 28.32 28.32 0 0 0 30.15-30.36c-.53-7.06-.91-12.37-.91-12.33s19.26-5.59 20.3-31.71c.53-12.98-2.58-33.85-5.68-50.76z" style="fill:#876760;transform-origin:343.067px 355.74px" id="el8ervudtpvy3" class="animable"/><path d="M374.45 329.68a3.31 3.31 0 0 1-2.78 3.69 3.16 3.16 0 0 1-3.74-2.56 3.31 3.31 0 0 1 2.77-3.69 3.17 3.17 0 0 1 3.75 2.56z" style="fill:#263238;transform-origin:371.19px 330.245px" id="elg6x3q6a0k9v" class="animable"/><path d="M378.87 319.5c-.36.47-3.07-1.08-6.6-.65s-5.92 2.51-6.36 2.12c-.21-.17.12-1 1.15-2a9.06 9.06 0 0 1 5-2.22 8.74 8.74 0 0 1 5.32 1c1.21.8 1.67 1.53 1.49 1.75z" style="fill:#263238;transform-origin:372.379px 318.848px" id="elanbl4540aru" class="animable"/><path d="M342.59 332.86a3.31 3.31 0 0 1-2.78 3.69 3.16 3.16 0 0 1-3.74-2.56 3.31 3.31 0 0 1 2.77-3.69 3.17 3.17 0 0 1 3.75 2.56z" style="fill:#263238;transform-origin:339.33px 333.425px" id="elnzvh9i5xjmi" class="animable"/><path d="M344.18 324.27c-.36.48-3.07-1.07-6.6-.64s-5.92 2.51-6.36 2.12c-.21-.17.11-1 1.15-1.95a9.14 9.14 0 0 1 5-2.23 8.82 8.82 0 0 1 5.32 1.05c1.2.71 1.67 1.44 1.49 1.65z" style="fill:#263238;transform-origin:337.688px 323.654px" id="eltcl1vmvujhg" class="animable"/><path d="M360.12 349c0-.2 2.12-.84 5.63-1.72.89-.2 1.72-.48 1.8-1.12a4.62 4.62 0 0 0-.92-2.6l-3.49-6.56c-4.86-9.36-8.5-17.09-8.13-17.28s4.64 7.23 9.51 16.58c1.17 2.31 2.3 4.51 3.37 6.62a5.22 5.22 0 0 1 .89 3.49 2.26 2.26 0 0 1-1.33 1.49 5.91 5.91 0 0 1-1.5.4c-3.57.61-5.79.89-5.83.7z" style="fill:#263238;transform-origin:361.896px 334.388px" id="elccqjx61vp89" class="animable"/><path d="M367.52 390.56a65.71 65.71 0 0 1-35.41-5.09s10.42 16.62 35.79 11.18z" style="fill:#664d49;transform-origin:350.005px 391.607px" id="elx7s7ztsn2e9" class="animable"/><path d="M360.6 357.46a8.75 8.75 0 0 0-7.62-2.95 5.71 5.71 0 0 0-4.36 3.08 5.53 5.53 0 0 0 .77 5.71 5.45 5.45 0 0 0 6 1.38 13 13 0 0 0 4.83-3.84 4 4 0 0 0 1-1.45 1.83 1.83 0 0 0-.35-1.78" style="fill:#664d49;transform-origin:354.734px 359.754px" id="el7acoe6odor5" class="animable"/><path d="M350 352.67c.57-.1 1 3.73 4.65 6.07s7.64 1.43 7.73 2c.09.24-.82.86-2.54 1.11a9.62 9.62 0 0 1-6.44-1.42 8.43 8.43 0 0 1-3.64-5.12c-.34-1.63-.02-2.63.24-2.64z" style="fill:#263238;transform-origin:355.999px 357.301px" id="elxtb17idjy6k" class="animable"/><path d="M344 309.53c-.24 1-3.82 1-7.91 2s-7.32 2.52-8 1.73c-.3-.39.18-1.36 1.42-2.45a14.19 14.19 0 0 1 12.1-2.81c1.65.39 2.5 1.05 2.39 1.53z" style="fill:#263238;transform-origin:336.006px 310.561px" id="elmje7be4rxhe" class="animable"/><path d="M376.18 307.47c-.52.88-3.06.33-6 .64s-5.35 1.18-6 .41c-.3-.38 0-1.23 1-2.12a8.76 8.76 0 0 1 9.68-.85c1.14.71 1.55 1.45 1.32 1.92z" style="fill:#263238;transform-origin:370.155px 306.653px" id="elgm9bx781rmi" class="animable"/><path d="M394.58 319.6a17.71 17.71 0 0 0-5.08-10.77c-1.63-1.5-3.63-2.59-5.1-4.25-3.18-3.59-3.15-8.9-4.72-13.43a19.51 19.51 0 0 0-13-12.19c-5-1.36-10.41-.73-15.11-2.8-3.48-1.53-6.25-4.43-9.81-5.75-6.94-2.58-14.47 1.44-20.53 5.68-.89 5.13 2.61 9.25 6 13.21a18.07 18.07 0 0 0 13.77 6.24c4-.06 8.66-1.31 11.7 1.35s2.43 8.2 5.12 11.47c3.86 4.69 11.66 2.23 17.11 4.9 4.21 2.06 6.26 6.76 8.6 10.82s6.17 8.19 10.82 7.63a52.79 52.79 0 0 0 .23-12.11z" style="fill:#263238;transform-origin:357.956px 300.679px" id="elab57fqeesjb" class="animable"/><path d="M331.94 284.52a91.47 91.47 0 0 0-34 8.74c-3.16 1.52-6.42 3.38-8.06 6.48-1.44 2.73-1.4 6-1.14 9.06.82 9.62 5.57 21.13 9.9 29.77l12.56 6.32c9.1-2.88 3.67-18.56 2.64-26.55a19 19 0 0 0 9.83-17.53 21 21 0 0 0 8.27-16.29z" style="fill:#263238;transform-origin:310.27px 314.705px" id="elpqbnjhassxq" class="animable"/><path d="M310.78 341.44c-.77-5.48-7.62-6.06-12.14-2.87-2.49 1.75-4.22 5-3.45 10.8 2 15.54 17.21 10.28 17.18 9.83-.02-.27-.69-11.34-1.59-17.76z" style="fill:#876760;transform-origin:303.688px 348.52px" id="elxu8kceqr8b" class="animable"/><path d="M306.85 353.94c-.07 0-.24.23-.67.5a2.74 2.74 0 0 1-2 .3c-1.72-.38-3.45-2.81-3.89-5.6a9.14 9.14 0 0 1 .25-4 3.15 3.15 0 0 1 1.76-2.35 1.4 1.4 0 0 1 1.7.54c.26.4.2.73.29.74s.3-.3.09-.93a1.73 1.73 0 0 0-.74-.89 2.07 2.07 0 0 0-1.55-.2 3.86 3.86 0 0 0-2.51 2.78 9.36 9.36 0 0 0-.37 4.45c.51 3.12 2.5 5.84 4.83 6.19a2.89 2.89 0 0 0 2.42-.73c.41-.42.45-.74.39-.8z" style="fill:#664d49;transform-origin:302.983px 348.744px" id="el7plh9bg94ry" class="animable"/><path d="M298.38 358.07a8.12 8.12 0 0 1 3-2.4h-.24a5.54 5.54 0 0 1 .67-.18 3.2 3.2 0 0 1 2.54.09 6 6 0 0 1 3.5 2.53 7.06 7.06 0 0 1-.18 7.32 5.39 5.39 0 0 1-10-1 6.71 6.71 0 0 1 .71-6.36z" style="fill:#455a64;transform-origin:302.981px 361.825px" id="el5zzyx0mz3mf" class="animable"/><path d="M305.6 360.63v.21a2 2 0 0 1-.17.61 3.59 3.59 0 0 1-1.68 1.75 9.62 9.62 0 0 1-3.8 1.09 12.41 12.41 0 0 1-2.52 0 9.38 9.38 0 0 1-2.79-.62l.18-.11a7.79 7.79 0 0 1-12 5.84l.27-.07a3.27 3.27 0 0 1-1.95 1.52 4.48 4.48 0 0 1-2.54 0 4.13 4.13 0 0 1-2.16-1.5 5.49 5.49 0 0 1-1-2.51 8 8 0 0 1 1.32-5.33 23.2 23.2 0 0 1 3.82-4.31l.05.36a5.51 5.51 0 0 1-2.75-3.51 8.07 8.07 0 0 1 .11-4.64 12.46 12.46 0 0 1 2.44-4.09 38.44 38.44 0 0 1 3.47-3.4v.36a5.85 5.85 0 0 1-1.87-4.42 8.4 8.4 0 0 1 1.42-4.76c1.82-2.71 4.63-4.34 7.22-5.87l-.11.28a10.39 10.39 0 0 1 10.31-13.62l-.22.28a9 9 0 0 1 1.55-7.74 8.86 8.86 0 0 1 6.35-3.73l-.18.21a8.84 8.84 0 0 1 3-7.06 8.6 8.6 0 0 1 6.39-2.28l-.16.17a8.45 8.45 0 0 1 1-4.1 11.13 11.13 0 0 1 2.15-3 9 9 0 0 1 5.17-2.69l.58-.08h.56a6.3 6.3 0 0 1 1 0 9.57 9.57 0 0 1 1.52.31l.9.31a1.44 1.44 0 0 1 .3.12l-.31-.08-.91-.27A10.34 10.34 0 0 0 328 284a7.72 7.72 0 0 0-1 0h-.55l-.57.09a8.9 8.9 0 0 0-5 2.7 10.83 10.83 0 0 0-2.08 3 8.25 8.25 0 0 0-.92 3.95v.18h-.17a8.31 8.31 0 0 0-6.13 2.23 8.45 8.45 0 0 0-2.89 6.77v.2h-.2a8.46 8.46 0 0 0-6 3.58 8.58 8.58 0 0 0-1.47 7.38l.09.29h-.31a9.94 9.94 0 0 0-9.84 13l.06.18-.17.1c-2.58 1.53-5.33 3.14-7.06 5.72a8 8 0 0 0-1.34 4.5 5.38 5.38 0 0 0 1.71 4.06l.2.18-.2.17c-2.4 2.14-4.81 4.38-5.78 7.29a7.54 7.54 0 0 0-.11 4.36 5 5 0 0 0 2.51 3.24l.28.15-.23.21a23.57 23.57 0 0 0-3.76 4.22 7.58 7.58 0 0 0-1.27 5 4.2 4.2 0 0 0 2.84 3.69 3.44 3.44 0 0 0 4.05-1.29l.1-.18.16.11a7.59 7.59 0 0 0 7.92.17 7.69 7.69 0 0 0 3.62-5.72v-.18l.16.07a9.09 9.09 0 0 0 2.71.63 13.72 13.72 0 0 0 2.48 0 9.46 9.46 0 0 0 3.75-1 3.66 3.66 0 0 0 1.69-1.66c.27-.47.29-.77.32-.76z" style="fill:#455a64;transform-origin:303.087px 327.442px" id="elojrik9wexu" class="animable"/><path d="M244.94 348.27a5.53 5.53 0 0 1-.66-.89 8.18 8.18 0 0 1-1.05-3 7.9 7.9 0 0 1 .92-5 8.34 8.34 0 0 1 5.39-4l-.12.2a10.72 10.72 0 0 1 .85-7.81 10.56 10.56 0 0 1 2.81-3.47 25.11 25.11 0 0 1 4.12-2.3 8.59 8.59 0 0 0 2-1.36 5.36 5.36 0 0 0 1.28-2c.59-1.54.68-3.33 1.44-5a9.51 9.51 0 0 1 9.16-5.41l-.25.28a12.53 12.53 0 0 1 12.81-15.18l-.24.28A11 11 0 0 1 299.67 282h-.25a15.06 15.06 0 0 1 5.21-3.72 22.45 22.45 0 0 1 5.51-1.7 26.31 26.31 0 0 1 9.29-.05 18.56 18.56 0 0 1 5.67 1.88 10.51 10.51 0 0 1 1.33.83c.3.2.44.31.44.31s-.62-.4-1.83-1a19 19 0 0 0-5.65-1.76 26 26 0 0 0-9.2.14 22.23 22.23 0 0 0-5.41 1.71 14.62 14.62 0 0 0-5 3.65l-.11.13-.14-.09a10.92 10.92 0 0 0-10.86.22 10.79 10.79 0 0 0-4.8 10.86l.05.29h-.3a12.08 12.08 0 0 0-12.33 14.61l.07.31h-.31a9 9 0 0 0-8.71 5.13c-.73 1.56-.83 3.34-1.44 5a5.68 5.68 0 0 1-1.4 2.17 8.9 8.9 0 0 1-2.05 1.43 24.67 24.67 0 0 0-4.07 2.26 10 10 0 0 0-2.73 3.33 10.41 10.41 0 0 0-.88 7.55l.05.16h-.17a8.05 8.05 0 0 0-5.24 3.82 7.76 7.76 0 0 0-1 4.85 8.41 8.41 0 0 0 1 3c.3.68.59.94.53.95z" style="fill:#455a64;transform-origin:285.008px 312.206px" id="el8v1yx18paus" class="animable"/><path d="M394.47 341.63a1.6 1.6 0 0 1-.15-1.28 3.07 3.07 0 0 1 .82-1.36 5.47 5.47 0 0 1 1.86-1.11 9.19 9.19 0 0 0 2.36-1.19 4.89 4.89 0 0 0 1.57-2.63 9.36 9.36 0 0 0 .13-3.6c-.15-1.29-.45-2.64-.55-4.1-.25-2.95.79-6.05 1.31-9.36a13.18 13.18 0 0 0-.16-5.15 6.29 6.29 0 0 0-3.15-4.18c-1.66-.86-3.64-1-5.61-1.46a9.25 9.25 0 0 1-2.89-1.09 6.25 6.25 0 0 1-2.15-2.33 30.44 30.44 0 0 1-2.09-6 10.27 10.27 0 0 0-1.3-2.88A4.77 4.77 0 0 0 382 292a17.44 17.44 0 0 0-4.36-.27 7.11 7.11 0 0 1-2.22-.39 4.28 4.28 0 0 1-1.83-1.33 15.39 15.39 0 0 1-1.93-3.87 9.67 9.67 0 0 0-2.21-3.38 9.44 9.44 0 0 0-7-2.75 9.69 9.69 0 0 0-6.45 2.88l-.2.2-.13-.24a14.9 14.9 0 0 0-9.85-7.33 13.69 13.69 0 0 0-5.25-.07 12.49 12.49 0 0 0-4.2 1.51 11 11 0 0 0-4.25 4.52 11.94 11.94 0 0 0-.67 1.52l-.15.4c0 .09-.06.13-.07.13a1.31 1.31 0 0 1 0-.14l.12-.41a9.79 9.79 0 0 1 .62-1.56 11 11 0 0 1 4.24-4.67 12.56 12.56 0 0 1 4.27-1.58 14.06 14.06 0 0 1 5.37 0 15.26 15.26 0 0 1 10.15 7.52h-.33a10.1 10.1 0 0 1 6.72-3 9.88 9.88 0 0 1 7.38 2.87 10.09 10.09 0 0 1 2.32 3.52 15.09 15.09 0 0 0 1.86 3.75 4.56 4.56 0 0 0 3.71 1.54 17.14 17.14 0 0 1 4.48.3 5.24 5.24 0 0 1 2.7 2 11 11 0 0 1 1.36 3 30.89 30.89 0 0 0 2 5.93 5.88 5.88 0 0 0 2 2.17 9.08 9.08 0 0 0 2.74 1c1.92.44 3.94.59 5.71 1.51a5.92 5.92 0 0 1 2.19 1.9 7.72 7.72 0 0 1 1.16 2.57 13.39 13.39 0 0 1 .15 5.3c-.55 3.37-1.59 6.42-1.37 9.29.1 1.43.38 2.78.52 4.08a9.66 9.66 0 0 1-.17 3.7 5.07 5.07 0 0 1-1.69 2.75 9.37 9.37 0 0 1-2.43 1.19 5.15 5.15 0 0 0-1.83 1 3 3 0 0 0-.83 1.28 2.06 2.06 0 0 0 .12 1.29z" style="fill:#455a64;transform-origin:366.787px 308.271px" id="el29rj7w7faiu" class="animable"/><path d="M423 315.25s-.07-.09-.18-.28l-.5-.84c-.43-.77-1.06-1.87-1.85-3.26s-1.74-3.19-3-5.11a13.84 13.84 0 0 0-5.63-5.22c-1.31-.59-2.8-.94-4.32-1.48a9.76 9.76 0 0 1-2.22-1.1 5.29 5.29 0 0 1-1.74-1.92c-.86-1.56-1-3.4-1.73-5a4.47 4.47 0 0 0-1.65-2 8.54 8.54 0 0 0-2.6-1 16.28 16.28 0 0 1-2.83-.85 5 5 0 0 1-2.3-2.06c-1.07-1.82-1.24-4-1.77-6a7.51 7.51 0 0 0-1.25-2.79 3.93 3.93 0 0 0-2.59-1.45c-2.08-.27-4.24.6-6.55.41a5.61 5.61 0 0 1-3.12-1.37 14.21 14.21 0 0 1-2.17-2.53 31.54 31.54 0 0 0-1.91-2.56 6.1 6.1 0 0 0-2.44-1.8c-1.92-.72-4-.1-5.89.48a13.93 13.93 0 0 1-5.89 1 16 16 0 0 1-5.33-2 26.15 26.15 0 0 0-4.77-2.22 16.19 16.19 0 0 0-9.28.38 17.16 17.16 0 0 0-6.6 4 19.21 19.21 0 0 0-3.46 4.76 22.7 22.7 0 0 0-1.38 3.47l-.29.93a1.72 1.72 0 0 1-.12.32 1.11 1.11 0 0 1 .07-.33c.06-.24.14-.55.25-.95a20.39 20.39 0 0 1 1.3-3.52 19 19 0 0 1 3.44-4.87 17.46 17.46 0 0 1 6.68-4.16 16.47 16.47 0 0 1 9.5-.44 26.81 26.81 0 0 1 4.86 2.23 15.67 15.67 0 0 0 5.18 1.9 13.34 13.34 0 0 0 5.7-.94 18.54 18.54 0 0 1 3-.75 6 6 0 0 1 5.82 2.19 28.77 28.77 0 0 1 1.94 2.6 14 14 0 0 0 2.07 2.46 5.08 5.08 0 0 0 2.85 1.26c2.15.19 4.3-.69 6.57-.41a4.38 4.38 0 0 1 2.89 1.63 7.89 7.89 0 0 1 1.33 3c.54 2 .71 4.15 1.71 5.84a4.63 4.63 0 0 0 2.09 1.88 16 16 0 0 0 2.76.84 8.75 8.75 0 0 1 2.72 1 4.92 4.92 0 0 1 1.81 2.21c.73 1.73.88 3.55 1.69 5a6.39 6.39 0 0 0 3.74 2.85c1.48.54 3 .9 4.33 1.52a14.08 14.08 0 0 1 5.71 5.38c1.27 1.95 2.17 3.74 3 5.17l1.78 3.3.45.87a1.78 1.78 0 0 1 .12.33z" style="fill:#455a64;transform-origin:375.32px 289.321px" id="el1rj7hvpn51n" class="animable"/><path d="m405.2 300.14.28-.07a1.8 1.8 0 0 1 .85.12 3.34 3.34 0 0 1 1.75 2.65 8.07 8.07 0 0 1-.16 2.36 9.68 9.68 0 0 0-.21 2.73 6.08 6.08 0 0 0 1.31 2.8c.68.9 1.51 1.77 2.22 2.84a4.47 4.47 0 0 1 .67 3.9c-.4 1.36-1.28 2.55-1.65 3.93a5.82 5.82 0 0 0 .73 4.26c.72 1.39 1.69 2.71 2.4 4.25a7 7 0 0 1 .68 2.49 6.23 6.23 0 0 1-.4 2.63 30.17 30.17 0 0 1-2.64 4.66 7.22 7.22 0 0 0-1.29 5.07c.33 1.78 1.47 3.36 2.27 5.12a8 8 0 0 1 .79 2.83 6.34 6.34 0 0 1-.53 2.86 23.53 23.53 0 0 1-3 4.66 12.59 12.59 0 0 0-2.4 4.61 38.24 38.24 0 0 1-1.27 5 5.64 5.64 0 0 1-1.44 2.09 7.12 7.12 0 0 1-2.13 1.22 21.41 21.41 0 0 0-2.1.93 7.88 7.88 0 0 0-1.72 1.36 16.12 16.12 0 0 0-2.31 3.53c-.63 1.21-1.21 2.4-1.89 3.48a10.7 10.7 0 0 1-5.14 4.4 11.62 11.62 0 0 1-5.06.86 10.23 10.23 0 0 1-3.18-.68 8.44 8.44 0 0 1-1-.5 11.6 11.6 0 0 0 4.21 1 11.39 11.39 0 0 0 5-.92 10.48 10.48 0 0 0 5-4.33c.65-1.06 1.22-2.24 1.84-3.47a16.63 16.63 0 0 1 2.35-3.63 8.26 8.26 0 0 1 1.81-1.44 18.64 18.64 0 0 1 2.14-1 6.94 6.94 0 0 0 2-1.16 5.27 5.27 0 0 0 1.32-1.94 40.19 40.19 0 0 0 1.23-4.92 13 13 0 0 1 2.47-4.78 24 24 0 0 0 3-4.56 6 6 0 0 0 .49-2.65 7.75 7.75 0 0 0-.75-2.66c-.78-1.71-1.94-3.31-2.3-5.24a6 6 0 0 1 .17-2.86 11.4 11.4 0 0 1 1.18-2.52 30.85 30.85 0 0 0 2.61-4.59 5.87 5.87 0 0 0 .39-2.44 6.85 6.85 0 0 0-.64-2.34c-.68-1.49-1.64-2.81-2.37-4.23a6.29 6.29 0 0 1-.75-4.56c.42-1.48 1.31-2.65 1.69-3.94a4.11 4.11 0 0 0-.61-3.61c-.66-1-1.49-1.92-2.17-2.84a6.19 6.19 0 0 1-1.33-3 10 10 0 0 1 .24-2.8 7.87 7.87 0 0 0 .21-2.29 3.29 3.29 0 0 0-1.61-2.59 2 2 0 0 0-1.25-.08z" style="fill:#455a64;transform-origin:396.856px 343.894px" id="elswdyq7f99yg" class="animable"/><path d="M245.29 347.74a6.44 6.44 0 0 1-1.24 0 8.6 8.6 0 0 1-3.39-1.17 8.38 8.38 0 0 1-3.63-4.36 8.78 8.78 0 0 1 .73-7.46 21.75 21.75 0 0 1 2.88-3.43 10.53 10.53 0 0 0 2.64-3.93 6.86 6.86 0 0 0-.61-4.94c-.72-1.63-1.75-3.19-2.46-5a15.34 15.34 0 0 1 10.08-20.34l-.12.37a7.63 7.63 0 0 1-1.6-3.31 9.75 9.75 0 0 1 0-3.73 11 11 0 0 1 1.31-3.54 12.57 12.57 0 0 1 2.45-2.94 24.2 24.2 0 0 1 10-4.91 36.88 36.88 0 0 1 10.46-1.24l-.23.24A11.11 11.11 0 0 1 278 268a11.31 11.31 0 0 1 5.41-1.46 18 18 0 0 1 5.22 1 10.38 10.38 0 0 0 2.44.37 6.29 6.29 0 0 0 2.33-.42 19.27 19.27 0 0 0 4-2.31 16.45 16.45 0 0 1 3.81-2.1 13.27 13.27 0 0 1 3.91-.82 13.14 13.14 0 0 1 6.61 1.28 13.69 13.69 0 0 1 4 3 13.34 13.34 0 0 1 1.84 2.57 7.37 7.37 0 0 1 .46 1s-.17-.33-.53-.94a13.61 13.61 0 0 0-5.91-5.42 13.39 13.39 0 0 0-10.31-.36 16.44 16.44 0 0 0-3.72 2.08 19.54 19.54 0 0 1-4 2.38 6.55 6.55 0 0 1-2.46.45 10.9 10.9 0 0 1-2.54-.37 18 18 0 0 0-5.12-.94 11 11 0 0 0-5.19 1.42 10.67 10.67 0 0 0-5.31 9.67v.25h-.25a36.19 36.19 0 0 0-10.32 1.23 23.78 23.78 0 0 0-9.76 4.81 12.26 12.26 0 0 0-2.36 2.83 10.35 10.35 0 0 0-1.25 3.3 9.16 9.16 0 0 0 0 3.54 7.22 7.22 0 0 0 1.5 3.11l.23.28-.35.1a14.93 14.93 0 0 0-9.82 19.74c.68 1.76 1.7 3.33 2.44 5a7.32 7.32 0 0 1 .6 5.21 10.78 10.78 0 0 1-2.75 4 21.89 21.89 0 0 0-2.86 3.37 8.55 8.55 0 0 0-.77 7.22 8.28 8.28 0 0 0 3.49 4.3 8.84 8.84 0 0 0 3.32 1.22c.84.14 1.26.12 1.26.15z" style="fill:#263238;transform-origin:277.274px 305px" id="elhfrjrpx1agp" class="animable"/><path d="M409.91 289a1.48 1.48 0 0 1-.07-.3q-.06-.33-.15-.87c-.13-.79-.32-1.91-.56-3.34s-.6-3.22-1.14-5.24a30.37 30.37 0 0 0-2.56-6.58 20.16 20.16 0 0 0-5.48-6.47 14.86 14.86 0 0 0-4.19-2.17 44.54 44.54 0 0 0-4.95-1 14.06 14.06 0 0 1-5.08-1.82 22.08 22.08 0 0 1-4.27-3.66c-1.32-1.37-2.59-2.83-4-4.12a16 16 0 0 0-4.94-3.11 28.29 28.29 0 0 0-11.52-1.6 72.09 72.09 0 0 0-10.78 1.28 55.58 55.58 0 0 0-17.28 6.22 39.58 39.58 0 0 0-9.67 7.75c-.48.55-.93 1-1.28 1.47s-.62.82-.86 1.14-.41.52-.54.7-.2.23-.2.23 0-.09.16-.26l.5-.72.83-1.18c.34-.45.78-.94 1.25-1.51a38.78 38.78 0 0 1 9.64-7.91 55.13 55.13 0 0 1 17.36-6.36 73 73 0 0 1 10.87-1.31 28.53 28.53 0 0 1 11.65 1.59 16.28 16.28 0 0 1 5.07 3.2c1.48 1.32 2.75 2.79 4.05 4.15a22.36 22.36 0 0 0 4.17 3.6 14 14 0 0 0 4.93 1.77 44.29 44.29 0 0 1 5 1.07 15.13 15.13 0 0 1 4.29 2.26 20.19 20.19 0 0 1 5.54 6.62 30.24 30.24 0 0 1 2.52 6.67c.53 2 .84 3.82 1.07 5.27s.38 2.6.48 3.37c0 .36.07.65.1.88s.04.29.04.29z" style="fill:#263238;transform-origin:365.15px 268.593px" id="elf3tfvuwsm3j" class="animable"/><path d="m415.37 478.06-2-50.45s-3.74-10.47-5-10.47l-39.24-13.4s-13.41 14.77-29.23 13.11-28.67-14.6-28.67-14.6l-43.68 10.43c-3.16.64-8.94 2.64-14.46 10.52-6.15 8.8-38.57 54.6-38.57 54.6" style="fill:#455a64;transform-origin:314.945px 440.155px" id="elwbtad9ytp7a" class="animable"/><path d="M407.57 416.85s16 5.1 22.16 14.36 25.26 47 25.26 47h-41.81l-14.25-47.84z" style="fill:#455a64;transform-origin:426.96px 447.53px" id="eljp7bnxnpdc" class="animable"/><path d="M414.5 477.9a11.41 11.41 0 0 1 0-1.67 30.5 30.5 0 0 0-.54-4.51 77 77 0 0 0-4.55-14.3c-2.2-5.45-4.53-10.24-6.21-13.71-.82-1.68-1.51-3.06-2-4.1l-.53-1.12a1.66 1.66 0 0 1-.16-.41 1.44 1.44 0 0 1 .24.37l.62 1.08c.53.94 1.27 2.31 2.15 4 1.76 3.43 4.14 8.21 6.36 13.68a70.19 70.19 0 0 1 4.43 14.42 25.87 25.87 0 0 1 .4 4.57c0 .54-.08 1-.1 1.24a1.78 1.78 0 0 1-.11.46z" style="fill:#263238;transform-origin:407.61px 457.99px" id="ely5fuffqjddq" class="animable"/><path d="M213.53 427.24c-.9-.72 3-15 3-15s-10.35-16-10.62-21.21 4.09-15.79 4.09-15.79l29.7-7.24s9.55 16.81 11.45 22.76-3.27 26.13-3.27 26.13l-5 10.35s-15.2 11.38-29.35 0z" style="fill:#876760;transform-origin:228.734px 400.149px" id="elqqksksrico" class="animable"/><path d="M206 394.11a59.4 59.4 0 0 1-3.13-6.26c-1.88-4.23-4.19-8.38 0-10.75a5.75 5.75 0 0 1 4.48-.67s-.64-3.56 1.6-4.9a5.06 5.06 0 0 1 4.4-.37s-.7-5 2.52-7.15a8.19 8.19 0 0 1 8.23-.23s-2.56-22-2.78-23.17c-.81-4.28.86-8.06 5.34-7 1.64.39 2.56 2 4.48 9.2s5 19.4 5 19.4 5.21 8.6 7.68 13.27 7.33 15.29 7.74 18.11c1.05 7.28-3.44 16.91-3.44 16.91l-31.58 1.74s-9.36-16.04-10.54-18.13z" style="fill:#876760;transform-origin:226.118px 372.835px" id="el6bxdfze8gbi" class="animable"/><path d="M207.94 377.38a23.88 23.88 0 0 1 2.45 3.24l2.49 3.6a14.09 14.09 0 0 1 1.36 2.26 4.38 4.38 0 0 1 .37 2.85 2.9 2.9 0 0 1-2 2.22 4.08 4.08 0 0 1-2.83-.33 12.1 12.1 0 0 1-2.11-1.24c-.62-.42-1.19-.82-1.7-1.21-1-.76-1.82-1.41-2.36-1.87a4.06 4.06 0 0 1-.78-.78c.07-.07 1.32.88 3.42 2.3a28.76 28.76 0 0 0 3.78 2.27 3.58 3.58 0 0 0 2.38.28 2.32 2.32 0 0 0 1.59-1.77 3.8 3.8 0 0 0-.33-2.48 14.73 14.73 0 0 0-1.27-2.19l-2.4-3.68a25.63 25.63 0 0 1-2.06-3.47z" style="fill:#664d49;transform-origin:208.766px 384.524px" id="elz1bmslw2i5" class="animable"/><path d="M233.84 380c-.17 0-.33-2.15.33-4.71s1.82-4.41 2-4.33-.71 2-1.33 4.48-.84 4.56-1 4.56z" style="fill:#664d49;transform-origin:234.942px 375.479px" id="elq9b99ysck0a" class="animable"/><path d="M246.35 386.42a21.29 21.29 0 0 0-10.56-5.23 41.8 41.8 0 0 0-12-.44c-3.21.28-6.88 1.07-8.34 3.8s.31 6.42 3.16 8 6.37 1.68 9.67 1.39 6.64-.87 9.92-.38" style="fill:#876760;transform-origin:230.638px 387.288px" id="elda7iu26bygn" class="animable"/><path d="M238.17 393.6s-.89-.08-2.49-.06-3.9.28-6.76.61a31.17 31.17 0 0 1-4.74.19 13.57 13.57 0 0 1-5.32-1.27 7.85 7.85 0 0 1-4-4.36 5.59 5.59 0 0 1-.23-3.12 5.31 5.31 0 0 1 1.74-2.78 11.71 11.71 0 0 1 6.07-2.23 54.82 54.82 0 0 1 6-.35 31.92 31.92 0 0 1 10 1.45 20.4 20.4 0 0 1 6 3.08 12.75 12.75 0 0 1 1.38 1.19 2.62 2.62 0 0 1 .42.47c0 .05-.66-.57-1.95-1.46a21.57 21.57 0 0 0-6-2.86 32.51 32.51 0 0 0-9.89-1.29 58.48 58.48 0 0 0-5.91.38 11.11 11.11 0 0 0-5.71 2.09 4.64 4.64 0 0 0-1.54 2.44 5.09 5.09 0 0 0 .19 2.79 7.37 7.37 0 0 0 3.62 4.05 13.19 13.19 0 0 0 5.07 1.26 30.68 30.68 0 0 0 4.66-.12 57.39 57.39 0 0 1 6.81-.41 17.92 17.92 0 0 1 1.86.16 2.55 2.55 0 0 1 .72.15z" style="fill:#664d49;transform-origin:230.374px 387.293px" id="elq064wcyys3g" class="animable"/><path d="M208.17 377.72a173 173 0 0 1 9.06 15.14 9.41 9.41 0 0 0 3.17 3.91c1.2.7 4.17-.57 5.5-1l-9.12-19.71" style="fill:#876760;transform-origin:217.035px 386.518px" id="el793vu2i3y5f" class="animable"/><path d="M216.78 376.06a9.83 9.83 0 0 1 .81 1.47l2 4.13c1.69 3.51 4 8.42 6.59 14l.14.31-.34.11a32.13 32.13 0 0 1-3.18 1 7.06 7.06 0 0 1-1.39.2 2.82 2.82 0 0 1-.75-.08 1.92 1.92 0 0 1-.69-.32 6.92 6.92 0 0 1-1.84-1.86c-.93-1.4-1.59-2.8-2.34-4.11-1.43-2.62-2.74-5-3.88-6.91s-2.1-3.52-2.76-4.59a12.54 12.54 0 0 1-1-1.7 10.44 10.44 0 0 1 1.22 1.57c.73 1 1.75 2.57 3 4.5s2.55 4.26 4 6.86c.76 1.29 1.45 2.72 2.35 4a6.14 6.14 0 0 0 1.67 1.7 2.88 2.88 0 0 0 2.29.1c1.08-.26 2.11-.66 3.13-1l-.19.42c-2.57-5.57-4.81-10.51-6.4-14.06l-1.83-4.21a8.21 8.21 0 0 1-.61-1.53z" style="fill:#664d49;transform-origin:217.235px 386.671px" id="el3ikgx8plu17" class="animable"/><path d="m214.32 370.21 8.79 20.94a14.28 14.28 0 0 0 2.37 4.2 5.21 5.21 0 0 0 4.43 1.83c2.29-.32 3.79-2.63 3.9-4.83s-.8-4.3-1.64-6.35a127.13 127.13 0 0 1-6.31-19.6" style="fill:#876760;transform-origin:224.07px 381.8px" id="elygj7wc5q6dh" class="animable"/><path d="M225.86 366.4a2.83 2.83 0 0 1 .22.64l.52 1.85c.46 1.61 1.12 3.93 2.05 6.77s2.13 6.18 3.64 9.84a19.78 19.78 0 0 1 1.84 6 6.18 6.18 0 0 1-.66 3.32 5 5 0 0 1-2.65 2.46 4.63 4.63 0 0 1-3.69-.28 6.89 6.89 0 0 1-2.6-2.32 37 37 0 0 1-2.66-5.69l-4-9.74c-1.1-2.72-2-4.95-2.65-6.58l-.69-1.81a2.69 2.69 0 0 1-.2-.64 2.75 2.75 0 0 1 .32.6l.81 1.76 2.84 6.51 4.15 9.68a36.59 36.59 0 0 0 2.64 5.57 6.12 6.12 0 0 0 2.35 2.1 4 4 0 0 0 3.15.26 4.43 4.43 0 0 0 2.3-2.15 5.59 5.59 0 0 0 .6-3 19.2 19.2 0 0 0-1.76-5.81c-1.49-3.68-2.65-7.06-3.52-9.93s-1.47-5.21-1.85-6.83c-.18-.82-.32-1.45-.4-1.88a2.79 2.79 0 0 1-.1-.7z" style="fill:#664d49;transform-origin:224.24px 381.969px" id="el88oiu245mce" class="animable"/><path d="M215 419.31s-20.15 56.36-20.94 59.12h39.6l14.52-62.9z" style="fill:#876760;transform-origin:221.12px 446.98px" id="elo72k5an87br" class="animable"/><path d="M234.64 410.55a4 4 0 0 1-1.9-.24 10.63 10.63 0 0 1-4-2.19 10 10 0 0 1-2.65-3.6 3.49 3.49 0 0 1-.41-1.77c.19-.07.89 2.68 3.5 4.91s5.52 2.7 5.46 2.89z" style="fill:#664d49;transform-origin:230.159px 406.663px" id="elv3wtv6njlna" class="animable"/><path d="M279.56 453c.13.07-2.74 5.7-6.41 12.57s-6.73 12.39-6.86 12.32 2.74-5.69 6.41-12.57 6.73-12.32 6.86-12.32z" style="fill:#263238;transform-origin:272.925px 465.445px" id="elv450h2cnsfe" class="animable"/></g><g id="freepik--Table--inject-31" class="animable" style="transform-origin:250px 478.06px"><path d="M465.07 478.06c0 .15-96.3.26-215.06.26s-215.08-.11-215.08-.26 96.28-.26 215.08-.26 215.06.12 215.06.26z" style="fill:#263238;transform-origin:250px 478.06px" id="eldgo9jbgc16r" class="animable"/></g><g id="freepik--light-bulb--inject-31" class="animable animator-active" style="transform-origin:187.844px 187.165px;animation:6s Infinite linear heartbeat;animation-delay:2s"><path d="M257 163.11a70 70 0 1 0-108.34 47.17c-1.28 8.19-2.72 17.44-2.72 17.44l60.59 9.45s1.89-9.73 3.39-18.45A70 70 0 0 0 257 163.11z" style="fill:#ff725e;transform-origin:187.844px 159.722px" id="elezwms0goxg" class="animable"/><path d="M197.42 235.74v-.87c0-.57.06-1.45.11-2.56.1-2.25.29-5.57.59-9.84.61-8.53 1.69-20.88 3.91-36q.81-5.69 1.87-11.87.54-3.08 1.11-6.29a21.82 21.82 0 0 1 1.83-6.41 7.38 7.38 0 0 1 2.26-2.62 4.54 4.54 0 0 1 3.43-.85 4.21 4.21 0 0 1 2.79 2.25 6.58 6.58 0 0 1 .74 3.57 8.14 8.14 0 0 1-4 6 12.24 12.24 0 0 1-7.29 1.81 13.28 13.28 0 0 1-7.22-2.67A14 14 0 0 1 193 163a16.76 16.76 0 0 1-.88-8 12.19 12.19 0 0 1 1.17-4 5.8 5.8 0 0 1 3-3 3.77 3.77 0 0 1 2.18-.1 4.74 4.74 0 0 1 1.91 1 6.75 6.75 0 0 1 2.11 3.71 14.52 14.52 0 0 1 .21 4.26 40.7 40.7 0 0 1-.57 4.24 28.79 28.79 0 0 1-2.71 8.19 15.86 15.86 0 0 1-5.85 6.47 12.78 12.78 0 0 1-4.13 1.61 9.81 9.81 0 0 1-4.41-.16 9.24 9.24 0 0 1-3.78-2.23 12 12 0 0 1-2.47-3.57 26.37 26.37 0 0 1-2.05-8.26c-.16-1.4-.25-2.79-.3-4.18a25.52 25.52 0 0 1 .07-4.19 6.92 6.92 0 0 1 1.65-3.85 4.52 4.52 0 0 1 1.77-1.21 3 3 0 0 1 2.15 0 3.67 3.67 0 0 1 1.64 1.37 7.16 7.16 0 0 1 .88 1.88 13.73 13.73 0 0 1 .58 4c.12 5.31-1.17 10.69-4.31 14.79a15 15 0 0 1-5.94 4.61 11.2 11.2 0 0 1-7.27.65 9.74 9.74 0 0 1-5.63-4.28 11 11 0 0 1-1.8-6.64 9.2 9.2 0 0 1 .81-3.31 5.07 5.07 0 0 1 2.28-2.47 2.6 2.6 0 0 1 3.14.75 6.14 6.14 0 0 1 1.15 3 25.17 25.17 0 0 1-.24 6.16q-.31 3-.61 5.84c-1.6 15.21-3.13 27.5-4.33 36-.6 4.24-1.13 7.52-1.5 9.74-.19 1.1-.34 1.94-.44 2.53s-.17.85-.17.85 0-.29.11-.86.23-1.43.4-2.53c.34-2.23.83-5.51 1.4-9.75 1.15-8.48 2.62-20.77 4.18-36q.28-2.85.59-5.84a25 25 0 0 0 .22-6.06 5.68 5.68 0 0 0-1.07-2.82 2.2 2.2 0 0 0-2.67-.64 4.71 4.71 0 0 0-2.07 2.28 8.67 8.67 0 0 0-.76 3.15 10.62 10.62 0 0 0 1.74 6.38 9.23 9.23 0 0 0 5.38 4.09 10.8 10.8 0 0 0 7-.64 14.41 14.41 0 0 0 5.75-4.48c3-4 4.32-9.26 4.19-14.48a13.22 13.22 0 0 0-.55-3.87 4.41 4.41 0 0 0-2.24-2.94 3 3 0 0 0-3.37 1 6.36 6.36 0 0 0-1.52 3.59 23.3 23.3 0 0 0-.07 4.1c0 1.38.14 2.77.29 4.15a25.72 25.72 0 0 0 2 8.09 11.12 11.12 0 0 0 2.36 3.43 8.7 8.7 0 0 0 3.57 2.1 10.45 10.45 0 0 0 8.14-1.39 15.45 15.45 0 0 0 5.66-6.28 28.39 28.39 0 0 0 2.67-8c.46-2.77.93-5.62.36-8.3a6.22 6.22 0 0 0-1.94-3.44 3.57 3.57 0 0 0-3.6-.84 5.29 5.29 0 0 0-2.7 2.71 11.79 11.79 0 0 0-1.12 3.81 16.27 16.27 0 0 0 .85 7.78 13.45 13.45 0 0 0 4.44 6.18 12.79 12.79 0 0 0 7 2.59 12 12 0 0 0 7-1.73 7.75 7.75 0 0 0 3.79-5.69 6.22 6.22 0 0 0-.68-3.32 3.83 3.83 0 0 0-2.49-2 4.09 4.09 0 0 0-3.1.78 6.88 6.88 0 0 0-2.14 2.47 21.39 21.39 0 0 0-1.8 6.28c-.39 2.14-.76 4.23-1.13 6.29a500.6 500.6 0 0 0-1.9 11.85c-2.26 15.12-3.39 27.46-4.07 36-.33 4.27-.54 7.58-.68 9.83-.07 1.12-.12 2-.16 2.56s-.15.95-.15.95z" style="fill:#fff;transform-origin:188.142px 191.762px" id="el0lelxeilb4v" class="animable"/><g id="freepik--2ggvdetif--inject-31" class="animable" style="transform-origin:168.27px 287.558px"><path d="M153.31 283.06a21.23 21.23 0 0 1 3.79 4.58 4.57 4.57 0 0 0 3.3 2.26l13.54 2.1a4.62 4.62 0 0 0 4.1-1.42c1.22-1.32 3.27-2.78 5.19-2.88z" style="fill:#263238;transform-origin:168.27px 287.558px" id="elti6ysd322s9" class="animable"/></g><path d="M144.51 243.1c0 .27-.19 21.9-.24 30.17a10.09 10.09 0 0 0 4.41 8.53 9.23 9.23 0 0 0 3.72 1.44l29.6 4.59s7.73 1.2 10.44-4.66c2.85-6.18 10.28-31 10.28-31z" style="fill:#e0e0e0;transform-origin:173.494px 265.516px" id="eluox93zbd18" class="animable"/><path d="M169.13 247.59h.16a1.49 1.49 0 0 1 1.49 1.49v52.19a1.48 1.48 0 0 1-1.48 1.48h-.16a1.48 1.48 0 0 1-1.48-1.48v-52.2a1.49 1.49 0 0 1 1.49-1.49z" style="fill:#e0e0e0;transform-origin:169.22px 275.165px;transform:rotate(-81.38deg)" class="animable" id="elcox4r9ix6bb"/><path d="M194.77 280.63a1.74 1.74 0 0 0 1.07-.31 1.51 1.51 0 0 0 .58-1.18 1.42 1.42 0 0 0-.88-1.43c-2.8-.47-7-1-12.07-1.78l-39.87-6a1.24 1.24 0 0 0-1.1.4 1.29 1.29 0 0 0-.28.53 2 2 0 0 0-.05.63 1.25 1.25 0 0 0 .69.93 7.59 7.59 0 0 0 1.34.26l5.6.85 10.58 1.62 17.91 2.85 12.07 1.91 3.28.54.85.16.28.07h-.29l-.86-.11-3.29-.45-12.09-1.75-17.93-2.66-10.59-1.59-5.6-.84-.71-.11a2.7 2.7 0 0 1-.77-.19 1.77 1.77 0 0 1-1-1.32 2.21 2.21 0 0 1 .06-.82 1.73 1.73 0 0 1 2-1.31l39.85 6.11c5.1.82 9.21 1.41 12.08 2a1.58 1.58 0 0 1 1 1.63 1.62 1.62 0 0 1-.67 1.24 1.35 1.35 0 0 1-1.19.12z" style="fill:#263238;transform-origin:169.132px 275.108px" id="eleyi2q6320al" class="animable"/><path d="M170.16 239.82h.16a1.48 1.48 0 0 1 1.48 1.48v54.4a1.49 1.49 0 0 1-1.49 1.49h-.16a1.48 1.48 0 0 1-1.48-1.48v-54.4a1.49 1.49 0 0 1 1.49-1.49z" style="fill:#e0e0e0;transform-origin:170.235px 268.505px;transform:rotate(-81.38deg)" class="animable" id="eluu3tnob1ncc"/><path d="M196.9 274.14a1.68 1.68 0 0 0 1.1-.34 1.54 1.54 0 0 0 .55-1.24 1.4 1.4 0 0 0-1-1.39L185 269.34l-41.42-6.2a1.22 1.22 0 0 0-1.13.43 1.2 1.2 0 0 0-.26.56 1.49 1.49 0 0 0 0 .66 1.24 1.24 0 0 0 .8.89c.4.1 1 .16 1.43.24l5.82.88 11 1.68 18.61 2.88 12.53 2 3.41.56.88.16a1.1 1.1 0 0 1 .3.08 2.33 2.33 0 0 1-.31 0l-.89-.1-3.42-.47-12.56-1.83L161.1 269l-11-1.66-5.81-.87c-.51-.09-.95-.12-1.52-.26a1.73 1.73 0 0 1-1.13-1.26 2.07 2.07 0 0 1 0-.86 1.65 1.65 0 0 1 .37-.79 1.72 1.72 0 0 1 1.6-.61L185 269c5.3.83 9.57 1.49 12.55 2a1.57 1.57 0 0 1 1.14 1.58 1.67 1.67 0 0 1-.64 1.32 1.33 1.33 0 0 1-1.15.24z" style="fill:#263238;transform-origin:170.143px 268.425px" id="elv8r9krebne8" class="animable"/><path d="M171.19 232.46h.16a1.49 1.49 0 0 1 1.49 1.49v55.81a1.48 1.48 0 0 1-1.48 1.48h-.16a1.48 1.48 0 0 1-1.48-1.48v-55.81a1.48 1.48 0 0 1 1.47-1.49z" style="fill:#e0e0e0;transform-origin:171.28px 261.85px;transform:rotate(-81.38deg)" class="animable" id="el40wrn0zs95v"/><path d="M198.63 267.58a1.64 1.64 0 0 0 1.12-.35 1.58 1.58 0 0 0 .53-1.28 1.4 1.4 0 0 0-1.14-1.36l-12.86-1.86-42.4-6.36a1.24 1.24 0 0 0-1.15.46 1.26 1.26 0 0 0-.26.59 1.46 1.46 0 0 0 0 .66 1.22 1.22 0 0 0 .87.86c.45.09 1 .16 1.49.24l5.95.9 11.26 1.72 19 2.94 12.83 2 3.49.58.9.16.31.07h-.31l-.92-.11-3.5-.48L181 265.1l-19-2.84-11.26-1.69-5.95-.89c-.52-.09-1-.14-1.55-.25a1.73 1.73 0 0 1-1.22-1.21 2 2 0 0 1 0-.88 1.78 1.78 0 0 1 .36-.82 1.75 1.75 0 0 1 1.63-.65l42.38 6.5 12.84 2a1.56 1.56 0 0 1 1.25 1.54 1.7 1.7 0 0 1-.61 1.37 1.34 1.34 0 0 1-1.24.3z" style="fill:#263238;transform-origin:171.226px 261.738px" id="elfrqf0fqnj67" class="animable"/><path d="M172.22 224.67h.16a1.48 1.48 0 0 1 1.48 1.48v58.08a1.48 1.48 0 0 1-1.48 1.48h-.16a1.49 1.49 0 0 1-1.49-1.49v-58.06a1.48 1.48 0 0 1 1.48-1.48z" style="fill:#e0e0e0;transform-origin:172.295px 255.19px;transform:rotate(-81.38deg)" class="animable" id="el2e47ksutvy"/><path d="M200.78 261.09a1.52 1.52 0 0 0 1.65-1.73 1.4 1.4 0 0 0-1.31-1.28l-13.34-1.94-44-6.59a1.23 1.23 0 0 0-1.18.49 1.56 1.56 0 0 0-.19 1.31 1.29 1.29 0 0 0 1 .8l1.57.23 6.18.94 11.67 1.79 19.76 3.05 13.32 2.1 3.62.59.93.17.32.07a1 1 0 0 1-.32 0l-1-.12-3.63-.5-13.34-1.94-19.78-2.94-11.67-1.76-6.18-.93-1.58-.24a1.75 1.75 0 0 1-1.38-1.12 1.81 1.81 0 0 1-.08-.92 1.9 1.9 0 0 1 .33-.86 1.77 1.77 0 0 1 1.67-.69l44 6.73 13.32 2.1a1.58 1.58 0 0 1 1.43 1.47 1.73 1.73 0 0 1-.57 1.44 1.43 1.43 0 0 1-.9.34.78.78 0 0 1-.32-.06z" style="fill:#263238;transform-origin:172.185px 255.101px" id="elafjxshl7up" class="animable"/><path d="M140.14 216.51c-.09.55-.88 13.68-1.28 20.43a8.09 8.09 0 0 0 2.7 6.53l2.72 2.42 57.24 8.88 3.28-1.46a8.14 8.14 0 0 0 4.57-5.49l4.81-19.82z" style="fill:#ff725e;transform-origin:176.513px 235.64px" id="el6nhy67yxidm" class="animable"/><g style="opacity:.3;transform-origin:169.065px 276.87px" class="animable" id="eliq140wrykx"><path d="M145.11 273c5.32 2.11 10.8 3.06 16.85 4 4.89.73 9.66 1.61 15 2.32 3.9.53 7.5.88 11.4 1.32 2 .22 4.2.05 4.66-.28z" id="el81zn4vepydv" class="animable" style="transform-origin:169.065px 276.87px"/></g><g style="opacity:.3;transform-origin:169.92px 270.134px" class="animable" id="el4h3bl9v4hry"><path d="M144.1 266c5.75 2.17 11.66 3.2 18.19 4.18 5.27.8 10.42 1.73 16.15 2.51 4.2.57 8.09 1 12.3 1.45 2.12.25 4.52.11 5-.22z" id="el9k42h8rm9g8" class="animable" style="transform-origin:169.92px 270.134px"/></g><g style="opacity:.3;transform-origin:170.945px 263.494px" class="animable" id="el43qgzznt05u"><path d="M145.13 259.36c5.75 2.17 11.66 3.2 18.19 4.18 5.27.8 10.41 1.73 16.15 2.51 4.2.57 8.09 1 12.29 1.45 2.13.25 4.52.11 5-.22z" id="el7ixci5vosqf" class="animable" style="transform-origin:170.945px 263.494px"/></g><g style="opacity:.3;transform-origin:171.97px 256.884px" class="animable" id="el87t97nb7ork"><path d="M146.15 252.75c5.75 2.17 11.66 3.2 18.19 4.18 5.27.8 10.42 1.73 16.15 2.51 4.21.57 8.09 1 12.3 1.45 2.12.25 4.52.11 5-.22z" id="elh683da4so9n" class="animable" style="transform-origin:171.97px 256.884px"/></g><path d="M155.93 209.12a6.06 6.06 0 0 1-.77-.4c-.48-.28-1.23-.66-2.13-1.24a61.1 61.1 0 0 1-7.36-5.33 64.15 64.15 0 0 1-9.38-9.68 64.18 64.18 0 0 1-13.14-30 65.45 65.45 0 0 1-.75-13.47 61.25 61.25 0 0 1 1.07-9c.18-1 .41-1.86.54-2.41a7.49 7.49 0 0 1 .22-.83 4 4 0 0 1-.13.85c-.08.56-.28 1.37-.44 2.43a68.81 68.81 0 0 0-.9 9 66.7 66.7 0 0 0 5.49 29.08 67 67 0 0 0 17.65 23.75 69.15 69.15 0 0 0 7.23 5.44c.89.6 1.61 1 2.08 1.32a4.91 4.91 0 0 1 .72.49z" style="fill:#263238;transform-origin:139.128px 172.94px" id="eljyz9iibp96l" class="animable"/><path d="M129.22 124.05a13.09 13.09 0 0 1-1.16 3.43 13.18 13.18 0 0 1-1.63 3.25 13 13 0 0 1 1.16-3.44 13.84 13.84 0 0 1 1.63-3.24z" style="fill:#263238;transform-origin:127.825px 127.39px" id="elobrd6y3fc9" class="animable"/><path d="M246.81 178a3.42 3.42 0 0 1 .22-.71c.18-.51.43-1.17.73-2l.55-1.44c.18-.53.33-1.12.52-1.75.36-1.26.86-2.67 1.17-4.29.17-.81.36-1.65.56-2.53s.28-1.81.44-2.77c.34-1.91.45-4 .63-6.15a67.54 67.54 0 0 0-4.43-27.8c-.85-2-1.59-3.94-2.52-5.65-.44-.86-.82-1.72-1.27-2.49l-1.32-2.23c-.8-1.45-1.71-2.63-2.44-3.72-.38-.54-.71-1-1.05-1.5l-1-1.2c-.55-.69-1-1.25-1.32-1.67a4.93 4.93 0 0 1-.43-.6 3.39 3.39 0 0 1 .51.53l1.4 1.62c.3.35.63.75 1 1.17s.69 1 1.08 1.48a43.6 43.6 0 0 1 2.51 3.7c.44.71.89 1.45 1.36 2.23s.85 1.63 1.31 2.49c.94 1.71 1.71 3.66 2.57 5.68a66 66 0 0 1 4.46 28 62 62 0 0 1-.68 6.19c-.17 1-.27 1.9-.47 2.79l-.6 2.53a41.58 41.58 0 0 1-1.24 4.3c-.2.62-.37 1.21-.57 1.74l-.58 1.43c-.34.82-.62 1.47-.83 2a6.52 6.52 0 0 1-.27.62z" style="fill:#263238;transform-origin:244.006px 143.75px" id="elq33smzjjix" class="animable"/><g style="opacity:.2;transform-origin:162.325px 122.529px" class="animable" id="ela4zf6hqczsp"><path d="M192.88 102.25c-.75-3.09-3.63-5.71-7.27-7.44a22 22 0 0 0-16.61-.72c-16 5.52-25.9 13.65-33.69 29.59-2.64 5.39-5 14.63-3.05 20.62a11.35 11.35 0 0 0 5.86 7c7.45 3.48 14.83-3.14 18.38-10 3.3-6.4 5.3-13.9 10.92-18.42 4.63-3.71 10.83-4.65 16.25-7.06s10.6-7.82 9.21-13.57z" style="fill:#fff;transform-origin:162.325px 122.529px" id="elxd0ylhz7j79" class="animable"/></g><g style="opacity:.2;transform-origin:211.258px 107.359px" class="animable" id="elznw8dit396l"><path d="M221 103.87c-1.86-4.82-8-7.65-12-6.54a11.41 11.41 0 0 0-7.3 6.77 10.44 10.44 0 0 0 2.92 11.3 9.88 9.88 0 0 0 11.56.68c3.48-2.33 6.33-8.34 4.82-12.21z" style="fill:#fff;transform-origin:211.258px 107.359px" id="elbocv3n1y7wq" class="animable"/></g><path d="M140.14 216.51c-.09.55-.88 13.68-1.28 20.43a8.09 8.09 0 0 0 2.7 6.53l2.72 2.42 57.24 8.88 3.28-1.46a8.14 8.14 0 0 0 4.57-5.49l4.81-19.82z" style="opacity:.3;transform-origin:176.513px 235.64px" class="animable" id="eldon3gxufyqp"/><path d="M214.62 228.06c0 .14-16.64-2.32-37.11-5.5s-37.06-5.86-37-6 16.64 2.32 37.12 5.5 37.01 5.86 36.99 6z" style="fill:#263238;transform-origin:177.565px 222.31px" id="elkktqm0m0zoa" class="animable"/><path d="M207.54 250.36c0 .14-15.35-2.13-34.23-5.06s-34.18-5.41-34.16-5.55 15.34 2.12 34.23 5.05 34.18 5.42 34.16 5.56z" style="fill:#263238;transform-origin:173.345px 245.055px" id="el69c5cuhz1j8" class="animable"/></g><defs><filter id="active" height="200%"><feMorphology in="SourceAlpha" result="DILATED" operator="dilate" radius="2"/><feFlood flood-color="#32DFEC" flood-opacity="1" result="PINK"/><feComposite in="PINK" in2="DILATED" operator="in" result="OUTLINE"/><feMerge><feMergeNode in="OUTLINE"/><feMergeNode in="SourceGraphic"/></feMerge></filter><filter id="hover" height="200%"><feMorphology in="SourceAlpha" result="DILATED" operator="dilate" radius="2"/><feFlood flood-color="red" flood-opacity=".5" result="PINK"/><feComposite in="PINK" in2="DILATED" operator="in" result="OUTLINE"/><feMerge><feMergeNode in="OUTLINE"/><feMergeNode in="SourceGraphic"/></feMerge><feColorMatrix values="0 0 0 0 0 0 1 0 0 0 0 0 0 0 0 0 0 0 1 0"/></filter></defs></svg>