<svg class="animated" id="freepik_stories-top-secret" xmlns="http://www.w3.org/2000/svg" viewBox="0 0 500 500" version="1.1"><style>@keyframes wind{0%{transform:rotate(0deg)}25%{transform:rotate(1deg)}75%{transform:rotate(-1deg)}}@keyframes heartbeat{0%,30%,40%,60%,to{transform:scale(1)}10%,50%{transform:scale(1.1)}}@keyframes fadeIn{0%{opacity:0}to{opacity:1}}svg#freepik_stories-top-secret:not(.animated) .animable{opacity:0}</style><g id="freepik--background-complete--inject-66" class="animable" style="transform-origin:249.525px 254.071px;animation:6s Infinite linear wind;animation-delay:1.5s"><path style="fill:#fafafa;transform-origin:391.79px 267.565px;transform:rotate(-76.48deg)" class="animable" d="M353.98 220.27h75.62v94.59h-75.62z" id="elolg7gtz4o8q"/><path d="m446.62 241.86-.45-.09-1.29-.3-5-1.17-18.88-4.47L354.59 220l.3-.18c-5.26 21.88-11.28 47-17.66 73.52L337 293l92 22.17-.28.16c5.38-22.12 9.83-40.47 12.94-53.3 1.57-6.41 2.8-11.44 3.65-14.89.42-1.71.74-3 1-3.92s.35-1.36.35-1.36-.09.44-.29 1.32-.52 2.2-.91 3.9c-.82 3.44-2 8.46-3.52 14.87-3.07 12.87-7.45 31.28-12.74 53.49l-.06.22-.22-.05-92-22.08-.27-.06.07-.27c6.4-26.55 12.44-51.64 17.71-73.52l.06-.24.24.06 66.53 16.13 18.74 4.58 4.94 1.22 1.26.31z" style="fill:#e0e0e0;transform-origin:391.655px 267.55px" id="elcb0vmyrl8ni" class="animable"/><path style="fill:#f5f5f5;transform-origin:391.73px 267.555px;transform:rotate(-76.48deg)" class="animable" d="M358.68 223.58h66.1v87.95h-66.1z" id="elnnsa54t1dli"/><path style="fill:#ebebeb;transform-origin:384.005px 283.3px" id="elcmq47qhcc5q" class="animable" d="m341.25 289.4 39.47-32.77 12.49 29.45 15.76-10.34 17.79 34.23-85.51-20.57z"/><path d="M408.25 258.08a6.92 6.92 0 1 1-5.11-8.35 6.91 6.91 0 0 1 5.11 8.35z" style="fill:#ebebeb;transform-origin:401.524px 256.458px" id="ellbdad4y17a" class="animable"/><path d="m94.93 189.13 71.43-17a12.44 12.44 0 0 1 15 8.76l26.39 103.22 17.69 6.82a12.13 12.13 0 0 1 7.44 8.25l16.27 63.65a12 12 0 0 1-9.07 14.5L118.7 406.25z" style="fill:#e0e0e0;transform-origin:172.204px 289.005px" id="el2eyvp6i381z" class="animable"/><path style="fill:#f5f5f5;transform-origin:116.02px 268.965px" id="elvu5c8ibzt3i" class="animable" d="M202.09 342.41 75.23 372.65 29.95 195.52l126.85-30.24 45.29 177.13z"/><path style="fill:#fff;transform-origin:132.805px 290.755px" id="el5gk8hjijukm" class="animable" d="M222.96 367.68 90.08 399.36 42.65 213.82l132.88-31.67 47.43 185.53z"/><path d="m22.45 206.41 53.68 210 142.54-34a13.34 13.34 0 0 0 10.1-16.17L205.2 274a16.22 16.22 0 0 0-10.87-11.34l-17.49-5.58-17.12-67c-2.19-8.56-11.15-13.79-20-11.67z" style="fill:#ebebeb;transform-origin:125.798px 297.174px" id="el16y4xsjgc52" class="animable"/><path style="fill:#ebebeb;transform-origin:231.08px 335.36px" id="el4q1krpm7x0c" class="animable" d="m243.64 364.83-9.48 2.26-15.64-61.2 9.47-2.26 15.65 61.2z"/><path d="m84.57 327.67-1.73.53c-6.8-20.77.84-43.41 19-56.33a54.29 54.29 0 0 1 61-1l-1 1.45a52.42 52.42 0 0 0-58.92 1c-17.54 12.44-24.92 34.3-18.35 54.35z" style="fill:#e0e0e0;transform-origin:121.612px 295.092px" id="elhknpub143xj" class="animable"/><path d="M164.56 353.66a54.26 54.26 0 0 1-61.16.92l1-1.44a52.38 52.38 0 0 0 59-.89 49 49 0 0 0 18-23.7 47.4 47.4 0 0 0 1-28.66l1.75-.46a49.2 49.2 0 0 1-1 29.69 50.85 50.85 0 0 1-18.59 24.54z" style="fill:#e0e0e0;transform-origin:144.686px 331.498px" id="el6ds55z84z7m" class="animable"/><path d="M147.83 282.35a36.6 36.6 0 0 0-35.09 3.9 33.82 33.82 0 0 0-14.28 31.2z" style="fill:#e0e0e0;transform-origin:123.056px 298.508px" id="elctxe0r088qv" class="animable"/><path d="M117.34 344.32a36.63 36.63 0 0 0 37.55-2.78 33.77 33.77 0 0 0 13.9-33.8z" style="fill:#e0e0e0;transform-origin:143.343px 327.982px" id="el95vnmxzk9wd" class="animable"/><path style="fill:#e0e0e0;transform-origin:88.54px 332.895px" id="eltr7l6czl5y" class="animable" d="m93.55 331.11-1.75-2.31-8.27 5.88 1.75 2.31 8.27-5.88z"/><path style="fill:#e0e0e0;transform-origin:95.59px 342.15px" id="elcaqrq45ca9m" class="animable" d="m88.81 335.96 10.89 14.28 2.67-1.91-10.88-14.27-2.68 1.9z"/><path style="fill:#e0e0e0;transform-origin:166.045px 277.79px" id="elzxwg115rmsr" class="animable" d="m171.06 276-1.75-2.3-8.28 5.88 1.76 2.3 8.27-5.88z"/><path style="fill:#e0e0e0;transform-origin:173.1px 287.04px" id="elcbgntl1nyvl" class="animable" d="m166.32 280.85 10.89 14.28 2.67-1.9L169 278.95l-2.68 1.9z"/><path d="M108 340.67c-.7.25-1.42 0-2.19-1l-7.22-9.47c-.76-1-.8-1.75-.35-2.32l-1.93-2.53c-2.18 1.83-2.27 4.29-.26 6.93l7 9.12c2 2.63 4.47 3.28 6.93 1.82z" style="fill:#e0e0e0;transform-origin:102.293px 334.667px" id="eltf6r50j0cmo" class="animable"/><path d="m97.25 324.67 1.93 2.54c.7-.25 1.43 0 2.19 1l7.22 9.47c.77 1 .8 1.75.35 2.32l1.94 2.53c2.17-1.83 2.26-4.3.26-6.93l-7-9.12c-1.96-2.62-4.42-3.27-6.89-1.81z" style="fill:#e0e0e0;transform-origin:104.913px 333.218px" id="elfr9pl4ripg5" class="animable"/><path style="fill:#e0e0e0;transform-origin:110.5px 329.03px" id="elbljb44t7206" class="animable" d="m105.04 319.39-2.45 1.74 13.38 17.54 2.44-1.74-13.37-17.54z"/><path d="m106.53 318.32-.56.41 1.91 2.5.57-.4c.85-.6 1.61-.53 2.57.72l2 2.63c1 1.26.79 2-.06 2.59l-.56.4 1.91 2.51.56-.4c2.68-1.91 2.83-4.37.69-7.18l-1.74-2.28c-2.13-2.82-4.61-3.4-7.29-1.5z" style="fill:#e0e0e0;transform-origin:111.503px 323.447px" id="el46h303kewpp" class="animable"/><path style="fill:#e0e0e0;transform-origin:136.22px 310.55px" id="elruzgedc8x9" class="animable" d="m136.74 308.25-2.95 2.1 1.91 2.5 2.95-2.09-1.91-2.51z"/><path style="fill:#e0e0e0;transform-origin:132.675px 313.27px" id="el8cmnewan1p3" class="animable" d="m127.22 303.62-2.47 1.75 13.37 17.55 2.48-1.76-13.38-17.54z"/><path style="fill:#e0e0e0;transform-origin:131.06px 302.825px" id="elgdwssppgbai" class="animable" d="m128.16 302.95 1.91 2.51 3.89-2.77-1.91-2.5-3.89 2.76z"/><path style="fill:#e0e0e0;transform-origin:142.52px 317.86px" id="elhm4vrum73om" class="animable" d="m141.53 320.5 3.89-2.77-1.91-2.51-3.89 2.77 1.91 2.51z"/><path d="M148.65 311.75c-.7.27-1.42 0-2.2-1l-7.22-9.47c-.77-1-.8-1.77-.33-2.34l-1.9-2.52c-2.26 1.84-2.31 4.29-.28 7l6.95 9.12c2 2.67 4.47 3.35 7 1.81z" style="fill:#e0e0e0;transform-origin:142.959px 305.791px" id="el5367dttggvx" class="animable"/><path d="m137.91 295.78 1.93 2.53c.69-.23 1.41 0 2.17 1l1.43 1.88 2.53-1.8-1.3-1.71c-1.98-2.57-4.34-3.28-6.76-1.9z" style="fill:#e0e0e0;transform-origin:141.94px 298.139px" id="el695o0dk1o5j" class="animable"/><path d="M149.23 308.8c.75 1 .78 1.72.35 2.28l1.95 2.55c2.07-1.82 2.07-4.21.09-6.8l-1.77-2.33-2.53 1.8z" style="fill:#e0e0e0;transform-origin:150.207px 309.065px" id="elhr6ilna56tt" class="animable"/><path style="fill:#e0e0e0;transform-origin:150.91px 300.3px" id="elzrti6dipca" class="animable" d="m145.36 290.72-2.27 1.62 13.37 17.54 2.27-1.61-13.37-17.55z"/><path d="m162.86 302-2.06-2.7c-1.39-1.83-2.84-2.85-4.62-2.47.75-1.43.41-3-1-4.81l-1.05-1.38c-2.07-2.7-4.27-3.18-7-1.21l-.84.59 1.91 2.51.8-.53c.95-.67 1.79-.41 2.74.84l1.32 1.73c1.07 1.4.8 2.29-.19 3l-.52.36 1.91 2.51.4-.28c1.21-.87 2.21-.64 3.45 1l2.1 2.76a7.06 7.06 0 0 0 1.89 2l2.72-1.93a6.91 6.91 0 0 1-1.96-1.99z" style="fill:#e0e0e0;transform-origin:155.555px 297.073px" id="elesajne2rlnv" class="animable"/><path style="fill:#e0e0e0;transform-origin:160.795px 293.275px" id="elj5dkpfrkcw" class="animable" d="m155.34 283.62-2.47 1.77 13.37 17.54 2.48-1.76-13.38-17.55z"/><path style="fill:#e0e0e0;transform-origin:164.335px 290.565px" id="el2p799ryv4at" class="animable" d="m164.85 288.27-2.94 2.08 1.91 2.51 2.94-2.09-1.91-2.5z"/><path style="fill:#e0e0e0;transform-origin:170.64px 297.87px" id="el55f3kz430o3" class="animable" d="m169.65 300.5 3.89-2.76-1.91-2.5-3.89 2.76 1.91 2.5z"/><path style="fill:#e0e0e0;transform-origin:159.175px 282.835px" id="elgwph0zir03v" class="animable" d="m156.28 282.96 1.91 2.51 3.88-2.77-1.91-2.5-3.88 2.76z"/><path d="M130.39 324.78c-.74.34-1.5.14-2.32-.93l-1-1.26-2.53 1.8.82 1.08c2 2.65 4.44 3.33 6.91 1.84z" style="fill:#e0e0e0;transform-origin:128.405px 325.338px" id="elwwyjfj6zgqk" class="animable"/><path d="M121.55 311.29c.7-.27 1.41 0 2.19 1l.55.73 2.53-1.8-.42-.55c-2-2.62-4.35-3.33-6.78-1.92z" style="fill:#e0e0e0;transform-origin:123.22px 310.529px" id="el52wbhltzsx9" class="animable"/><path d="M121.06 314.22c-.74-1-.82-1.69-.43-2.24l-1.94-2.55c-2.17 1.82-2.18 4.23-.17 6.86 3.82 5 9.57 2 12.32 5.58.71.93.79 1.63.43 2.18l2 2.59c2.12-1.83 2.13-4.23.14-6.84-3.85-5.02-9.59-1.98-12.35-5.58z" style="fill:#e0e0e0;transform-origin:125.959px 318.035px" id="elvwsn9g1poe" class="animable"/><path d="m91.8 314.78 1.29-.09c1.55-.1 2.49.59 2.6 2s-.69 2.31-2.28 2.39l-5 .34c-1.55.11-2.49-.58-2.59-2s.72-2.25 2.27-2.36L89 315l.11 1.39-1 .07c-.69 0-.94.36-.9.82s.32.75 1 .7l5.23-.36c.69-.05.92-.36.89-.83s-.31-.74-1-.69l-1.39.09z" style="fill:#e0e0e0;transform-origin:90.7559px 317.056px" id="elvo0f7vj5o4" class="animable"/><path d="M88.19 310.61c-1.55-.2-2.32-1.09-2.13-2.52s1.18-2.11 2.72-1.92l5 .63c1.54.19 2.31 1.08 2.12 2.52a2.14 2.14 0 0 1-2.72 1.91zm5.29-.83c.69.09 1-.17 1-.63s-.15-.79-.84-.88l-5.2-.65c-.69-.09-1 .17-1 .64s.16.79.84.87z" style="fill:#e0e0e0;transform-origin:90.98px 308.725px" id="elbojbz2c6by" class="animable"/><path d="m90.65 300.52 6.64 2.24-.45 1.24-9.17-3.09.64-1.75 6 .42-5.49-1.85.45-1.24 9.17 3.1-.52 1.41z" style="fill:#e0e0e0;transform-origin:93.055px 300.245px" id="ele2oge7s2pkh" class="animable"/><path d="m96.07 292.7 1-1.63 1.19.68-1 1.64 3.45 2-.78 1.27-8.35-4.79 2.06-3.35 1.2.68-1.29 2.09z" style="fill:#e0e0e0;transform-origin:96.145px 292.59px" id="elf4otgkj3zet" class="animable"/><path d="m96.44 284.86 1-1.13 7.46 6-1 1.13z" style="fill:#e0e0e0;transform-origin:100.67px 287.295px" id="el9ptqt4rsyse" class="animable"/><path d="m100.93 280.14 1.83-1.52a2.13 2.13 0 0 1 3.29.32l3.2 3.6c1 1.14 1 2.23-.16 3.19l-1.83 1.52zm2.06.05 4.53 5.08.65-.54c.37-.31.42-.67 0-1.18l-3.29-3.7c-.45-.51-.84-.5-1.2-.2z" style="fill:#e0e0e0;transform-origin:105.456px 282.619px" id="ela4rth8his27" class="animable"/><path d="m112.13 277.07 1.83-1 .68 1.17-1.83 1 1.38 2.4 2.3-1.23.68 1.17-3.64 1.95-4.72-8.19 3.64-2 .67 1.17-2.3 1.24z" style="fill:#e0e0e0;transform-origin:112.99px 277.435px" id="el74rjdbzdew9" class="animable"/><path d="m119.34 272.44 2.1 6.48-1.31.4-2.9-8.95 1.83-.55 3.23 4.9-1.74-5.36 1.3-.39 2.9 8.95-1.49.45z" style="fill:#e0e0e0;transform-origin:120.99px 274.145px" id="eljk37rxvvfc7" class="animable"/><path d="m126.67 268 4.69-.46.14 1.33-1.58.16.85 8-1.52.15-.85-8-1.59.16z" style="fill:#e0e0e0;transform-origin:129.085px 272.36px" id="elc388rrhe457" class="animable"/><path d="m136 267.58 1.53.09-.57 9.36-1.52-.08z" style="fill:#e0e0e0;transform-origin:136.485px 272.305px" id="el0cmqn3oi6z76" class="animable"/><path d="m145.23 278.46-1.5-.34.14-1.71-1.82-.41-.65 1.6-1.37-.3 3.7-8.8 2.17.48zm-2.7-3.65 1.44.31.38-4.78z" style="fill:#e0e0e0;transform-origin:142.965px 273.48px" id="elra50rn4o0td" class="animable"/><path d="m152.06 270.91 1.39.6-3.4 7.34 2.29 1-.57 1.22-3.68-1.59z" style="fill:#e0e0e0;transform-origin:150.77px 275.99px" id="elzcc5np966ni" class="animable"/><path d="m175.17 312.14-1.29.09c-1.55.11-2.49-.58-2.6-2s.73-2.26 2.28-2.36l5-.35c1.55-.1 2.49.58 2.59 2s-.72 2.25-2.27 2.36l-.88.12-.1-1.39 1-.07c.69-.05.94-.36.9-.83s-.32-.74-1-.69l-5.23.35c-.69.05-.92.36-.88.83s.3.75 1 .7l1.39-.1z" style="fill:#e0e0e0;transform-origin:176.214px 309.876px" id="elxd9bvox7ft" class="animable"/><path d="M178.79 316.32c1.54.19 2.31 1.08 2.12 2.52a2.15 2.15 0 0 1-2.72 1.92l-5-.63a2.1 2.1 0 0 1-2.12-2.52c.19-1.44 1.18-2.11 2.72-1.92zm-5.3.82c-.69-.08-1 .18-1.05.64s.16.79.84.88l5.2.65c.69.08 1-.18 1.05-.64s-.16-.79-.84-.88z" style="fill:#e0e0e0;transform-origin:175.983px 318.248px" id="elds0hbwb0ism" class="animable"/><path d="m176.32 326.41-6.64-2.24.45-1.25 9.17 3.08-.64 1.74-6-.42 5.49 1.85-.45 1.24-9.17-3.09.52-1.43z" style="fill:#e0e0e0;transform-origin:173.915px 326.665px" id="elhwxob6ycjn" class="animable"/><path d="m170.9 334.22-1 1.64-1.19-.68 1-1.64-3.45-2 .78-1.26 8.35 4.78-2.06 3.35-1.19-.68 1.28-2.08z" style="fill:#e0e0e0;transform-origin:170.825px 334.345px" id="el8hkr3hndh39" class="animable"/><path d="m170.53 342.07-1 1.13-7.46-6 1-1.13z" style="fill:#e0e0e0;transform-origin:166.3px 339.635px" id="elths4r0pvx9" class="animable"/><path d="m166 346.79-1.83 1.52a2.13 2.13 0 0 1-3.29-.33l-3.2-3.59c-1-1.14-1-2.23.16-3.19l1.83-1.52zm-2.06-.06-4.53-5.08-.65.55c-.37.3-.42.67 0 1.18l3.29 3.69c.45.51.84.51 1.2.2z" style="fill:#e0e0e0;transform-origin:161.474px 344.309px" id="eluafg5nee2ss" class="animable"/><path d="m154.84 349.85-1.83 1-.68-1.17 1.83-1-1.38-2.4-2.3 1.24-.68-1.17 3.64-2 4.72 8.2-3.64 2-.67-1.17 2.3-1.24z" style="fill:#e0e0e0;transform-origin:153.98px 349.45px" id="el7qpqn7d45y" class="animable"/><path d="m147.63 354.48-2.1-6.48 1.31-.39 2.9 8.95-1.83.55-3.23-4.91 1.74 5.36-1.3.39-2.9-8.94 1.49-.46z" style="fill:#e0e0e0;transform-origin:145.98px 352.78px" id="elf9zog424mvt" class="animable"/><path d="m140.3 358.9-4.69.47-.14-1.34 1.58-.15-.85-8 1.52-.15.85 8 1.59-.16z" style="fill:#e0e0e0;transform-origin:137.885px 354.55px" id="el09igdikce1cx" class="animable"/><path d="m131 359.34-1.53-.08.57-9.37 1.52.09z" style="fill:#e0e0e0;transform-origin:130.515px 354.615px" id="elh48x041vpad" class="animable"/><path d="m121.74 348.47 1.5.33-.14 1.72 1.82.4.65-1.6 1.37.3-3.7 8.81-2.17-.49zm2.7 3.65-1.44-.32-.38 4.78z" style="fill:#e0e0e0;transform-origin:124.005px 353.45px" id="els9d5g6xvdnm" class="animable"/><path d="m114.91 356-1.39-.61 3.4-7.33-2.29-1 .57-1.23 3.68 1.6z" style="fill:#e0e0e0;transform-origin:116.2px 350.915px" id="elt1j5dt2uwo" class="animable"/><path d="m43.58 217.8 3.3 12.92-2.61.62-4.56-17.84 3.64-.86 5.71 10-2.73-10.67 2.59-.62 4.56 17.83-3 .71z" style="fill:#e0e0e0;transform-origin:46.595px 221.345px" id="el8mab00o77xk" class="animable"/><path d="M51.53 213.55a2.58 2.58 0 0 1 2.08-3.49 2.67 2.67 0 0 1 3.52 2.16l1 3.95a2.58 2.58 0 0 1-2.08 3.49 2.68 2.68 0 0 1-3.52-2.16zm2.89 3.61c.21.82.62 1 1.23.87s.88-.51.67-1.32l-1.07-4.16c-.2-.81-.64-1-1.23-.86s-.87.5-.67 1.32zm4.71 2.84.45 1.76-5.58 1.37-.45-1.76z" style="fill:#e0e0e0;transform-origin:55.4681px 216.521px" id="eluhz0dd8pwce" class="animable"/><path style="fill:#fafafa;transform-origin:123.595px 211.865px" id="elionkiiz8cgh" class="animable" d="m138.94 178.6 21.63 40.4-52.32 26.13-21.63-40.4 52.32-26.13z"/><path d="m138.94 178.61-.25.13-.73.37-2.83 1.44-10.69 5.38-37.75 18.93.07-.2 21.64 40.39-.23-.07 52.33-26.1-.06.19-15.62-29.34-4.35-8.2c-.49-.95-.88-1.67-1.14-2.17l-.39-.75s.14.23.41.71l1.15 2.13 4.41 8.15 15.79 29.34.06.12-.12.06-52.32 26.15-.15.08-.08-.15c-7.8-14.59-15.17-28.38-21.61-40.4l-.07-.14.14-.06 37.9-18.84 10.7-5.3 2.83-1.39.72-.35z" style="fill:#e0e0e0;transform-origin:123.585px 211.98px" id="el5aq633cteu" class="animable"/><path style="fill:#f5f5f5;transform-origin:123.565px 211.88px" id="elg19ukyt1849" class="animable" d="m108.69 241.68 48.65-24.28-18.91-35.32-48.64 24.29 18.9 35.31z"/><path style="fill:#ebebeb;transform-origin:133.015px 225.25px" id="el0q5iajscxtqc" class="animable" d="m108.69 241.68 5.24-30.43 17.88 8.48 3.21-10.91 22.32 8.58-48.65 24.28z"/><path d="M127.48 201.08a4.09 4.09 0 0 1-1.85 5.61 4.4 4.4 0 0 1-5.81-1.79 4.1 4.1 0 0 1 1.85-5.61 4.38 4.38 0 0 1 5.81 1.79z" style="fill:#ebebeb;transform-origin:123.652px 202.987px" id="el8zxw662yzkg" class="animable"/><path d="M125 202.74a6.23 6.23 0 0 1-6.07-4.62l-3.25-12.68a1.4 1.4 0 0 1 2.72-.7l3.24 12.69a3.46 3.46 0 0 0 4.19 2.41 3.42 3.42 0 0 0 2.16-1.55 3.11 3.11 0 0 0 .36-2.42l-4-15.62a5.87 5.87 0 0 0-7.09-4.1 5.77 5.77 0 0 0-3.65 2.63 5.35 5.35 0 0 0-.62 4.13l.1.38a1.4 1.4 0 0 1-2.71.7l-.1-.39a8.12 8.12 0 0 1 .93-6.27 8.59 8.59 0 0 1 5.4-3.91 8.68 8.68 0 0 1 10.39 6.14l4 15.62a6 6 0 0 1-.68 4.56 6.15 6.15 0 0 1-3.91 2.82 6.24 6.24 0 0 1-1.41.18z" style="fill:#e0e0e0;transform-origin:120.601px 187.961px" id="el7s9agzf5x9l" class="animable"/><path style="fill:#e0e0e0;transform-origin:81.925px 70.64px;transform:rotate(-8.61deg)" class="animable" d="M67.53 66.49h28.79v8.3H67.53z" id="el7vnrvepz49r"/><path style="fill:#e0e0e0;transform-origin:86.915px 103.62px;transform:rotate(-8.61deg)" class="animable" d="M82.26 77.88h9.31v51.48h-9.31z" id="el2c80xp3ytmc"/><path style="fill:#e0e0e0;transform-origin:348.725px 30.24px;transform:rotate(-8.61deg)" class="animable" d="M334.33 26.09h28.79v8.3h-28.79z" id="elus3apuutngl"/><path style="fill:#e0e0e0;transform-origin:353.725px 63.22px;transform:rotate(-8.61deg)" class="animable" d="M349.07 37.48h9.31v51.48h-9.31z" id="elzasjlby8e7"/><path d="M119.72 116c-2.06-.28-3.52-1.88-4.06-5.45l-5.12-33.77c-.54-3.57.39-5.54 2.27-6.41l-1.37-9c-7.88 1.87-11.43 8.08-10 17.46l4.92 32.52c1.42 9.38 6.65 14.26 14.74 13.72z" style="fill:#e0e0e0;transform-origin:111.115px 93.2402px" id="el74urgssu5gp" class="animable"/><path d="m114.66 60.89 1.36 9c2.06.28 3.53 1.88 4.07 5.45l5.11 33.77c.54 3.58-.38 5.54-2.27 6.41l1.37 9c7.89-1.88 11.44-8.09 10-17.47l-4.91-32.45c-1.39-9.37-6.65-14.25-14.73-13.71z" style="fill:#e0e0e0;transform-origin:124.637px 92.6848px" id="eleozjrg1ya1" class="animable"/><path style="fill:#e0e0e0;transform-origin:141.64px 89.385px;transform:rotate(-8.61deg)" class="animable" d="M137.39 57.76h8.5v63.25h-8.5z" id="elfqtbyy84yfm"/><path d="m146.27 56.7-2 .29 1.35 8.94 2-.3c2.93-.44 4.74.74 5.41 5.21l1.42 9.38c.68 4.47-.69 6.14-3.63 6.58l-1.94.3 1.35 8.9 2-.29c9.21-1.4 12.91-7.53 11.39-17.54l-1.23-8.13c-1.57-9.97-6.92-14.74-16.12-13.34z" style="fill:#e0e0e0;transform-origin:154.111px 76.2302px" id="elhqwc6vdh80p" class="animable"/><path style="fill:#e0e0e0;transform-origin:230.43px 75.485px;transform:rotate(-8.61deg)" class="animable" d="M225.31 70.97h10.24V80h-10.24z" id="elgspxtfdth8t"/><path style="fill:#e0e0e0;transform-origin:217.965px 77.825px;transform:rotate(-8.61deg)" class="animable" d="M213.66 46.2h8.61v63.25h-8.61z" id="el9vaxmazl13a"/><path style="fill:#e0e0e0;transform-origin:228.075px 48.88px;transform:rotate(-8.61deg)" class="animable" d="M221.3 44.36h13.55v9.04H221.3z" id="elwyl91l2mw9p"/><path style="fill:#e0e0e0;transform-origin:236.185px 102.48px;transform:rotate(-8.61deg)" class="animable" d="M229.41 97.96h13.55V107h-13.55z" id="el30za1ldivxl"/><path d="M259.66 94.79c-2.1-.22-3.59-1.76-4.13-5.38l-5.12-33.77c-.55-3.62.41-5.58 2.35-6.44l-1.37-9c-8.1 1.78-11.53 8-10.09 17.5l4.92 32.52c1.44 9.51 6.56 14.43 14.82 13.73z" style="fill:#e0e0e0;transform-origin:251.01px 72.1078px" id="elkh1j8q6hwt" class="animable"/><path d="m254.61 39.73 1.36 9c2 .31 3.45 1.92 4 5.44l1 6.71 8.71-1.32-.92-6.08c-1.4-9.22-6.29-14.13-14.15-13.75z" style="fill:#e0e0e0;transform-origin:262.145px 50.2947px" id="elvdq910xmz5b" class="animable"/><path d="M265.07 88c.53 3.53-.37 5.43-2.2 6.3l1.37 9.11c7.63-2 10.85-8.1 9.44-17.35l-1.25-8.31-8.71 1.25z" style="fill:#e0e0e0;transform-origin:268.436px 90.58px" id="elf3slb4gz2lm" class="animable"/><path style="fill:#e0e0e0;transform-origin:280.735px 68.325px;transform:rotate(-8.61deg)" class="animable" d="M276.78 36.7h7.91v63.25h-7.91z" id="elmjvydhwieos"/><path d="m308 88.4-1.46-9.65c-1-6.52-3.21-11-8.13-12.38 3.79-2.68 5.09-7.17 4.11-13.6l-.74-4.91c-1.46-9.65-6.28-13.76-15.83-12.32l-2.87.44 1.35 8.93 2.62-.4c3.27-.49 5 1.26 5.66 5.73l.94 6.16c.76 5-1.09 6.93-4.53 7.45l-1.78.27 1.35 8.93 1.37-.21c4.18-.63 6.35 1.24 7.23 7l1.49 9.83c.77 5.09 1.25 6 2 7.55l9.38-1.42c-1.24-2.14-1.66-4.36-2.16-7.4z" style="fill:#e0e0e0;transform-origin:296.62px 66.2399px" id="ellxdmpxk1eo" class="animable"/><path style="fill:#e0e0e0;transform-origin:314.745px 63.175px;transform:rotate(-8.61deg)" class="animable" d="M310.43 31.55h8.63V94.8h-8.63z" id="el23l1bptypy2"/><path style="fill:#e0e0e0;transform-origin:327.21px 60.825px;transform:rotate(-8.61deg)" class="animable" d="M322.1 56.31h10.22v9.03H322.1z" id="elvsascje50ge"/><path style="fill:#e0e0e0;transform-origin:332.975px 87.83px;transform:rotate(-8.61565deg)" class="animable" d="M326.21 83.31h13.53v9.04h-13.53z" id="elyj66ss92s5"/><path style="fill:#e0e0e0;transform-origin:324.855px 34.23px;transform:rotate(-8.61deg)" class="animable" d="M318.09 29.71h13.53v9.04h-13.53z" id="ellhac8x2ijtr"/><path d="M196.72 104.41c-2.29-.08-3.91-1.59-4.49-5.42l-.67-4.46-8.71 1.32.58 3.83c1.43 9.45 6.5 14.37 14.66 13.75z" style="fill:#e0e0e0;transform-origin:190.47px 104.006px" id="elc49mjtiavvi" class="animable"/><path d="M193 58.22c2.1.23 3.51 1.83 4.06 5.49l.4 2.6 8.73-1.31-.3-2c-1.41-9.33-6.31-14.25-14.23-13.78z" style="fill:#e0e0e0;transform-origin:198.925px 57.7496px" id="elo4h8cx6nksn" class="animable"/><path d="M187.87 65.11c-.52-3.46.23-5.4 1.95-6.31l-1.38-9.09c-7.83 1.84-11.1 8-9.68 17.42 2.7 17.87 21.07 17.55 23 30.42.5 3.32-.25 5.21-1.88 6.14l1.4 9.22c7.73-1.92 11-8.07 9.59-17.38-2.68-17.87-21.05-17.53-23-30.42z" style="fill:#e0e0e0;transform-origin:194.813px 81.31px" id="elrkdq1bpx5u" class="animable"/><path d="M344.27 411.25v41h-6.85v4.46h6.85v27.45h128v-25h-9.48v-5.44h9.48v-8.17h4.22v-3.71h-5v-30.59z" style="fill:#f5f5f5;transform-origin:406.955px 447.705px" id="el8t139x3p6kd" class="animable"/><path style="fill:#e0e0e0;transform-origin:457.455px 447.485px" id="elh4idh1i9nt" class="animable" d="M438.31 411.37v72.35h33.99v-24.98h-9.48v-4.98l9.48.17v-8.17l4.3.01-.08-4.22-5.01-.12v-30.18l-33.2.12z"/><path d="M440.73 456.14c0 .25-23.17.45-51.74.45s-51.75-.2-51.75-.45 23.17-.46 51.75-.46 51.74.21 51.74.46z" style="fill:#e0e0e0;transform-origin:388.985px 456.135px" id="el45hodwms4tc" class="animable"/><path d="M440.73 452c0 .25-23.17.45-51.74.45s-51.75-.2-51.75-.45 23.17-.46 51.75-.46 51.74.18 51.74.46z" style="fill:#e0e0e0;transform-origin:388.985px 451.995px" id="el41d169vnpeg" class="animable"/><path d="M447.37 440.75c0 .26-23.16.46-51.74.46s-51.74-.2-51.74-.46 23.16-.45 51.74-.45 51.74.2 51.74.45z" style="fill:#e0e0e0;transform-origin:395.63px 440.755px" id="elkj5yrvs8vo" class="animable"/><path d="M448 471.32c0 .25-23.17.45-51.74.45s-51.74-.2-51.74-.45 23.16-.46 51.74-.46 51.74.2 51.74.46z" style="fill:#e0e0e0;transform-origin:396.26px 471.315px" id="elaokui5kal48" class="animable"/><path d="M64.21 443.72v21.71h-8.69v2.36h8.69v14.53h162.45V469.1h-12v-2.88h12v-4.32H232v-2h-6.35v-16.18z" style="fill:#f5f5f5;transform-origin:143.76px 463.02px" id="elqgxu7vrgvl9" class="animable"/><path style="fill:#e0e0e0;transform-origin:207.815px 462.9px" id="eluu5a61fvddo" class="animable" d="M183.52 443.79v38.29h43.14v-13.22h-12.04v-2.64l12.04.09v-4.32h5.45l-.11-2.23-6.35-.07v-15.97l-42.13.07z"/><path d="M186.59 467.48c0 .13-29.39.24-65.65.24s-65.65-.11-65.65-.24 29.39-.24 65.65-.24 65.65.11 65.65.24z" style="fill:#e0e0e0;transform-origin:120.94px 467.48px" id="elpogwac3520e" class="animable"/><path d="M186.59 465.27c0 .14-29.39.24-65.65.24s-65.65-.1-65.65-.24 29.39-.24 65.65-.24 65.65.11 65.65.24z" style="fill:#e0e0e0;transform-origin:120.94px 465.27px" id="elwpumegyvln" class="animable"/><path d="M195 459.34c0 .13-29.39.24-65.64.24s-65.66-.11-65.66-.24 29.39-.24 65.66-.24 65.64.11 65.64.24z" style="fill:#e0e0e0;transform-origin:129.35px 459.34px" id="el41tflj1w1xn" class="animable"/><path d="M195.83 475.51c0 .14-29.39.24-65.64.24s-65.66-.1-65.66-.24 29.39-.24 65.66-.24 65.64.11 65.64.24z" style="fill:#e0e0e0;transform-origin:130.18px 475.51px" id="elxzl1ybflxz" class="animable"/></g><g id="freepik--Table--inject-66" class="animable" style="transform-origin:256.18px 483.09px"><path d="M471.9 483.09c0 .14-96.59.26-215.71.26s-215.73-.12-215.73-.26 96.57-.26 215.73-.26 215.71.17 215.71.26z" style="fill:#263238;transform-origin:256.18px 483.09px" id="elxiu9vjgc7m9" class="animable"/></g><g id="freepik--speech-bubble--inject-66" class="animable" style="transform-origin:395.325px 145.07px;animation:3s Infinite linear heartbeat;animation-delay:1.5s"><path style="fill:#fff;transform-origin:395.375px 144.985px" id="elcx332yhc4c8" class="animable" d="m398.39 109.51-25.73-24.59-6.1 36.03-30.98.81 19.66 31.34-27.1 24.41 37.28-4.14 2.22 34.79 31.98-26.01 38.79 24.71-4.96-36.34 29.16-2.03-20.79-24.68 14.05-25.15-27.38 2.26-4.4-39.11-25.7 27.7z"/><path d="M398.39 109.51s.58-.65 1.7-1.87 2.79-3 5-5.4L424 81.72l.19-.21v.29c1.23 10.76 2.73 24 4.45 39.1l-.19-.15 27.38-2.29h.38l-.19.33-14 25.15v-.25l20.8 24.68.3.35h-.46l-29.16 2 .23-.28 5 36.34.08.54-.47-.29-38.79-24.71h.3l-4.87 4-27.11 22-.39.31v-.5q-1.12-17.78-2.21-34.79l.28.24-37.28 4.13-.74.08.55-.5 27.11-24.4v.29q-10.44-16.69-19.64-31.35l-.18-.3h.35l31-.78-.17.14c2.41-14.15 4.46-26.13 6.15-36v-.23l.17.16 19.05 18.31 4.92 4.74 1.67 1.63-1.67-1.57c-1.12-1-2.77-2.62-4.94-4.68L372.57 85l.21-.07c-1.66 9.9-3.67 21.88-6 36v.14h-.14l-31 .84.16-.3L355.43 153l.1.16-.14.12-27.08 24.43-.19-.42 37.27-4.16h.27v.27c.73 11.32 1.47 22.94 2.23 34.79l-.42-.18 27.1-22.05 4.87-4 .15-.12.16.1 38.79 24.71-.4.26c-1.7-12.53-3.37-24.77-4.94-36.34v-.26h.27l29.15-2-.16.38-20.8-24.69-.1-.12.07-.13 14.06-25.14.19.3-27.38 2.19h-.17v-.18c-1.68-15.11-3.15-28.34-4.35-39.12l.22.08-19.1 20.48-5 5.33c-1.1 1.22-1.71 1.82-1.71 1.82z" style="fill:#263238;transform-origin:395.325px 145.07px" id="elhw297ay7w3h" class="animable"/><path d="m370.81 151.26 1.31-2.9a9.82 9.82 0 0 0 5.5 1.74c2.29 0 3.21-.76 3.21-1.79 0-3.12-9.69-1-9.69-7.17 0-2.83 2.29-5.19 7-5.19a11.18 11.18 0 0 1 5.79 1.48l-1.2 2.93a9.31 9.31 0 0 0-4.62-1.32c-2.28 0-3.16.86-3.16 1.91 0 3.07 9.69 1 9.69 7.07 0 2.79-2.31 5.17-7.07 5.17a11.81 11.81 0 0 1-6.76-1.93z" style="fill:#263238;transform-origin:377.725px 144.571px" id="elpgjkngykn1a" class="animable"/><path d="M400.15 145.57v7.34h-3.71v-6.77c0-2.07-.95-3-2.6-3s-3.07 1.09-3.07 3.45v6.34h-3.72v-17.7h3.72v6.2a5.64 5.64 0 0 1 4.07-1.53c3.03 0 5.31 1.76 5.31 5.67z" style="fill:#263238;transform-origin:393.6px 144.08px" id="ellidt7bdspy" class="animable"/><path d="M416.62 145.57v7.34h-3.72v-6.77c0-2.07-.95-3-2.6-3s-3.07 1.09-3.07 3.45v6.34h-3.71v-17.7h3.71v6.2a5.64 5.64 0 0 1 4.08-1.53c3.02 0 5.31 1.76 5.31 5.67z" style="fill:#263238;transform-origin:410.07px 144.08px" id="elrdlf37r4gn" class="animable"/><path d="M419.43 150.93a2.29 2.29 0 0 1 4.57 0 2.29 2.29 0 0 1-4.57 0zm.07-14.7h4.43l-.74 10.89h-2.95z" style="fill:#263238;transform-origin:421.715px 144.649px" id="el8ffcshwugch" class="animable"/></g><g id="freepik--Character--inject-66" class="animable animator-active" style="transform-origin:289.39px 274.082px;animation:1.9s 1 forwards cubic-bezier(.36,-.01,.5,1.38) fadeIn,6s Infinite linear wind;animation-delay:0s,1.9s"><path d="M186.56 64.54c-14.2-.52-28.4 6.8-34.85 18a30.56 30.56 0 0 0 4 35.46c-7 3-9.65 11.84-5.21 17.44s14.81 6.46 20.35 1.68c-3.33 6.24.33 14.29 7 17.84s15.51 3 22.47-.13 12.25-8.62 16.26-14.55l3-55.24c-5.37-11.64-18.82-19.98-33.02-20.5z" style="fill:#263238;transform-origin:183.692px 110.96px" id="el5wq1b3zxzsh" class="animable"/><path d="M181.78 148.48a16.78 16.78 0 0 1 .75-21.71c-3.27-3.78-2.36-9.82.68-13.77s7.7-6.33 12.19-8.58c2.1-11.46 14.73-19.91 26.28-17.57 5.66-8.87 18.32-10.68 28.6-8.1 2.51.63 5 1.47 7.62 1.37a43 43 0 0 0 5.61-1c10.31-1.73 20.85 5.12 25.23 14.5A18.92 18.92 0 0 0 291.1 98c1.4 1.66 3.47 2.6 5.26 3.86a16.33 16.33 0 0 1 6.76 11.87c.31 4-.82 8.23 1 11.78.91 1.78 2.5 3.19 3.22 5 2.11 5.4-3.81 11.19-2.48 16.83.28 1.14.84 2.2 1.21 3.33a10 10 0 0 1-.37 7.07c-.76 1.71-2 3.29-2.07 5.15 0 1.41.65 2.73 1 4.11.82 3.36-6.11 16.67-9 18.61l-88.42 3.86a16.45 16.45 0 0 1-13.29-13.62 5.88 5.88 0 0 0-.93-3.19 7.31 7.31 0 0 0-2.47-1.47c-5.81-2.82-6.77-10.52-6.39-16.9a7.7 7.7 0 0 0-.15-2.67 9.6 9.6 0 0 0-2.2-3.14z" style="fill:#263238;transform-origin:242.979px 133.571px" id="elfu9fn6ztzc" class="animable"/><path d="M210.25 147.94c-.81-15.46 5.24-33.79 20.52-41.9 9.63-5.11 17.28-5.4 22.41-6.18a36.21 36.21 0 0 1 21 3.6c4.91 1 23.35 16.51 24.91 34 1.72 19.45 3 43.26 1.07 57.86C296.2 224.68 271 229 271 229l-.15 19c-14.07 21.37-39.11 22.39-55.68 2.94z" style="fill:#ffbf9d;transform-origin:255.652px 182.187px" id="elcx35msewpuk" class="animable"/><path d="M258.08 192.42a5.7 5.7 0 0 1 1.71-3.68 6 6 0 0 1 7.14-1c2.29 1.31 2.77 3.81 2.59 6.67-1.09 1.75-1.86 3.46-3.91 3.8-.32 0-.64.09-1 .11a6.52 6.52 0 0 1-4.49-1.37 5.63 5.63 0 0 1-2.04-4.53z" style="fill:#ff9a6c;transform-origin:263.816px 192.663px" id="el92k4tpmm2ks" class="animable"/><path d="M287.5 161.62a3.76 3.76 0 0 1-3.56 3.87 3.62 3.62 0 0 1-4-3.29 3.77 3.77 0 0 1 3.56-3.87 3.62 3.62 0 0 1 4 3.29z" style="fill:#263238;transform-origin:283.72px 161.91px" id="elkpd9fkruq8" class="animable"/><path d="M292.58 148.86c-.45.5-3.38-1.53-7.46-1.42s-7 2.2-7.48 1.71c-.22-.21.24-1.11 1.52-2.08a10.5 10.5 0 0 1 6-2 10 10 0 0 1 5.95 1.74c1.25.95 1.7 1.82 1.47 2.05z" style="fill:#263238;transform-origin:285.112px 147.145px" id="eljmf226fr59i" class="animable"/><path d="M269.49 181.29c0-.23 2.5-.72 6.6-1.34 1-.13 2-.36 2.18-1.07s-.24-1.85-.77-3q-1.56-3.71-3.28-7.77c-4.55-11.07-7.88-20.18-7.43-20.35s4.52 8.64 9.07 19.71l3.15 7.82c.42 1.16 1.13 2.47.64 4a2.59 2.59 0 0 1-1.68 1.54 6.84 6.84 0 0 1-1.76.29c-4.13.32-6.7.4-6.72.17z" style="fill:#263238;transform-origin:273.283px 164.59px" id="elpr6dtgwp3yb" class="animable"/><path d="M271.13 229a76.28 76.28 0 0 1-40-9.48s10.1 20.74 39.63 17.29z" style="fill:#ff9a6c;transform-origin:251.13px 228.359px" id="elr1lvy4pyxn" class="animable"/><path d="M289.5 132.79c-.66 1-3.8.42-7.45.81s-6.64 1.41-7.47.54c-.36-.42 0-1.39 1.25-2.41a11.73 11.73 0 0 1 12-1.09c1.42.78 1.96 1.67 1.67 2.15z" style="fill:#263238;transform-origin:282.012px 131.98px" id="elyacuebt5ns" class="animable"/><path d="M241.7 161.94a3.77 3.77 0 0 0 3.89 3.55 3.61 3.61 0 0 0 3.69-3.61 3.78 3.78 0 0 0-3.89-3.55 3.6 3.6 0 0 0-3.69 3.61z" style="fill:#263238;transform-origin:245.49px 161.91px" id="elg0r53xxjjba" class="animable"/><path d="M236.78 151.79c.5.46 3.24-1.81 7.31-2s7.19 1.59 7.6 1.07c.2-.23-.33-1.08-1.69-1.94a10.5 10.5 0 0 0-6.12-1.46 10 10 0 0 0-5.78 2.24c-1.2.98-1.57 1.89-1.32 2.09z" style="fill:#263238;transform-origin:244.218px 149.643px" id="el42r0fldq13l" class="animable"/><path d="M236.21 136c.86.87 3.95-.27 7.72-.55s7 .19 7.7-.81c.3-.49-.27-1.37-1.72-2.15a11.76 11.76 0 0 0-6.38-1.12 11.55 11.55 0 0 0-6 2.22c-1.32 1-1.7 1.97-1.32 2.41z" style="fill:#263238;transform-origin:243.889px 133.813px" id="eljbylonbdzzm" class="animable"/><path d="M212.57 175.31c-.06-2.18-2.73-7.25-4.92-7.53-5.83-.76-16.29 0-16 14.54.36 19.93 21 15.34 21 14.76s.12-14.26-.08-21.77z" style="fill:#ffbf9d;transform-origin:202.165px 182.761px" id="el83lskypgek" class="animable"/><path d="M206.49 190c-.09-.07-.35.24-.93.52a3.48 3.48 0 0 1-2.63.1c-2.15-.73-4-4-4.16-7.63a11.31 11.31 0 0 1 .89-5 4 4 0 0 1 2.6-2.71 1.78 1.78 0 0 1 2.09.91c.28.55.16 1 .26 1s.43-.35.25-1.17a2.19 2.19 0 0 0-.81-1.23 2.66 2.66 0 0 0-2-.47c-1.55.13-2.92 1.57-3.61 3.15a11.75 11.75 0 0 0-1.12 5.58c.2 4 2.35 7.73 5.28 8.52a3.81 3.81 0 0 0 3.21-.59c.65-.47.75-.92.68-.98z" style="fill:#ff9a6c;transform-origin:201.908px 182.991px" id="el7q4y2dmfep5" class="animable"/><path d="M303.58 137.64c-4.14-2.41-6.83-5.77-6.69-10.52-2.69.86-5.52-2.51-7.15-4.78s-3.59-3.39-3.54-6.17a3.17 3.17 0 0 0-.25-1.62c-.43-.75-1.39-1-2.23-1.21a13.4 13.4 0 0 1-9.13-9.06 28.88 28.88 0 0 1-13.77 2.6 11 11 0 0 1-18.5-.34 9.74 9.74 0 0 1-6.43 4.94 29.19 29.19 0 0 1-8.35.66 11.41 11.41 0 0 1-7.28 13.13c-.72.24-1.54.47-1.85 1.15s.07 1.49.37 2.21c1.87 4.51-1 10.34-5.81 11.6 3.36 2.45 3.17 8.3-.35 10.53-.72.46-1.66 1-1.53 1.84a1.81 1.81 0 0 0 .47.84c1.55 1.93 3.1 4.05 3.35 6.51s-1.37 5.26-3.86 5.43c1.34 1.12 2.6 2.57 2.67 4.3s-1.65 3.54-3.31 2.95c-.7-.24-10.79-1.95-11.25-2.53-5.9-7.51 1.07-16.15 1.39-25.65s3.44-18.78 8-27.14a45.09 45.09 0 0 1 6.92-9.78 59.94 59.94 0 0 1 10.88-8.34c5-3.26 10.17-6.52 16-8 10.82-2.8 22.22.82 32.49 5.2a47.82 47.82 0 0 1 11.16 6.08c4 3.16 6.93 7.36 9.54 11.68 3.76 6.25 6.92 13 7.81 20.22" style="fill:#263238;transform-origin:250.189px 131.474px" id="el88gz03p2d9c" class="animable"/><path d="M307.35 130.57a7.62 7.62 0 0 0-1.14-2.11c-.44-.65-1.07-1.4-1.66-2.38a9 9 0 0 1-1.23-3.69 28.57 28.57 0 0 1-.05-4.93 21.6 21.6 0 0 0-.31-5.92 16.69 16.69 0 0 0-2.82-6.21 16.45 16.45 0 0 0-2.55-2.75 25.06 25.06 0 0 0-3.25-2.26 12.75 12.75 0 0 1-3.14-2.53 16.6 16.6 0 0 1-2-3.7 25.87 25.87 0 0 0-5.1-7.58 26.2 26.2 0 0 0-8-5.74 23.79 23.79 0 0 0-4.9-1.67 21.92 21.92 0 0 0-5.32-.46 25.19 25.19 0 0 0-2.71.29c-.9.16-1.78.37-2.67.55a13.22 13.22 0 0 1-5.39.15c-1.81-.31-3.6-.9-5.48-1.31a35.77 35.77 0 0 0-11.63-.75 30.76 30.76 0 0 0-5.88 1.23 19.84 19.84 0 0 0-10 6.89l-.72 1 .32-.14a22.85 22.85 0 0 0-17.27 3.93 22.19 22.19 0 0 0-9.36 13.89l.16-.2a62.56 62.56 0 0 0-7 3.87 21.32 21.32 0 0 0-5.64 5.26 13.52 13.52 0 0 0-2.43 6.94 9.29 9.29 0 0 0 2.11 6.69v-.33A16.37 16.37 0 0 0 178 137a16.76 16.76 0 0 0 2.36 9.85 16.13 16.13 0 0 0 1.4 1.93c.5.6 1 1.15 1.43 1.75a4 4 0 0 1 .77 1.93 11 11 0 0 1 0 2.07 33.13 33.13 0 0 0 .42 7.56 15.7 15.7 0 0 0 2.14 5.7 9.74 9.74 0 0 0 3.23 3.15c1.06.66 2 .89 2.51 1.25a4.65 4.65 0 0 1 .75.58 2.56 2.56 0 0 0-.71-.65c-.52-.38-1.45-.65-2.47-1.3a9.9 9.9 0 0 1-3.12-3.14 15.68 15.68 0 0 1-2-5.64 32.2 32.2 0 0 1-.35-7.49 12.6 12.6 0 0 0 0-2.13 4.65 4.65 0 0 0-.82-2.1 22.66 22.66 0 0 0-1.45-1.79 15 15 0 0 1-1.34-1.89 16.28 16.28 0 0 1-2.26-9.61 15.91 15.91 0 0 1 4.27-10l.16-.16-.15-.17a8.89 8.89 0 0 1-2-6.34 13.06 13.06 0 0 1 2.36-6.66 20.67 20.67 0 0 1 5.5-5.1 63.79 63.79 0 0 1 6.92-3.83l.13-.06v-.14A21.62 21.62 0 0 1 204.82 91a22.26 22.26 0 0 1 16.8-3.82h.19l.13-.17.69-1a19.33 19.33 0 0 1 9.68-6.67 30 30 0 0 1 5.76-1.21 34.09 34.09 0 0 1 5.8-.1 35.13 35.13 0 0 1 5.65.82c1.84.4 3.64 1 5.51 1.31a14.21 14.21 0 0 0 2.83.22 16.92 16.92 0 0 0 2.78-.38c.9-.18 1.78-.39 2.65-.55a21.5 21.5 0 0 1 2.64-.28 21.22 21.22 0 0 1 5.17.43 23.49 23.49 0 0 1 4.79 1.62 26.46 26.46 0 0 1 12.87 13 16.71 16.71 0 0 0 2.09 3.8 13 13 0 0 0 3.26 2.61 24.49 24.49 0 0 1 3.21 2.2 16.26 16.26 0 0 1 5.31 8.74 21.27 21.27 0 0 1 .35 5.82 28.87 28.87 0 0 0 .1 5 9.38 9.38 0 0 0 1.31 3.75c.63 1 1.26 1.73 1.72 2.36a12.48 12.48 0 0 1 1 1.5c.16.39.23.58.24.57z" style="fill:#455a64;transform-origin:242.653px 125.082px" id="ela5dz5gnhur5" class="animable"/><path d="M231 82.22s.52-.32 1.49-.82a13.67 13.67 0 0 1 4.39-1.4 13 13 0 0 1 6.65.78 13.09 13.09 0 0 1 6.18 5.22 10.77 10.77 0 0 1 1.07 2.22 2.52 2.52 0 0 1-.09 2.11l-.48.69.81-.25a8.43 8.43 0 0 1 6.26.56A8 8 0 0 1 260.8 95a8.8 8.8 0 0 1 .88 3.26c.05.8 0 1.24 0 1.24s0-.1.08-.31a5 5 0 0 0 .08-.93 8.13 8.13 0 0 0-.74-3.42 8.22 8.22 0 0 0-3.62-3.88 8.9 8.9 0 0 0-6.68-.68l.34.44a3 3 0 0 0 .17-2.6 11.08 11.08 0 0 0-1.12-2.36 13.34 13.34 0 0 0-6.49-5.44 13 13 0 0 0-6.93-.69 12.76 12.76 0 0 0-4.41 1.61 9.15 9.15 0 0 0-1.05.71c-.19.15-.31.25-.31.27z" style="fill:#455a64;transform-origin:246.42px 89.4692px" id="el7vpqz0z8xmm" class="animable"/><path d="M198.94 106s.22.29.72.7a13.34 13.34 0 0 0 2.33 1.5 9.65 9.65 0 0 0 4 1.09 7.29 7.29 0 0 0 5-1.63l-.45-.06.61.8c.23.26.48.51.71.77a12.24 12.24 0 0 0 5.13 3 12.67 12.67 0 0 0 4.82.47 11.62 11.62 0 0 0 3.16-.8 3.91 3.91 0 0 0 1-.59 16.94 16.94 0 0 1-4.23 1 12.67 12.67 0 0 1-4.62-.57 12 12 0 0 1-4.86-2.86c-.22-.24-.46-.47-.67-.72l-.58-.75-.21-.27-.24.21a6.83 6.83 0 0 1-4.56 1.55 9.65 9.65 0 0 1-3.89-.92c-2.03-1.08-3.11-2.03-3.17-1.92z" style="fill:#455a64;transform-origin:212.455px 109.344px" id="el6x9leseybxy" class="animable"/><path d="M188.79 124.74s0 .13.06.37a3.64 3.64 0 0 0 .48 1 5.37 5.37 0 0 0 3.31 2.05 10.41 10.41 0 0 0 5.74-.78c1-.39 2.07-.78 3.15-1.32a5.53 5.53 0 0 0 2.71-2.59l.12-.32-.47.16a23.34 23.34 0 0 0 6.08 3.38 10.51 10.51 0 0 0 5.68.43 7.69 7.69 0 0 0 3.44-1.66 5 5 0 0 0 .71-.76 1 1 0 0 0 .19-.31c-.05 0-.35.36-1.05.89a7.89 7.89 0 0 1-3.38 1.43 10.36 10.36 0 0 1-5.41-.54 23.44 23.44 0 0 1-5.9-3.35l-.33-.24-.14.4-.1.27a5 5 0 0 1-2.43 2.29c-1 .52-2.08.93-3.07 1.33a10.31 10.31 0 0 1-5.46.87 5.34 5.34 0 0 1-3.2-1.77 9.71 9.71 0 0 1-.73-1.23z" style="fill:#455a64;transform-origin:204.39px 125.426px" id="elqz6xk95pahq" class="animable"/><path d="M257.33 188.69c.48-.32 2.48 3 6.75 3.63s7.6-1.8 7.91-1.35c.17.18-.41 1.11-1.89 2a9.76 9.76 0 0 1-6.49 1.32 8.42 8.42 0 0 1-5.44-3.17c-.96-1.27-1.08-2.31-.84-2.43z" style="fill:#263238;transform-origin:264.621px 191.531px" id="elfg9rw897y9" class="animable"/><path d="M206.51 209.52a7.81 7.81 0 0 1-5.83-12.89l.76.65a6.69 6.69 0 1 0 5.07-2.35v-1a7.8 7.8 0 0 1 0 15.59z" style="fill:#455a64;transform-origin:206.416px 201.725px" id="eliezk65u524" class="animable"/><path d="M309.58 376.74c1.8 0 66-12.89 66-12.89s-17.5-99.18-51-104.59l-19.48 80.65 2.24 36.83z" style="fill:#455a64;transform-origin:340.34px 318px" id="elgbs33gjhken" class="animable"/><path d="M336.53 377.92c7.62-39.2-3.89-63.12-3.89-63.12l-8.1-55.54-44.16-9s-7.24 13.33-34.16 13c-14-.2-32.06-23.45-32.06-23.45l-39.73 10.49 9.12 153.06s-11.27 42.86-24.24 79.8l182.57.49c-3.17-18.78-16.25-76.83-16.25-76.83 3.58-8.88 9.98-20.91 10.9-28.9z" style="fill:#455a64;transform-origin:250.595px 361.73px" id="eln85q3pa9xpp" class="animable"/><g style="opacity:.3;transform-origin:302.81px 424.87px" class="animable" id="eleh0mj2a8ju5"><path id="elxy6n539f188" class="animable" style="transform-origin:302.81px 424.87px" d="m274.64 421.62 1.9 9.24h54.44l-2.64-11.98-53.7 2.74z"/></g><path d="M317.73 283.61a1.71 1.71 0 0 1 .15.29l.4.86 1.48 3.33c1.3 2.89 3.23 7 5.63 12.16s5.24 11.25 8 18.23c1.35 3.49 2.66 7.21 3.75 11.15a67.89 67.89 0 0 1 2.15 12.44 122.63 122.63 0 0 1-.5 24.35A152.76 152.76 0 0 1 335.3 386a92.33 92.33 0 0 1-4 12.8c-.55 1.49-1.12 2.59-1.47 3.34-.17.35-.31.64-.42.85s-.15.29-.15.29a.91.91 0 0 1 .11-.31l.36-.87c.33-.77.86-1.88 1.38-3.37a99.44 99.44 0 0 0 3.84-12.81 158 158 0 0 0 3.34-19.56 125.74 125.74 0 0 0 .45-24.25 68.74 68.74 0 0 0-2.12-12.36c-1.08-3.91-2.37-7.62-3.7-11.11-2.7-7-5.52-13.09-7.86-18.24s-4.24-9.33-5.47-12.24c-.63-1.45-1.09-2.59-1.4-3.37l-.35-.88a1.82 1.82 0 0 1-.11-.3z" style="fill:#263238;transform-origin:328.701px 343.445px" id="elsqdsuxna8i" class="animable"/><path d="M139.57 370.61s-4 11.33 24.9 8.95 36.93-20.48 36.93-20.48l-5.73-22-36.91-8.6-15.43 12.68z" style="fill:#455a64;transform-origin:170.391px 354.184px" id="el4tgvzm6p4af" class="animable"/><g style="opacity:.3;transform-origin:170.391px 354.184px" class="animable" id="eli70axj80yrf"><path d="M139.57 370.61s-4 11.33 24.9 8.95 36.93-20.48 36.93-20.48l-5.73-22-36.91-8.6-15.43 12.68z" id="elz0m3cffyuco" class="animable" style="transform-origin:170.391px 354.184px"/></g><g style="opacity:.3;transform-origin:227.294px 348.631px" class="animable" id="elwn2ryfluub"><path d="M275 263c-2.73-3.21-9.57-1.85-9.15 2.36L177.4 423.85c13.6 8.07 29.81 16 44.49 10.19 14.25-5.68 20.87-22 25.63-36.71 12.88-39.88 23.23-80.67 29.23-122.18.6-4.15 1.01-8.96-1.75-12.15z" id="el27q6rhvf41u" class="animable" style="transform-origin:227.294px 348.631px"/></g><path d="M139.78 317.37c0 2 25.13 75.18 30.75 91 7.43 21 40.16 33.29 57.2 9.3 18.49-26 46.71-137.3 46.71-137.3l-25.68-10.55-45.54 92.07-24.54-94.09z" style="fill:#ffbf9d;transform-origin:207.11px 349.31px" id="el612vvev3fll" class="animable"/><path d="M273.49 285.35s6.5-13 6.88-13.64c.09-.15-.3-.42-.12-.28a3.47 3.47 0 0 0 4.05-.15c3-2.19 8.17-5.49 9.13-7.92a9.42 9.42 0 0 0 3.94-7c.42-4.86 1-16 1-16s4.93-1.8 4.58-6-6.9-3.18-6.9-3.18-1.17-5-4.8-6.09-16.58-.8-16.58-.8-.41-17.12-.67-24.22a25.09 25.09 0 0 0-2.67-11.23 3.34 3.34 0 0 0-6.28 1.22 41.34 41.34 0 0 0 .11 8.55c1 10-4.95 28.63-5.52 29.26s-7 6.31-6.72 13-2.9 26.61-7.55 36.28" style="fill:#ffbf9d;transform-origin:274.169px 236.202px" id="elcimp72u81oa" class="animable"/><path d="M245.39 277.09s.07-.2.22-.56.4-.91.68-1.63c.55-1.45 1.33-3.61 2.12-6.45s1.63-6.35 2.4-10.46a120.41 120.41 0 0 0 1.88-14.08c0-.66.07-1.32.07-2v-2.06a13.07 13.07 0 0 1 1-4.16 23.34 23.34 0 0 1 5.13-7.39l.41-.41.2-.2.11-.22c.14-.32.28-.7.41-1.07.26-.73.5-1.49.74-2.25q.71-2.29 1.34-4.69c.83-3.19 1.59-6.5 2.16-9.93a47.12 47.12 0 0 0 .71-10.6c-.16-1.81-.32-3.67-.31-5.54 0-.94 0-1.88.11-2.83a4.1 4.1 0 0 1 1.06-2.74 3.7 3.7 0 0 1 2.79-1.05 3.58 3.58 0 0 1 2.65 1.42 18.46 18.46 0 0 1 2.19 5.49 30.8 30.8 0 0 1 .81 5.91l.18 6c.17 6.35.34 12.59.5 18.65l-.26-.25c4.31-.06 8.54-.05 12.67.25a29.07 29.07 0 0 1 3.08.37 5.81 5.81 0 0 1 2.85 1.27 10.5 10.5 0 0 1 3 5.2l-.28-.18a10.81 10.81 0 0 1 4.39.24 4.36 4.36 0 0 1 1.91 1.12 3.66 3.66 0 0 1 .87 2 5.31 5.31 0 0 1-.28 2.13 6.31 6.31 0 0 1-1.08 1.82 9.17 9.17 0 0 1-3.37 2.3l.15-.19q-.45 6.76-.85 12.85c-.06 1-.13 2-.19 3a11.15 11.15 0 0 1-.64 2.88 9.43 9.43 0 0 1-3.42 4.41l.08-.08a9.27 9.27 0 0 1-2.36 2.87c-.9.8-1.83 1.5-2.73 2.18s-1.81 1.29-2.68 1.9l-1.28.9a4.26 4.26 0 0 1-1.37.71 3.38 3.38 0 0 1-2.87-.37l-.15-.1c-.09.2.23-.24.17-.2l.07.07a.55.55 0 0 1 .11.2.23.23 0 0 1 0 .18v.08l-.3.6-.59 1.15-2.1 4.12c-1.26 2.45-2.24 4.36-2.92 5.67l-.76 1.47c-.18.33-.28.49-.28.49s.07-.18.23-.51l.72-1.49 2.84-5.73 2.06-4.14.58-1.16.3-.6s0-.07.06-.06l-.06-.09-.05-.05c-.06 0 .25-.42.16-.21l.14.1a3.12 3.12 0 0 0 2.63.31 3.91 3.91 0 0 0 1.29-.68l1.28-.91c.86-.61 1.75-1.24 2.65-1.91s1.82-1.39 2.7-2.18a8.67 8.67 0 0 0 2.25-2.75v-.05a9.17 9.17 0 0 0 3.24-4.24c.7-1.75.63-3.76.79-5.78q.38-6.08.8-12.85v-.14h.14a8.64 8.64 0 0 0 3.17-2.2 5.34 5.34 0 0 0 1-1.67 4.82 4.82 0 0 0 .24-1.93 3.13 3.13 0 0 0-.74-1.76 3.79 3.79 0 0 0-1.71-1 10.06 10.06 0 0 0-4.17-.22h-.21l-.06-.22a10.07 10.07 0 0 0-2.88-4.93c-1.47-1.31-3.64-1.3-5.65-1.52-4.09-.29-8.32-.3-12.62-.24h-.25v-.26c-.17-6.06-.34-12.29-.51-18.65-.16-4 0-8-1-11.79a18.3 18.3 0 0 0-2.1-5.31 3 3 0 0 0-2.27-1.21 3.17 3.17 0 0 0-2.4.89 3.53 3.53 0 0 0-.91 2.43c-.08.92-.12 1.85-.11 2.78 0 1.85.14 3.68.29 5.5a46.83 46.83 0 0 1-.73 10.72c-.58 3.45-1.34 6.77-2.19 10-.42 1.6-.88 3.17-1.35 4.7-.25.77-.49 1.53-.76 2.27-.13.38-.27.74-.44 1.13a2.91 2.91 0 0 1-.17.3l-.21.22-.41.41a23 23 0 0 0-5.07 7.23 12.67 12.67 0 0 0-1 4v2c0 .64 0 1.35-.07 2a121.1 121.1 0 0 1-2 14.11c-.81 4.12-1.68 7.63-2.5 10.47a67 67 0 0 1-2.21 6.43c-.3.71-.56 1.24-.73 1.61s-.17.62-.17.62z" style="fill:#ff9a6c;transform-origin:274.292px 236.032px" id="elry7kjpsmrv" class="animable"/><path d="M291.75 264.53a2.36 2.36 0 0 1 .25-.53c.19-.38.44-.86.73-1.45a24.46 24.46 0 0 0 2.15-5.52 11.56 11.56 0 0 0 .23-4 8 8 0 0 0-1.71-4.21 11.61 11.61 0 0 0-4.19-2.87c-1.63-.77-3.37-1.47-5.17-2.13s-3.59-1.24-5.31-1.82a44.37 44.37 0 0 0-5-1.43c-3.22-.7-6.33-.49-8.5.75a8.14 8.14 0 0 0-3.91 4.21 9.82 9.82 0 0 0-.44 2.11 2.74 2.74 0 0 1 0-.57 6.06 6.06 0 0 1 .28-1.61A8.11 8.11 0 0 1 265 241a9.74 9.74 0 0 1 4-1.22 16.39 16.39 0 0 1 4.78.32 43.42 43.42 0 0 1 5.06 1.42c1.73.57 3.51 1.15 5.33 1.81s3.56 1.37 5.21 2.16a11.84 11.84 0 0 1 4.34 3 8.4 8.4 0 0 1 1.77 4.46 11.93 11.93 0 0 1-.3 4.16 22.84 22.84 0 0 1-2.33 5.53c-.34.62-.62 1.09-.82 1.41a1.83 1.83 0 0 1-.29.48z" style="fill:#ff9a6c;transform-origin:278.21px 252.129px" id="elwldi1rztshd" class="animable"/><path d="M274.44 283.46a2.12 2.12 0 0 1 .22-.53c.18-.39.42-.88.71-1.48s.7-1.42 1.12-2.34a17.22 17.22 0 0 0 1.13-3.22 19.13 19.13 0 0 0 .29-4.13 20.19 20.19 0 0 0-.63-4.72c-.73-3.3-2.12-6.81-2.7-10.78v-.22l.23-.06a6 6 0 0 0 1.08-.42 5.63 5.63 0 0 0 2.76-3.31l.18-.6.29.55a5.3 5.3 0 0 0 4.63 2.76h.39l-.16.35a9.92 9.92 0 0 0-.44 7.06l.06.21-.21.06a5.74 5.74 0 0 0-4.27 6.21 4.62 4.62 0 0 0 .86 2.09c.31.43.51.64.49.65s-.06 0-.17-.13-.24-.24-.42-.44a4.63 4.63 0 0 1-1-2.14 6 6 0 0 1 .62-3.64 6.08 6.08 0 0 1 3.78-3l-.15.27a10.26 10.26 0 0 1 .4-7.39l.22.34a5.8 5.8 0 0 1-5.09-3l.47-.05a6 6 0 0 1-3 3.63 5.83 5.83 0 0 1-1.19.46l.19-.28c.56 3.86 1.93 7.4 2.65 10.74a20.71 20.71 0 0 1 .58 4.82A18.67 18.67 0 0 1 278 276a15.89 15.89 0 0 1-1.23 3.26c-.44.92-.85 1.69-1.19 2.31s-.61 1.11-.8 1.44a3 3 0 0 1-.34.45z" style="fill:#ff9a6c;transform-origin:279.29px 267.555px" id="els775brtgpko" class="animable"/><path d="M297.07 242.57a13.22 13.22 0 0 0-.45-1.76 8.9 8.9 0 0 0-2.92-3.81 13.54 13.54 0 0 0-6.73-2.54c-2.73-.39-5.8-.25-9-.48a21.42 21.42 0 0 1-4.66-.81c-1.47-.44-2.82-1-4.15-1.34a7.9 7.9 0 0 0-3.8-.23 5.48 5.48 0 0 0-2.82 1.65 13.45 13.45 0 0 0-2.4 4.27 13.28 13.28 0 0 1-.65 1.7 2.65 2.65 0 0 1 .09-.46c.07-.3.2-.75.37-1.31a12.6 12.6 0 0 1 2.32-4.45 5.81 5.81 0 0 1 3-1.82 8.09 8.09 0 0 1 4 .19c1.37.35 2.74.88 4.18 1.31a20.8 20.8 0 0 0 4.55.78c3.18.23 6.27.1 9.06.52a13.7 13.7 0 0 1 6.89 2.73 8.74 8.74 0 0 1 2.88 4.09 7.09 7.09 0 0 1 .27 1.34 1.59 1.59 0 0 1-.03.43z" style="fill:#ff9a6c;transform-origin:278.297px 236.792px" id="eluh6frrg0k9q" class="animable"/><path d="M265.92 224.51a44.56 44.56 0 0 0 4.85.16c2.68-.18 4.73-1 4.79-.85a11.88 11.88 0 0 1-9.64.69z" style="fill:#ff9a6c;transform-origin:270.74px 224.511px" id="elt3jjzx3wgaa" class="animable"/><path d="M298.39 240.36c-.17 0-.31-2.2-1-4.79s-1.75-4.53-1.6-4.61a11.47 11.47 0 0 1 2.11 4.48 12.67 12.67 0 0 1 .49 4.92z" style="fill:#ff9a6c;transform-origin:297.113px 235.66px" id="elflmsndq4g9u" class="animable"/><path d="M139.57 370.61c0-1.24-9.67-66.81-.83-90.13 9-23.74 35.69-30.25 35.69-30.25l23.95 92.31a59 59 0 0 0-34.82 3.86c-15.36 6.78-23.99 24.21-23.99 24.21z" style="fill:#455a64;transform-origin:166.698px 310.42px" id="elxbd6eo6czi" class="animable"/><path d="M183.55 282.57c.14 0 3.57 13.36 7.67 29.92s7.3 30 7.16 30.05-3.58-13.36-7.67-29.92-7.3-30.02-7.16-30.05z" style="fill:#263238;transform-origin:190.965px 312.555px" id="el6w5m9ymj9kt" class="animable"/><path d="M196.2 394.36a7.12 7.12 0 0 1-.45-1.31 13.9 13.9 0 0 1-.42-1.58 21.29 21.29 0 0 1-.4-2.12c-.12-.79-.24-1.66-.29-2.6s-.07-1.95-.08-3a34.59 34.59 0 0 1 3-13.39c.46-1 .88-1.87 1.36-2.69s.93-1.56 1.37-2.23.89-1.24 1.27-1.75.74-.93 1-1.26a6.51 6.51 0 0 1 1-1c.08.07-1.26 1.52-3 4.2-.42.67-.88 1.41-1.3 2.24s-.86 1.72-1.3 2.67a35.9 35.9 0 0 0-3 13.21v3c0 1 .13 1.79.22 2.58.52 3.12 1.13 5.01 1.02 5.03z" style="fill:#ff9a6c;transform-origin:199.062px 377.895px" id="elqht8w2kzang" class="animable"/><path d="m420.53 323.61-89.31.58-14.13-14.09a13.18 13.18 0 0 0-9.32-3.87h-34.33a3.94 3.94 0 0 0-3.91 4.2l2.27 105.11a6.36 6.36 0 0 0 6.31 6.26l129.2.11A15.21 15.21 0 0 0 422.45 407l2-79.32a3.93 3.93 0 0 0-3.92-4.07z" style="fill:#ff725e;transform-origin:346.987px 364.07px" id="elt3rd6yxsxtm" class="animable"/><g style="opacity:.3;transform-origin:277.755px 364.39px" class="animable" id="eldhkrf05d7xi"><path d="m281 317.74-.53-1.51s-2.17-.22-3.35 7.32-4.08 89-4.08 89l9.43-92.35z" id="elrgynuxq4qi" class="animable" style="transform-origin:277.755px 364.39px"/></g><path d="m276.4 416 142.82-9.13a3.2 3.2 0 0 0 3-3l4.54-88.07a3.19 3.19 0 0 0-3.17-3.38H283.93a3.19 3.19 0 0 0-3.16 3L273 412.54a3.19 3.19 0 0 0 3.4 3.46z" style="fill:#fafafa;transform-origin:349.877px 364.214px" id="ellvowzwssy4b" class="animable"/><path d="M431.75 318.79h-139.3a6.46 6.46 0 0 0-6.37 5.57l-13.35 91.94 4.8 5.63h139.2a6.46 6.46 0 0 0 6.34-5.44l15-90.1a6.49 6.49 0 0 0-6.32-7.6z" style="fill:#ff725e;transform-origin:355.448px 370.36px" id="elgbh9yyhga2u" class="animable"/><path style="fill:#263238;transform-origin:311.33px 368.13px" id="elnmamyh3if3" class="animable" d="m316.35 369.16-.23-2.87-9.81.82.23 2.86 9.81-.81z"/><path style="fill:#263238;transform-origin:312.265px 379.645px" id="elyfjlb2lzsl" class="animable" d="m309.96 370.89 1.44 17.77 3.17-.26-1.44-17.77-3.17.26z"/><path style="fill:#263238;transform-origin:403.315px 360.47px" id="el2d88fmxi1w1" class="animable" d="m408.34 361.49-.24-2.86-9.81.82.23 2.86 9.82-.82z"/><path style="fill:#263238;transform-origin:404.25px 371.985px" id="elr7aop12p21" class="animable" d="m401.94 363.23 1.44 17.77 3.18-.26-1.45-17.77-3.17.26z"/><path d="M323.17 384.71c-.7-.14-1.16-.73-1.26-2l-1-11.79c-.1-1.25.26-1.9.93-2.16l-.26-3.15c-2.74.46-4.09 2.52-3.83 5.8l.93 11.35c.26 3.27 1.93 5.08 4.71 5.09z" style="fill:#263238;transform-origin:320.554px 376.73px" id="el9s1x4e9z1z" class="animable"/><path d="m322.73 365.53.25 3.16c.7.14 1.16.73 1.26 2l1 11.79c.1 1.25-.26 1.9-.92 2.16l.25 3.16c2.74-.47 4.09-2.53 3.83-5.8l-.92-11.36c-.31-3.29-1.98-5.1-4.75-5.11z" style="fill:#263238;transform-origin:325.581px 376.665px" id="elj7ghbzvthf" class="animable"/><path style="fill:#263238;transform-origin:331.275px 376.02px" id="elj7rj0yetk5g" class="animable" d="m331.83 364.98-2.89.24 1.77 21.84 2.9-.25-1.78-21.83z"/><path d="m333.61 364.83-.67.06.25 3.12.67-.06c1-.08 1.6.37 1.73 1.93l.27 3.28c.12 1.55-.39 2.1-1.4 2.18l-.67.06.26 3.12.67-.06c3.17-.26 4.58-2.29 4.29-5.79l-.23-2.84c-.28-3.49-1.99-5.26-5.17-5z" style="fill:#263238;transform-origin:335.994px 371.662px" id="el0ljghmtqbzx" class="animable"/><path style="fill:#263238;transform-origin:361.89px 373.31px" id="el498sbd8a9rm" class="animable" d="m363.51 371.61-3.49.29.25 3.11 3.49-.28-.25-3.12z"/><path style="fill:#263238;transform-origin:357.585px 373.83px" id="el11p24hahbu3m" class="animable" d="m358.16 362.79-2.93.24 1.77 21.84 2.94-.25-1.78-21.83z"/><path style="fill:#263238;transform-origin:361.705px 364.06px" id="elwaltm0vk7z" class="animable" d="m359.27 362.7.25 3.11 4.62-.38-.25-3.12-4.62.39z"/><path style="fill:#263238;transform-origin:363.225px 382.775px" id="elcp96xdrb9ek" class="animable" d="m361.04 384.53 4.62-.39-.25-3.12-4.62.39.25 3.12z"/><path d="M371.42 380.67c-.72-.12-1.19-.69-1.29-1.95l-1-11.79c-.1-1.27.27-1.92.95-2.17l-.25-3.16c-2.81.42-4.12 2.49-3.86 5.81l.93 11.35c.27 3.32 1.9 5.14 4.73 5.1z" style="fill:#263238;transform-origin:368.784px 372.73px" id="elabw9lqqoiqu" class="animable"/><path d="m371 361.53.25 3.15c.68.15 1.13.74 1.23 2l.19 2.34 3-.25-.18-2.12c-.27-3.26-1.82-5.07-4.49-5.12z" style="fill:#263238;transform-origin:373.335px 365.275px" id="ellrvo4kmpuq" class="animable"/><path d="M373.42 378.44c.1 1.23-.25 1.87-.9 2.13l.26 3.18c2.65-.5 3.89-2.55 3.63-5.78l-.24-2.9-3 .25z" style="fill:#263238;transform-origin:374.482px 379.41px" id="elheikizosm4" class="animable"/><path style="fill:#263238;transform-origin:379.225px 372.025px" id="elk5kgyhukb9b" class="animable" d="m379.68 361-2.69.22 1.77 21.83 2.7-.22-1.78-21.83z"/><path d="m388.07 379.61-.27-3.37c-.19-2.28-.84-3.89-2.49-4.47 1.36-.84 1.91-2.36 1.72-4.6l-.14-1.72c-.27-3.37-1.82-4.9-5.11-4.63l-1 .08.26 3.12.9-.07c1.12-.1 1.67.55 1.8 2.11l.17 2.15c.14 1.75-.53 2.37-1.72 2.47l-.61.05.25 3.12h.47c1.45-.12 2.14.57 2.31 2.6l.28 3.43a7.18 7.18 0 0 0 .5 2.66l3.24-.27a6.84 6.84 0 0 1-.56-2.66z" style="fill:#263238;transform-origin:384.705px 371.665px" id="el1bqerfousee" class="animable"/><path style="fill:#263238;transform-origin:390.95px 371.05px" id="elcx4aunsruk" class="animable" d="m391.53 360.01-2.94.24 1.78 21.84 2.94-.25-1.78-21.83z"/><path style="fill:#263238;transform-origin:395.26px 370.535px" id="elrn71tmzt7c" class="animable" d="m396.87 368.83-3.48.29.25 3.12 3.49-.29-.26-3.12z"/><path style="fill:#263238;transform-origin:396.595px 380px" id="elknt4998dr9r" class="animable" d="m394.42 381.75 4.61-.38-.26-3.12-4.61.38.26 3.12z"/><path style="fill:#263238;transform-origin:395.075px 361.285px" id="elivm3dfwdg5" class="animable" d="m392.64 359.92.25 3.12 4.62-.39-.26-3.12-4.61.39z"/><path d="M349.72 382.51c-.78-.08-1.3-.64-1.41-2l-.13-1.56-3 .25.11 1.35c.27 3.29 1.88 5.11 4.68 5.09z" style="fill:#263238;transform-origin:347.575px 382.295px" id="ely2yw2qa6uso" class="animable"/><path d="M349.53 366.46c.71.13 1.15.72 1.26 2l.07.9 3-.25-.05-.68c-.27-3.26-1.82-5.08-4.54-5.1z" style="fill:#263238;transform-origin:351.565px 366.345px" id="elm4ovq7v655a" class="animable"/><path d="M347.61 368.72c-.1-1.21.2-1.86.81-2.13l-.25-3.18c-2.72.46-4 2.51-3.71 5.79.5 6.24 6.78 6.57 7.14 11.06.1 1.16-.21 1.79-.78 2.08l.26 3.22c2.68-.48 3.94-2.53 3.68-5.78-.51-6.24-6.76-6.57-7.15-11.06z" style="fill:#263238;transform-origin:349.607px 374.485px" id="elpnp3kbcjfv" class="animable"/><path d="M303.16 398.25a3.81 3.81 0 0 1-2.49-.92 3.88 3.88 0 0 1-1.38-2.69l-2.57-31.7a3.92 3.92 0 0 1 3.55-4.24l111-9.25a3.84 3.84 0 0 1 2.82.91 4 4 0 0 1 1.38 2.69l2.57 31.7a3.92 3.92 0 0 1-3.55 4.25l-110.95 9.24zm108.39-47.81h-.24l-110.95 9.24a2.93 2.93 0 0 0-2.65 3.17l2.58 31.7a2.9 2.9 0 0 0 1 2 2.85 2.85 0 0 0 2.09.67l111-9.24a2.92 2.92 0 0 0 2.65-3.16l-2.58-31.71a2.91 2.91 0 0 0-1-2 2.85 2.85 0 0 0-1.9-.67z" style="fill:#263238;transform-origin:357.38px 373.843px" id="elul5ye72qo5a" class="animable"/><path style="fill:#fafafa;transform-origin:401.4px 338.145px" id="el2af0yz8qn6r" class="animable" d="m420.11 320.19 2.7 32.48-40.12 3.43-2.7-32.48 40.12-3.43z"/><path d="M420.11 320.19h-.2l-.56.06-2.18.2-8.21.73-29 2.52.09-.11c.81 9.67 1.74 20.75 2.72 32.48l-.13-.11 40.12-3.41-.08.11c-.8-9.78-1.46-17.89-1.92-23.56-.22-2.84-.4-5.07-.52-6.59-.06-.76-.1-1.34-.13-1.74s0-.6 0-.6 0 .19.05.58.09 1 .16 1.72c.13 1.52.32 3.73.57 6.56.49 5.68 1.18 13.81 2 23.61v.1h-.1l-40.12 3.45h-.11v-.12c-1-11.73-1.9-22.81-2.7-32.48v-.11h.14l29-2.43 8.19-.67 2.16-.17h.55z" style="fill:#263238;transform-origin:401.375px 338.18px" id="eltyj0xrylvih" class="animable"/><path style="fill:#455a64;transform-origin:401.375px 338.15px" id="elumzvi4v1lgq" class="animable" d="m383.91 353.94 37.3-3.19-2.37-28.39-37.3 3.19 2.37 28.39z"/><g style="opacity:.3;transform-origin:402.56px 344.56px" class="animable" id="el03bp9psoxx59"><path id="elgvmlwvfvobm" class="animable" style="transform-origin:402.56px 344.56px" d="m383.91 353.94 11.55-18.76 8.99 10.35 4.99-6.37 11.77 11.59-37.3 3.19z"/></g><g style="opacity:.3;transform-origin:403.79px 332.245px" class="animable" id="elsz6rsta8oxh"><path d="M406.78 332a3 3 0 0 1-2.69 3.23 3 3 0 1 1 2.69-3.23z" id="eln7258tq7qve" class="animable" style="transform-origin:403.79px 332.245px"/></g><path d="M403.6 330a3.15 3.15 0 0 1-3.13-3.17v-6.72h1.2v6.72a1.93 1.93 0 1 0 3.85 0v-9.12a3.82 3.82 0 1 0-7.63 0v1.21h-1.21v-1.21a5 5 0 1 1 10 0v9.12a3.15 3.15 0 0 1-3.08 3.17z" style="fill:#e0e0e0;transform-origin:401.68px 321.355px" id="elcs9g7se4bda" class="animable"/><path d="M403.6 330s.21 0 .59-.08a3.05 3.05 0 0 0 1.51-.8 3.18 3.18 0 0 0 1-2.49v-8.3a6.07 6.07 0 0 0-.37-2.48 5 5 0 0 0-1.61-2.12 4.88 4.88 0 0 0-5.47-.31 4.94 4.94 0 0 0-2 2.31 5.06 5.06 0 0 0-.39 1.54v1.65l-.1-.1h1.21l-.11.1a14 14 0 0 1 .07-1.93 4 4 0 0 1 .83-1.8 3.9 3.9 0 0 1 6.65 1 4.71 4.71 0 0 1 .29 1.92V320c0 2.51 0 4.9-.05 7.25a2.07 2.07 0 0 1-1.06 1.38 2 2 0 0 1-1.69.06 2.05 2.05 0 0 1-1.12-1.21 5.17 5.17 0 0 1-.11-1.6v-5.79l.07.08h-1.2l.07-.07v6.87a3.16 3.16 0 0 0 2.28 2.9 6.29 6.29 0 0 0 .8.13 2.75 2.75 0 0 1-.81-.09 3.14 3.14 0 0 1-1.85-1.34 3.1 3.1 0 0 1-.51-1.6V320h1.36v5.87a5.6 5.6 0 0 0 .11 1.54 1.84 1.84 0 0 0 1 1.1 1.82 1.82 0 0 0 1.53-.06 1.88 1.88 0 0 0 1-1.25c.08-2.27 0-4.72 0-7.21v-1.89a4.26 4.26 0 0 0-.28-1.84 3.68 3.68 0 0 0-6.29-1 3.83 3.83 0 0 0-.79 1.71 13.17 13.17 0 0 0-.06 1.89v.14h-1.4v-1.77a5.53 5.53 0 0 1 .41-1.61 5.14 5.14 0 0 1 2.09-2.39 5.07 5.07 0 0 1 5.68.33 5.17 5.17 0 0 1 1.65 2.19 6.18 6.18 0 0 1 .37 2.55v8.3a3.24 3.24 0 0 1-1 2.54 3.15 3.15 0 0 1-1.55.79 2.71 2.71 0 0 1-.75.07z" style="fill:#263238;transform-origin:401.807px 321.259px" id="el5e0nrrccaqu" class="animable"/><g style="opacity:.3;transform-origin:421.954px 373.5px" class="animable" id="eltmy64jk9px"><path d="M417 346.87a7.61 7.61 0 0 0 2.9 6.51c2.48 1.88 6 2.1 8.16 4.37a7.47 7.47 0 0 1 1.48 6.86 13.71 13.71 0 0 1-3.81 6.13c-1.72 1.71-3.68 3.15-5.51 4.75a29.67 29.67 0 0 0-6.66 8 44.83 44.83 0 0 0-2.24 5q-1.11 2.75-2.2 5.49c-.63 1.56-1.19 3.52-.07 4.75a4.44 4.44 0 0 0 3.1 1.06c4.8.34 9.68.68 14.38-.34 0-.82.05-1.65.07-2.47 0 0 8-28.23 8-28s.9-17.85.9-17.85z" id="elj53skyjvqc" class="animable" style="transform-origin:421.954px 373.5px"/></g><path d="M440.11 352.13s2.39-6.91-5.63-9.21c-5.22-1.5-21.37-4.67-18.87 3a7.45 7.45 0 0 0 6.4 4.84c3.77.44 6.95 3.48 6.95 3.48s2.54 2 2.2 4.38-.05 7.83-7.09 10.31-10.38 5.22-12.61 9.78c-2 4 .5 5.75.5 5.75s-4.32 3.33-3.59 6.5a5.31 5.31 0 0 1-.76 3.53 3.47 3.47 0 0 0 2.52 4.92l.35.07s21.37-.78 26.16-6.3 5.52-10.55 5.52-10.55 3.93-6.69-.51-10.6c1.63-7.67 0-11.56-3-13.83z" style="fill:#ffbf9d;transform-origin:425.516px 370.23px" id="elq1u38lvc4s" class="animable"/><path d="M412 384.5c0 .15 1.73 0 4.42-.59s6.37-1.61 10.34-2.79a23.12 23.12 0 0 0 5.61-2.16 21.93 21.93 0 0 0 3.89-3c2.06-1.95 2.69-3.72 2.51-3.76a25.69 25.69 0 0 1-3.05 3.15 20.5 20.5 0 0 1-9.27 4.67l-10.22 3.12c-2.66.74-4.3 1.19-4.23 1.36z" style="fill:#ff9a6c;transform-origin:425.399px 378.377px" id="elkima6owojqj" class="animable"/><path d="M408.92 393.42c0 .12 2.05.79 5.54.77a47.16 47.16 0 0 0 13.25-2.51l3.65-1.15a14.5 14.5 0 0 0 3.39-1.43 16.26 16.26 0 0 0 4.24-4.55c2-2.89 2.57-5.08 2.4-5.11s-.93 1.93-3.05 4.62a17.16 17.16 0 0 1-4.13 4.12c-1.83 1.05-4.38 1.55-6.83 2.39a58.58 58.58 0 0 1-12.95 2.8c-3.38.23-5.43-.14-5.51.05z" style="fill:#ff9a6c;transform-origin:425.169px 386.815px" id="el1mp0f8nnu96" class="animable"/><path d="M422.07 350.74c-.11.3 2.87 1.67 6.66 3.07a24.75 24.75 0 0 0 5 1.48c1.37.17 2.22-.07 2.2-.21s-.81-.24-2-.6-2.88-1.06-4.79-1.76c-3.8-1.4-6.96-2.28-7.07-1.98z" style="fill:#ff9a6c;transform-origin:428.999px 353.015px" id="elunikajmg338" class="animable"/><path d="M386.4 410.78V417h-1.21v-8.6h1.68l1.38 5.17v-5.17h1.19v8.6h-1.37z" style="fill:#fff;transform-origin:387.315px 412.7px" id="elhlw1pn4vu0w" class="animable"/><path d="M390.33 409.71a1.3 1.3 0 1 1 2.59 0v1.91a1.3 1.3 0 1 1-2.59 0zm2.59 3.79v.85h-2.59v-.85zm-1.73-1.83c0 .4.16.53.44.53s.44-.13.44-.53v-2c0-.39-.17-.53-.44-.53s-.44.14-.44.53z" style="fill:#fff;transform-origin:391.625px 411.323px" id="eljjyjfnim6r" class="animable"/><path d="M416.61 417c0 .15-5 .26-11.23.26s-11.22-.11-11.22-.26 5-.26 11.22-.26 11.23.16 11.23.26z" style="fill:#fff;transform-origin:405.385px 417px" id="elm9tp4qu0lv" class="animable"/></g><defs><filter id="active" height="200%"><feMorphology in="SourceAlpha" result="DILATED" operator="dilate" radius="2"/><feFlood flood-color="#32DFEC" flood-opacity="1" result="PINK"/><feComposite in="PINK" in2="DILATED" operator="in" result="OUTLINE"/><feMerge><feMergeNode in="OUTLINE"/><feMergeNode in="SourceGraphic"/></feMerge></filter><filter id="hover" height="200%"><feMorphology in="SourceAlpha" result="DILATED" operator="dilate" radius="2"/><feFlood flood-color="red" flood-opacity=".5" result="PINK"/><feComposite in="PINK" in2="DILATED" operator="in" result="OUTLINE"/><feMerge><feMergeNode in="OUTLINE"/><feMergeNode in="SourceGraphic"/></feMerge><feColorMatrix values="0 0 0 0 0 0 1 0 0 0 0 0 0 0 0 0 0 0 1 0"/></filter></defs></svg>