<svg class="animated" id="freepik_stories-wallet" xmlns="http://www.w3.org/2000/svg" viewBox="0 0 500 500" version="1.1"><style>@keyframes floating{0%,to{opacity:1;transform:translateY(0)}50%{transform:translateY(-10px)}}@keyframes heartbeat{0%,30%,40%,60%,to{transform:scale(1)}10%,50%{transform:scale(1.1)}}svg#freepik_stories-wallet:not(.animated) .animable{opacity:0}svg#freepik_stories-wallet.animated #freepik--speech-bubble--inject-33{animation:6s Infinite linear floating;animation-delay:0s}</style><g id="freepik--Floor--inject-33" class="animable" style="transform-origin:250px 345.6px"><ellipse id="freepik--floor--inject-33" cx="250" cy="345.6" rx="223.87" ry="137" style="fill:#f5f5f5;transform-origin:250px 345.6px" class="animable"/></g><g id="freepik--Plants--inject-33" class="animable" style="transform-origin:253.374px 249.137px"><g id="freepik--plants--inject-33" class="animable" style="transform-origin:51.4613px 249.137px"><path d="m64.78 277.92 8-4.35s4.23-20.8 1.78-38.82c-3.45-25.32-20.45-34.4-26.75-32s-7.92 9.82 3 24.65c6.51 8.73 14.68 27.1 13.97 50.52z" style="fill:#ba68c8;transform-origin:59.0828px 240.149px" id="elqjyjxl1uytp" class="animable"/><g style="opacity:.15;transform-origin:59.0828px 240.149px" class="animable" id="el7f22unc3uc"><path d="m64.78 277.92 8-4.35s4.23-20.8 1.78-38.82c-3.45-25.32-20.45-34.4-26.75-32s-7.92 9.82 3 24.65c6.51 8.73 14.68 27.1 13.97 50.52z" id="el6fo0d3dke5r" class="animable" style="transform-origin:59.0828px 240.149px"/></g><path d="M69.45 267.52h-.08a.56.56 0 0 1-.5-.62c2.54-23.73-7.75-49.32-18.75-59.43a.56.56 0 0 1 0-.79.57.57 0 0 1 .8 0C62.08 216.93 72.57 242.94 70 267a.56.56 0 0 1-.55.52z" style="fill:#fff;transform-origin:60.1745px 237.018px" id="el6alcnqslhwm" class="animable"/><path d="M46.3 295.64c-1.19.82-3.88-.55-4.91-1.13a11.94 11.94 0 0 1-4.3-4.23 11.17 11.17 0 0 1-1.51-6.62 26.2 26.2 0 0 1 .57-3.62c.24-1.17.49-2.35.73-3.53a8.75 8.75 0 0 0 .23-3.52c-.48-2.34-2.7-3.83-4.72-5.11-2.23-1.41-4.58-3.32-4.79-6.17a10 10 0 0 1 2-6.14c1.22-1.83 2.72-3.47 3.8-5.39a6.9 6.9 0 0 0 1.09-4.52 7.33 7.33 0 0 0-1.12-2.66c-1.15-1.77-2.6-3.36-3.45-5.3s-.94-4.41.51-6c1.18-1.26 3.06-1.57 4.79-1.59a11.22 11.22 0 0 1 4.68 1.25c4.7 2.16 7.69 7.31 12.63 8.87a48.38 48.38 0 0 0 5.9 1c2 .36 4 1.19 5 2.9 2 3.37-.9 7.95.63 11.58 1.35 3.22 4.65 4.23 6.68 7.07a7.1 7.1 0 0 1 1.2 4.22 20.79 20.79 0 0 1-1.26 7.43A58.87 58.87 0 0 1 68 280.5c-.07.08-21.52 15.02-21.7 15.14z" style="fill:#ba68c8;transform-origin:49.772px 263.002px" id="elaq3bmeon34k" class="animable"/><path d="M58.57 287.84a.56.56 0 0 1-.59-.54c-.8-22.38-13.21-46.19-21.4-52.76a.56.56 0 0 1 .7-.88c8.36 6.7 21 30.91 21.83 53.6a.57.57 0 0 1-.54.58z" style="fill:#fff;transform-origin:47.7398px 260.69px" id="el9c3nil5tp6k" class="animable"/><path d="M53.19 261.74a.33.33 0 0 1-.17 0 76.09 76.09 0 0 0-16.39-1.36.56.56 0 0 1-.58-.54.54.54 0 0 1 .54-.58 76.59 76.59 0 0 1 16.68 1.38.57.57 0 0 1 .42.68.54.54 0 0 1-.5.42z" style="fill:#fff;transform-origin:44.8764px 260.492px" id="elty4aadhz5s" class="animable"/></g><g id="freepik--plants--inject-33" class="animable" style="transform-origin:456.571px 249.576px"><path d="m448.79 290.84-9.3-5.89s-4.56-17.58-5.39-33.25c-1.17-22 7.28-50.32 24.93-46.74s-3.37 29.39-6 48.62-4.24 37.26-4.24 37.26z" style="fill:#ba68c8;transform-origin:450.007px 247.746px" id="el4cv906kjw0i" class="animable"/><path d="m448.79 290.84-9.3-5.89s-4.56-17.58-5.39-33.25c-1.17-22 7.28-50.32 24.93-46.74s-3.37 29.39-6 48.62-4.24 37.26-4.24 37.26z" style="opacity:.15;transform-origin:450.007px 247.746px" class="animable" id="els7nm7r018p8"/><path d="M443.55 289.33a.57.57 0 0 0 .46-.66c-9-48 11.33-75.85 11.53-76.13a.57.57 0 1 0-.91-.68c-.21.28-20.81 28.58-11.74 77a.57.57 0 0 0 .66.47z" style="fill:#fff;transform-origin:448.134px 250.465px" id="eli4qhsg7qe5k" class="animable"/><path d="m454 294.5-7-4s-3.07-12.89 1.11-30.53c3.63-15.35 16.29-29.56 24-28.15s8.28 6.61 5.55 12.57S454.9 267.13 454 294.5z" style="fill:#ba68c8;transform-origin:462.531px 263.112px" id="elcu5syw4h0qr" class="animable"/><path d="M450.63 293a.57.57 0 0 0 .48-.65c-4.77-30.46 20.71-55.41 21-55.66a.57.57 0 0 0 0-.81.58.58 0 0 0-.81 0c-.26.25-26.16 25.62-21.3 56.66a.57.57 0 0 0 .63.46z" style="fill:#fff;transform-origin:460.836px 264.36px" id="elwet5lva8l5b" class="animable"/></g></g><g id="freepik--Shadows--inject-33" class="animable" style="transform-origin:255.281px 359.676px"><ellipse id="freepik--Shadow--inject-33" cx="167.72" cy="372.71" rx="79.6" ry="45.96" style="fill:#e0e0e0;transform-origin:167.72px 372.71px" class="animable"/><path id="freepik--shadow--inject-33" d="M337.11 434.94a9.63 9.63 0 0 1-7-2.85L229.43 326.63a23.62 23.62 0 0 1-6.7-16.31 22.57 22.57 0 0 1 .23-3.18 23.35 23.35 0 0 1 11.69-16.87l3-1.73a34.67 34.67 0 0 1 32.82 0L411.64 370l7.49 4.27a5.56 5.56 0 0 1 0 10.17l-8.94 5.09a14.32 14.32 0 0 1-6.89 1.65 13.17 13.17 0 0 1-4.69-.8L277.76 343.2l72.5 75.92a6.68 6.68 0 0 1-1.61 10.75l-7 3.94a9.18 9.18 0 0 1-4.54 1.13z" style="fill:#e0e0e0;transform-origin:322.586px 359.676px" class="animable"/></g><g id="freepik--Character--inject-33" class="animable" style="transform-origin:165.532px 221.307px"><g id="freepik--character--inject-33" class="animable" style="transform-origin:165.532px 221.307px"><path d="M174.4 108.86c9.19-.62 13.64 2.37 17.59 7.14s22.55 38.18 22.55 38.18 38.59 1 45.94 3.32 11.51 6.47 13 9 1.86 5.65.86 9.77-6.61 3.26-9.62 0a39 39 0 0 0-9.51-7.46c-3.15-1.78-34.3.42-42.78.51s-10.07-3.43-15.27-10.47-16.43-23.45-16.43-23.45z" style="fill:#b16668;transform-origin:224.65px 143.913px" id="eli4ezi4wx4t" class="animable"/><path d="M171.64 108.72c8.26-.68 13.75-.17 18.49 4.39S211 146.57 211 146.57s-2.23 9.14-15.91 11.16L174.4 130z" style="fill:#455a64;transform-origin:191.32px 133.102px" id="elfmef31dqgwd" class="animable"/><g id="freepik--character--inject-33" class="animable" style="transform-origin:168.517px 221.307px"><g id="freepik--Botom--inject-33" class="animable" style="transform-origin:168.517px 286.056px"><path d="M129.29 362.73c3.47 2 7.39 2 11.65.34l2.82-22.86-14.76-3.38z" style="fill:#b16668;transform-origin:136.38px 350.553px" id="elm4558fjbym" class="animable"/><path d="M172.56 350.3c2.79 6.55 6.87 4.41 13.07.46l.41-22.58-16-1.1z" style="fill:#b16668;transform-origin:178.04px 340.786px" id="el1bi416nbnky" class="animable"/><path d="M154.23 383.88c.38.37.22 3.22-.23 3.88s-3 2.87-7.79 3.07c-4.57.2-8.63-.54-11.26-2.32s-3.88-3.7-4-6.31.19-5.11-1-7.15c-1.09-1.88-2.57-3.73-2.93-4.74-.8-2.21-.16-5.59-.16-5.59z" style="fill:#263238;transform-origin:140.53px 377.791px" id="elid41zgdw5z9" class="animable"/><path d="M142.6 362.11a12.35 12.35 0 0 0 .47 2.91 26.11 26.11 0 0 0 2.63 5.8 23.79 23.79 0 0 0 1.82 2.75c1.34 1.68 3 3.08 4.43 4.7a9.36 9.36 0 0 1 2.65 5.73c.09 3.59-3.84 4.69-6.85 5.13a22 22 0 0 1-9.71-.77 8.93 8.93 0 0 1-6.33-7.34c-.14-1-.05-2-.14-3a14.12 14.12 0 0 0-2.59-6.35 18.53 18.53 0 0 1-2-3.48c-.87-2.24 0-4.71.62-6.9.57-1.9 1-4.17 1.67-4v1.22c.2.43.69.72.81 1.21a8.7 8.7 0 0 0 .5 1.49 3.92 3.92 0 0 0 1.54 1.8c.08-1.35.17-2.7.25-4.05a1.43 1.43 0 0 1 1.51-1.65 25.45 25.45 0 0 1 7.68-.4 1.45 1.45 0 0 1 1 .48 1.5 1.5 0 0 1 .14.92 35.07 35.07 0 0 0-.1 3.8z" style="fill:#37474f;transform-origin:140.607px 373.071px" id="elh9xlvwppypw" class="animable"/><path d="M146.16 371.59c-1.31-1-4.29-1.14-5.93-1a9.76 9.76 0 0 0-4.69 1.49 1.08 1.08 0 0 1-1.37-.15 1 1 0 0 1 .15-1.52 10.12 10.12 0 0 1 5.28-1.78c4-.16 5.19.56 5.19.56s1.8 1.22 1.37 2.4z" style="fill:#f5f5f5;transform-origin:140.057px 370.433px" id="el99foxra4zt8" class="animable"/><path d="M149.12 375.35c-1.65-1-4.94-1-6.58-.87a9.4 9.4 0 0 0-4.57 1.58 1.05 1.05 0 0 1-1.36-.14 1 1 0 0 1 .14-1.52 10.34 10.34 0 0 1 5.4-1.93c4-.17 5.06.68 5.06.68a3.35 3.35 0 0 1 1.91 2.2z" style="fill:#f5f5f5;transform-origin:142.722px 374.347px" id="el2h8i9t9hb9m" class="animable"/><path d="M138.12 364.72a9.94 9.94 0 0 1 5 .58c.69.42 1.13 1.55.66 1.82a9.29 9.29 0 0 0-4.46-.75 13.24 13.24 0 0 0-4.38 1.07c-.35.14-.77.34-1.13.53a1 1 0 0 1-1.31-.45.9.9 0 0 1 .38-1.14 13 13 0 0 1 5.24-1.66z" style="fill:#f5f5f5;transform-origin:138.201px 366.342px" id="el9qlhhs56eyv" class="animable"/><path d="M210.16 365.31a4.35 4.35 0 0 1-.27 3.18c-.48.92-5.43 3.52-12 2.88a27.34 27.34 0 0 1-13.45-5.15c-2.45-1.73-5-2.12-8.3-2.4s-7.47-2-8.14-3.58.23-4.14.23-4.14z" style="fill:#263238;transform-origin:189.047px 363.785px" id="elk40vwd9q2b" class="animable"/><path d="m184.19 345.17 1.73-.57a1.42 1.42 0 0 1 1-.09c.42.17.57.67.66 1.11a17 17 0 0 0 .64 2.88 7 7 0 0 0 1.78 2 30.31 30.31 0 0 0 5.16 3.55c2.11 1.21 4.19 2.17 6.38 3.23s5.21 1.8 6.94 3c2.53 1.82 2.73 6.2-.26 7.83-2.57 1.41-9.29 2.83-16.23.64-3.77-1.19-7.88-5.39-12.87-5.93-3.17-.34-9.16-1.42-11.14-3.89-.72-1.1.39-4.46 1.31-7.37 1-3.17 1.51-8.3 2.56-8 .17 1.7.93 1.85 1.46 2.76a19.33 19.33 0 0 1 1.07 2.57 4.54 4.54 0 0 0 1.59 2.24 2.11 2.11 0 0 0 2.58-.07c1-.94.46-2.65 1.18-3.79a3.93 3.93 0 0 1 2.28-1.4z" style="fill:#37474f;transform-origin:189.085px 356.715px" id="el70czh9aehty" class="animable"/><path d="M192.21 352.22a2.93 2.93 0 0 0-2.3-1.64c-1.44-.32-4 .67-5.65 1.94a1.18 1.18 0 0 0 .11 2 1.18 1.18 0 0 0 1.36-.11 9.09 9.09 0 0 1 6.48-2.19z" style="fill:#f5f5f5;transform-origin:187.984px 352.602px" id="ella28t2lixta" class="animable"/><path d="M196.62 354.86a3.38 3.38 0 0 0-2.74-1.51s-3.78 0-6.18 2.1a1.16 1.16 0 0 0 .1 1.9 1.13 1.13 0 0 0 1.31-.11 9.11 9.11 0 0 1 7.51-2.38z" style="fill:#f5f5f5;transform-origin:191.936px 355.43px" id="elvl80kcuev89" class="animable"/><path d="M201.51 357.27a3.84 3.84 0 0 0-2.85-1.38 10.19 10.19 0 0 0-5.93 2.14 1.16 1.16 0 0 0 .1 1.9 1.13 1.13 0 0 0 1.31-.11 8.71 8.71 0 0 1 7.37-2.55z" style="fill:#f5f5f5;transform-origin:196.896px 357.99px" id="elxlp4khyj5n" class="animable"/><path d="M134.67 186.34c-1.57 25.06-4.12 87.77-4.12 87.77-.35 3.11-1.5 12.3-2.07 23.53-.83 16.29.47 52.25.47 52.25s6.68 3.86 13.9 1.1c0 0 9.27-53 12.23-69 2.61-14.06 7.68-48 7.68-48l2.38 41.68a133 133 0 0 0 .55 22.4c.93 7.43 5.18 39.68 5.18 39.68a28.57 28.57 0 0 0 15.17-.14s2.22-54.08 2.55-60.93c.38-7.8 2-95.43 2-95.43z" style="fill:#455a64;transform-origin:159.397px 266.617px" id="elyhx5qwo8bpg" class="animable"/><path d="m162.76 234.05 4.32-20.44s10.31-.59 16.16-6.16c0 0-1.17 5.59-14.2 8.58l-4.33 20.69-.43 19.28z" style="fill:#263238;transform-origin:173px 231.725px" id="elafonm2gjcj5" class="animable"/></g><path d="M139.4 111.77c-4.92.87-5.25 3.31-6.33 8.2-.53 2.42-1.73 7.64-1.25 12l2.53 29.1-1 33.06c7.93 8.63 40.47 11.37 57.78-1.27 0 0-.19-54.64-1-63.41-1.39-15.32-8.34-20.76-18.53-20.73l-17.44 1.49z" style="fill:#ba68c8;transform-origin:161.419px 155.1px" id="ellsk3u9quk5h" class="animable"/><path d="M139.4 111.77c-4.92.87-5.25 3.31-6.33 8.2-.53 2.42-1.73 7.64-1.25 12l2.53 29.1-1 33.06c7.93 8.63 40.47 11.37 57.78-1.27 0 0-.19-54.64-1-63.41-1.39-15.32-8.34-20.76-18.53-20.73l-17.44 1.49z" style="fill:#fff;opacity:.5;transform-origin:161.419px 155.1px" class="animable" id="elni57q71gwc"/><path d="M157.83 73a15.48 15.48 0 1 0 15.42-15.53A15.48 15.48 0 0 0 157.83 73z" style="fill:#263238;transform-origin:173.31px 72.9499px" id="el6sr3rtlap1w" class="animable"/><path d="m153 76.07-3.3-8.88a5.81 5.81 0 0 0-4.8 1.71c-2.06 2.12-.89 8.72 1.71 15.19 0 0 2.55 11.77 3.56 13.71a5.32 5.32 0 0 0 3.09 2.47z" style="fill:#263238;transform-origin:148.553px 83.7119px" id="elr6z89ng58fh" class="animable"/><path d="M152.73 84.61c-.94.57-2.3-1.24-3.47-2.46s-5-2.88-6.89 1.14 1.72 9.47 4.72 10.41C152.27 95.3 153 92 153 92l.46 18.67s3.41 8.28 12.59 9.49 7.27-6.35 4.24-10v-5.69a32.61 32.61 0 0 0 7 .34c3.8-.6 6.18-3.61 7.32-7.74 1.84-6.62 2.52-12 .9-25-1.77-14.26-18.36-14.35-27.3-8.68s-5.48 21.22-5.48 21.22z" style="fill:#b16668;transform-origin:164.135px 90.0861px" id="el2huipi5ci3v" class="animable"/><path d="M152.83 85.86c-1.5-.43-2.59-2.82-3.57-3.71-1.64-1.48.42-15 .42-15s-1.58-3.34 1.55-6.81c2.23-2.47 6-2.76 12.36-3.79 3.15-.5 6.86-.75 10-1.33a31.76 31.76 0 0 0 9.29-3 2.8 2.8 0 0 1 1.77-.46 1.67 1.67 0 0 1 1.12.94 3.18 3.18 0 0 1 .26 1.47 5.86 5.86 0 0 1-.27 1.55c-.1.3-.71 1.21-.58 1.47.32.65 2.78-.44 3.27-.59a.38.38 0 0 1 .56.21 6 6 0 0 1-.29 5.18 17.52 17.52 0 0 1-8.79 7.48 24.16 24.16 0 0 1-12 1.66 23 23 0 0 1-5.11-1.13 14.23 14.23 0 0 1-1.12 1.75 7.85 7.85 0 0 1-1.65 1.45 7.06 7.06 0 0 1-2 .92c-.73.19-1.43.1-1.83.89a3.82 3.82 0 0 0-.3 1.65l-.15 4.94a8 8 0 0 1-.33 2.49 2.74 2.74 0 0 1-1.67 1.75 1.62 1.62 0 0 1-.94.02z" style="fill:#263238;transform-origin:169.045px 68.8357px" id="el0d6dmiy8n8ud" class="animable"/><path d="M170.3 104.41s-8.5-1.68-11.48-3.25a9.79 9.79 0 0 1-4.12-4 13.52 13.52 0 0 0 2.35 4.79c2.18 2.77 13.26 4.77 13.26 4.77z" style="fill:#9a4a4d;transform-origin:162.505px 101.94px" id="eluleopu1ipco" class="animable"/><path d="M168.67 82.74A1.7 1.7 0 1 1 167 81a1.73 1.73 0 0 1 1.67 1.74z" style="fill:#263238;transform-origin:166.97px 82.6997px" id="elxkhvc2oskrk" class="animable"/><path d="m166.64 77.49-3.77 2.45a2.36 2.36 0 0 1 .69-3.19 2.2 2.2 0 0 1 3.08.74z" style="fill:#263238;transform-origin:164.581px 78.1723px" id="elw88qbndi6ua" class="animable"/><path d="m165.84 93.09 6 2.56a3.31 3.31 0 0 1-4.4 1.75 3.16 3.16 0 0 1-1.6-4.31z" style="fill:#9a4a4d;transform-origin:168.676px 95.3878px" id="el5i6kbnjgra4" class="animable"/><path d="M167.43 97.4a3.74 3.74 0 0 0 1.47.27 2.87 2.87 0 0 0-2.83-2.46 2.3 2.3 0 0 0-.45.05 3.06 3.06 0 0 0 1.81 2.14z" style="fill:#f28f8f;transform-origin:167.26px 96.4404px" id="elxnh5hgfsy9b" class="animable"/><path d="m183.82 79.24-3.59-2.18a2 2 0 0 1 2.82-.76 2.21 2.21 0 0 1 .77 2.94z" style="fill:#263238;transform-origin:182.161px 77.6197px" id="el1ifbwomnzuo" class="animable"/><path d="M182.45 82.73a1.7 1.7 0 1 1-1.71-1.73 1.73 1.73 0 0 1 1.71 1.73z" style="fill:#263238;transform-origin:180.75px 82.7px" id="elpl3g96bhie" class="animable"/><path style="fill:#9a4a4d;transform-origin:176.5px 87.33px" id="elrw2kkomltx" class="animable" d="m173.48 81.85.27 10.96 5.77-1.78-6.04-9.18z"/></g><path d="M125.1 161.71c5.07-8 12.36-22.81 12.36-22.81 4.14-9.84 3.88-21 1.66-27.08a39 39 0 0 0-4.09.79c-7 2-9 3-12.44 8.81-2.72 4.6-11.53 27.61-14.92 34.77l-16.53-15c-3.91-3.88-4.48-9-6.8-12.37s-5.14-4.45-7.84-7.35-3.62-5-4.9-2.93 1.56 6.22 2 7.21 3.62 3.57-.9 2.84-12.57-7-14.57-8.25-2.36 1.39-1.59 3.22-.11 6.52 1.2 9.55c1.39 3.22 2.21 4.65 6.13 7.23 3.65 2.41 11.81 4.59 15.53 8s12.47 14.48 17.79 21.16c6.77 8.49 12.72 12.42 18.23 6.18 4.09-4.68 7.8-11.01 9.68-13.97z" style="fill:#b16668;transform-origin:98.4345px 145.279px" id="elzkweu8eu9ho" class="animable"/><path d="M140.71 111.63c-5.61-.33-14.77.18-19.83 11.31s-12.24 29.37-12.24 29.37 8.52 11.26 17.75 10.25l13.93-26.41s4.01-13.86.39-24.52z" style="fill:#455a64;transform-origin:125.432px 137.094px" id="elg65q7s1ceqr" class="animable"/></g></g><g id="freepik--Wallet--inject-33" class="animable" style="transform-origin:330.49px 293.011px"><g id="freepik--wallet--inject-33" class="animable" style="transform-origin:330.49px 293.011px"><path d="M403.08 381.54a3 3 0 0 0 1.27-2.8V257.41a8.85 8.85 0 0 0-1.27-4.27l7.52-4.34a8.84 8.84 0 0 1 1.27 4.26V374.4a3 3 0 0 1-1.27 2.8z" style="fill:#263238;transform-origin:407.484px 315.17px" id="elfa0mjxkzno" class="animable"/><path d="M403.08 253.14a8.83 8.83 0 0 0-3.06-3.23l-137.31-79.28c-4.78-2.76-12.54-2.76-17.32 0l-3 1.73a7.7 7.7 0 0 0-4.17 6.64v131.34a7.73 7.73 0 0 1 4.17-6.65l3-1.73c4.78-2.76 12.54-2.76 17.32 0L400 381.24a2.64 2.64 0 0 0 4.33-2.5V257.41a8.85 8.85 0 0 0-1.25-4.27z" style="fill:#37474f;transform-origin:321.3px 275.228px" id="elg0fjo9ewkjw" class="animable"/><path d="M238.6 181.25c-1.09-3.31.26-6.85 3.8-8.89l3-1.73c4.78-2.76 12.54-2.76 17.32 0L400 249.91a8.86 8.86 0 0 1 3.06 3.23l7.52-4.34a9 9 0 0 0-3.06-3.24l-141.06-81.42c-7.07-4.09-17.74-4.09-24.82 0l-3 1.72a15.43 15.43 0 0 0-7.76 11.14 13.9 13.9 0 0 0-.15 2 15.66 15.66 0 0 0 4.49 10.78l5.43-5.18a8.8 8.8 0 0 1-2.05-3.34" style="fill:#455a64;transform-origin:320.655px 207.106px" id="elqqjms8koix" class="animable"/><path d="M394.34 273v-16.63l-137.91-79.6a9.33 9.33 0 0 0-8.66 0l-1.5.86a3.85 3.85 0 0 0-2.08 3.32v28.77z" style="fill:#ba68c8;transform-origin:319.265px 224.352px" id="el9wmbbhl79zk" class="animable"/><path d="M394.34 273v-16.63l-137.91-79.6a9.33 9.33 0 0 0-8.66 0l-1.5.86a3.85 3.85 0 0 0-2.08 3.32v28.77z" style="opacity:.2;transform-origin:319.265px 224.352px" class="animable" id="elbkba9qeqbsl"/><path d="M258.3 173.52a13.35 13.35 0 0 0-12.41 0l-1.49.86a7.71 7.71 0 0 0-3.89 5.54 7 7 0 0 0-.07 1v4.5l3.75 3.92V181a3.84 3.84 0 0 1 2.08-3.32l1.5-.86a9.57 9.57 0 0 1 8.66 0l137.91 79.6 3.76-2.17z" style="fill:#ba68c8;transform-origin:319.27px 214.205px" id="elchtp6jln39f" class="animable"/><path d="M258.3 173.52a13.35 13.35 0 0 0-12.41 0l-1.49.86a7.71 7.71 0 0 0-3.89 5.54 7 7 0 0 0-.07 1v4.5l3.75 3.92V181a3.84 3.84 0 0 1 2.08-3.32l1.5-.86a9.57 9.57 0 0 1 8.66 0l137.91 79.6 3.76-2.17z" style="opacity:.3;transform-origin:319.27px 214.205px" class="animable" id="ela9xdl3ljjmi"/><path style="fill:#ba68c8;transform-origin:396.22px 264.55px" id="elntbsq2wo53" class="animable" d="m394.34 256.37 3.76-2.17v20.7l-3.76-2.23v-16.3z"/><path style="opacity:.4;transform-origin:396.22px 264.55px" class="animable" d="m394.34 256.37 3.76-2.17v20.7l-3.76-2.23v-16.3z" id="elu9l1pxbe6ip"/><path d="M399.16 366.34v-93.42l-137.53-79.48a9.31 9.31 0 0 0-9.29 0l-3.48 2v89.12l146 84.28a2.89 2.89 0 0 0 4.3-2.5z" style="fill:#263238;transform-origin:324.01px 280.703px" id="el542airz1y9" class="animable"/><g id="freepik--Card--inject-33" class="animable" style="transform-origin:323.375px 275.885px"><g id="freepik--card--inject-33" class="animable" style="transform-origin:323.375px 275.885px"><path d="m385.79 362.85 2.36-1.36a3 3 0 0 0 1.34-2.33v-96a3 3 0 0 0-1.34-2.34l-124.49-71.9a3 3 0 0 0-2.69 0l-2.36 1.36a3 3 0 0 0-1.35 2.33v96a3 3 0 0 0 1.34 2.33l124.5 71.91a3 3 0 0 0 2.69 0z" style="fill:#ba68c8;transform-origin:323.375px 275.885px" id="eluncama31t4" class="animable"/><path d="m385.79 362.85 2.36-1.36a3 3 0 0 0 1.34-2.33v-96a3 3 0 0 0-1.34-2.34l-124.49-71.9a3 3 0 0 0-2.69 0l-2.36 1.36a3 3 0 0 0-1.35 2.33v96a3 3 0 0 0 1.34 2.33l124.5 71.91a3 3 0 0 0 2.69 0z" style="fill:#fff;opacity:.7;transform-origin:323.375px 275.885px" class="animable" id="elu6w76eulxc"/><path d="m383.1 263.72-124.49-71.89c-.74-.43-1.35-.08-1.35.78v96a3 3 0 0 0 1.34 2.33l124.5 71.91c.74.43 1.34.08 1.34-.77v-96a3 3 0 0 0-1.34-2.36z" style="fill:#ba68c8;transform-origin:320.85px 277.34px" id="el4ugn92irk" class="animable"/><path d="m383.1 263.72-124.49-71.89c-.74-.43-1.35-.08-1.35.78v96a3 3 0 0 0 1.34 2.33l124.5 71.91c.74.43 1.34.08 1.34-.77v-96a3 3 0 0 0-1.34-2.36z" style="fill:#ba68c8;transform-origin:320.85px 277.34px" id="elsvch353orj" class="animable"/><path d="m383.1 263.72-124.49-71.89c-.74-.43-1.35-.08-1.35.78v96a3 3 0 0 0 1.34 2.33l124.5 71.91c.74.43 1.34.08 1.34-.77v-96a3 3 0 0 0-1.34-2.36z" style="fill:#fff;opacity:.5;transform-origin:320.85px 277.34px" class="animable" id="el4fvnhkiito4"/><path d="M258.61 191.83c10.22 6.27 20.51 12.39 30.83 18.49l31 18.12 31.21 17.82 15.67 8.8 15.75 8.66-15.38-9.31-15.45-9.18-31-18.12L290 209.29c-10.41-5.88-20.86-11.74-31.39-17.46z" style="fill:#fff;transform-origin:320.84px 227.775px" id="elonqtqnj0d28" class="animable"/><path d="m384 264.72 5-2.91a2.59 2.59 0 0 1 .4 1.32v96a3 3 0 0 1-1.33 2.34l-2.36 1.36a3 3 0 0 1-2.43.12c.62.2 1.08-.16 1.08-.91v-96a2.6 2.6 0 0 0-.36-1.32z" style="fill:#ba68c8;transform-origin:386.34px 312.48px" id="elepbhhmkguci" class="animable"/><path style="fill:#ba68c8;transform-origin:386.965px 288.09px" id="eldh9jn7h4k2t" class="animable" d="m384.44 277.01 5.05-2.91v25.1l-5.05 2.88v-25.07z"/><path style="opacity:.2;transform-origin:386.965px 288.09px" class="animable" d="m384.44 277.01 5.05-2.91v25.1l-5.05 2.88v-25.07z" id="elrrpwphdelb"/></g><path style="opacity:.2;transform-origin:320.85px 252.82px" class="animable" d="m257.26 203.56 127.18 73.45v25.07l-127.18-73.45v-25.07z" id="elwgell716wdp"/><g id="freepik--Cards--inject-33" class="animable" style="transform-origin:322.085px 295.216px"><path d="M376.59 331.88v16.41c0 1.23-.86 1.73-1.93 1.12l-17.23-9.82a4.26 4.26 0 0 1-1.93-3.34v-16.41c0-1.23.87-1.73 1.93-1.11 4.7 2.71 12.53 7.1 17.23 9.81a4.26 4.26 0 0 1 1.93 3.34z" style="fill:#455a64;transform-origin:366.045px 334.067px" id="el3dqilbtqvkf" class="animable"/><g style="clip-path:url(#freepik--clip-path--inject-33);transform-origin:366.045px 334.085px" id="elqxbzcp2e7h" class="animable"><path style="fill:#fff;transform-origin:366.045px 329.895px" id="elqmyvz0qo5dc" class="animable" d="m379.98 338.38.44-.76-28.31-16.21-.44.75 28.31 16.22z"/><path style="fill:#fff;transform-origin:369.365px 335.92px" id="elgn1q4wj5rkf" class="animable" d="M368.93 331.74h.87v8.36h-.87z"/><path style="fill:#fff;transform-origin:362.725px 332.255px" id="el9zwie1ixxol" class="animable" d="M362.29 328.08h.87v8.35h-.87z"/><path style="fill:#fff;transform-origin:366.045px 338.275px" id="eloablqtrsnom" class="animable" d="m379.98 346.76.44-.76-28.31-16.21-.44.75 28.31 16.22z"/></g><path d="M309.74 248.85a9.4 9.4 0 0 1-1.05-4.5c0-1.69.34-2.79 1-3.29s1.67-.37 3 .37a8.65 8.65 0 0 1 1.46 1.06 6.78 6.78 0 0 1 1.11 1.25.51.51 0 0 1 .11.3.37.37 0 0 1-.06.21l-.39.68c-.05.07-.1.1-.16.07a1 1 0 0 1-.18-.2 5.75 5.75 0 0 0-1.67-1.49q-1.14-.66-1.77-.15a2.9 2.9 0 0 0-.63 2.24 6.32 6.32 0 0 0 .66 3 4.57 4.57 0 0 0 1.79 1.9 2.75 2.75 0 0 0 1.75.48.37.37 0 0 1 .19 0 .53.53 0 0 1 .15.25l.43 1.24a.71.71 0 0 1 0 .2c0 .06 0 .11-.14.15-.57.21-1.46 0-2.66-.72a7.76 7.76 0 0 1-2.94-3.05z" style="fill:#455a64;transform-origin:312.088px 246.729px" id="elfet22yki69b" class="animable"/><path d="M316.52 253.73a1.15 1.15 0 0 1-.12-.55v-8.73q0-.33.12-.42c.07-.07.2-.05.38.06l2.79 1.61a5.29 5.29 0 0 1 2.81 4.89 3.09 3.09 0 0 1-.33 1.59 1.1 1.1 0 0 1-1 .54l1.16 4.06a1 1 0 0 1 0 .22c0 .18-.08.23-.23.14l-1.23-.71a.75.75 0 0 1-.23-.19.7.7 0 0 1-.13-.3l-1-3.83-1.32-.76v2.89c0 .21 0 .35-.11.41s-.2 0-.38-.07l-.83-.47a.92.92 0 0 1-.35-.38zm2.91-3.44c.42.24.73.31.94.19s.32-.42.32-.93a2.65 2.65 0 0 0-.29-1.29 2.2 2.2 0 0 0-.86-.85l-1.32-.76v2.95z" style="fill:#455a64;transform-origin:319.453px 250.586px" id="elmayp6u4dmpa" class="animable"/><path d="M323.52 257.78a1.28 1.28 0 0 1-.11-.55v-8.74a.6.6 0 0 1 .11-.42c.08-.06.21 0 .38.06l4.59 2.65a.9.9 0 0 1 .37.35 1.3 1.3 0 0 1 .09.53v.55a.66.66 0 0 1-.09.43c-.07.06-.19 0-.37-.06l-3.26-1.89V253l2.28 1.32a.87.87 0 0 1 .36.35 1.14 1.14 0 0 1 .1.53v.52c0 .22 0 .37-.1.43s-.19 0-.36-.07l-2.28-1.31v2.34l3.25 1.88a.78.78 0 0 1 .36.36 1.16 1.16 0 0 1 .1.54v.53c0 .23 0 .37-.1.42s-.18 0-.36-.07l-4.58-2.64a1 1 0 0 1-.38-.35z" style="fill:#455a64;transform-origin:326.181px 254.453px" id="elmgepyj22qng" class="animable"/><path d="M329.87 261.44a1.15 1.15 0 0 1-.12-.55v-8.74a.55.55 0 0 1 .12-.42c.07-.06.2 0 .38.06l2.32 1.34a7.46 7.46 0 0 1 2.87 2.87 8.85 8.85 0 0 1 1 4.37q0 2.56-1 3.21c-.66.43-1.62.29-2.86-.43l-2.32-1.34a.85.85 0 0 1-.39-.37zm2.79 0q1 .57 1.47.12a3.32 3.32 0 0 0 .48-2.22 6.53 6.53 0 0 0-.48-2.77 3.65 3.65 0 0 0-1.47-1.57l-1.09-.62v6.44z" style="fill:#455a64;transform-origin:333.095px 257.764px" id="elna1p4jc29a" class="animable"/><path d="M337.45 265.81a1.11 1.11 0 0 1-.12-.54v-8.74a.55.55 0 0 1 .12-.42c.07-.06.2 0 .38.06l.83.48a.87.87 0 0 1 .38.38 1.12 1.12 0 0 1 .11.55v8.74c0 .22 0 .36-.11.42s-.2 0-.38-.07l-.83-.48a.87.87 0 0 1-.38-.38z" style="fill:#455a64;transform-origin:338.239px 261.425px" id="el4n9zxoup6pg" class="animable"/><path d="M342.23 268.58a1.15 1.15 0 0 1-.11-.55v-7.59l-1.82-1a1 1 0 0 1-.36-.35 1.18 1.18 0 0 1-.1-.54V258c0-.22 0-.36.1-.42s.19 0 .36.06l5.46 3.15a.86.86 0 0 1 .37.36 1.22 1.22 0 0 1 .11.55v.54c0 .22 0 .36-.11.41s-.19 0-.37-.06L344 261.5v7.59c0 .22 0 .35-.12.41s-.2 0-.39-.07l-.82-.47a1 1 0 0 1-.44-.38z" style="fill:#455a64;transform-origin:343.04px 263.54px" id="elck6ycujrvb" class="animable"/><path d="M351.74 273.09a9.22 9.22 0 0 1-1.06-4.49c0-1.7.34-2.8 1-3.29s1.68-.38 3 .36a8.41 8.41 0 0 1 1.46 1.06 7.12 7.12 0 0 1 1.11 1.25.46.46 0 0 1 .11.3.35.35 0 0 1-.06.22l-.39.67c0 .08-.1.1-.15.07a.66.66 0 0 1-.19-.19 5.53 5.53 0 0 0-1.67-1.5c-.76-.43-1.35-.48-1.77-.14a2.89 2.89 0 0 0-.63 2.24 6.27 6.27 0 0 0 .66 3 4.62 4.62 0 0 0 1.8 1.91 2.71 2.71 0 0 0 1.74.48.28.28 0 0 1 .19 0 .48.48 0 0 1 .15.25l.44 1.23a.68.68 0 0 1 0 .21c0 .06 0 .1-.13.14-.58.22-1.47 0-2.67-.71a7.63 7.63 0 0 1-2.94-3.07z" style="fill:#455a64;transform-origin:354.083px 270.982px" id="el28s3rtpf06d" class="animable"/><path d="M357.91 277.53a.76.76 0 0 1 0-.21l2.86-7.44a.43.43 0 0 1 .17-.25.32.32 0 0 1 .28.06l.8.47a.71.71 0 0 1 .27.24 1.74 1.74 0 0 1 .16.45l2.87 10.74a1.38 1.38 0 0 1 0 .25c0 .17-.07.22-.2.14l-1.34-.77a.62.62 0 0 1-.22-.2 1.1 1.1 0 0 1-.13-.32l-.51-2-2.68-1.55-.5 1.45c0 .1-.08.16-.13.17s-.12 0-.23-.06l-1.33-.77a.39.39 0 0 1-.14-.4zm4.65-.8-.92-3.72-.92 2.65z" style="fill:#455a64;transform-origin:361.612px 275.819px" id="elqaowe3pa8qc" class="animable"/><path d="M366.41 282.54a1.15 1.15 0 0 1-.11-.55v-8.74a.56.56 0 0 1 .11-.42c.08-.06.21 0 .38.06l2.8 1.62a5.29 5.29 0 0 1 2.81 4.89 2.94 2.94 0 0 1-.34 1.58 1.1 1.1 0 0 1-1 .55l1.16 4.06a.89.89 0 0 1 0 .22c0 .18-.07.22-.23.13l-1.22-.71a.79.79 0 0 1-.24-.18 1 1 0 0 1-.13-.31l-1-3.82-1.31-.76V283a.57.57 0 0 1-.11.42c-.08.06-.2 0-.39-.07l-.83-.48a1 1 0 0 1-.35-.33zm2.91-3.44c.42.24.74.3.95.19s.31-.43.31-.94a2.61 2.61 0 0 0-.28-1.28 2.32 2.32 0 0 0-.87-.86l-1.31-.75v2.94z" style="fill:#455a64;transform-origin:369.35px 279.396px" id="el14y9lw1mm9s" class="animable"/><path d="M373.42 286.58a1.13 1.13 0 0 1-.12-.54v-8.74q0-.33.12-.42c.08-.06.2 0 .38.06l2.32 1.34a7.37 7.37 0 0 1 2.87 2.86 8.88 8.88 0 0 1 1 4.37c0 1.71-.33 2.78-1 3.22s-1.62.29-2.86-.43l-2.33-1.3a.93.93 0 0 1-.38-.42zm2.79 0q1 .57 1.47.12c.32-.29.48-1 .48-2.21a6.5 6.5 0 0 0-.48-2.77 3.6 3.6 0 0 0-1.47-1.57l-1.08-.63v6.44z" style="fill:#455a64;transform-origin:376.647px 282.916px" id="el5pd13ryz90l" class="animable"/><g style="opacity:.15;transform-origin:344.341px 264.869px" class="animable" id="ela5ynf3wqqs6"><path d="M309.74 248.85a9.4 9.4 0 0 1-1.05-4.5c0-1.69.34-2.79 1-3.29s1.67-.37 3 .37a8.65 8.65 0 0 1 1.46 1.06 6.78 6.78 0 0 1 1.11 1.25.51.51 0 0 1 .11.3.37.37 0 0 1-.06.21l-.39.68c-.05.07-.1.1-.16.07a1 1 0 0 1-.18-.2 5.75 5.75 0 0 0-1.67-1.49q-1.14-.66-1.77-.15a2.9 2.9 0 0 0-.63 2.24 6.32 6.32 0 0 0 .66 3 4.57 4.57 0 0 0 1.79 1.9 2.75 2.75 0 0 0 1.75.48.37.37 0 0 1 .19 0 .53.53 0 0 1 .15.25l.43 1.24a.71.71 0 0 1 0 .2c0 .06 0 .11-.14.15-.57.21-1.46 0-2.66-.72a7.76 7.76 0 0 1-2.94-3.05z" style="fill:#455a64;transform-origin:312.088px 246.729px" id="elih5w2e5q0ye" class="animable"/><path d="M316.52 253.73a1.15 1.15 0 0 1-.12-.55v-8.73q0-.33.12-.42c.07-.07.2-.05.38.06l2.79 1.61a5.29 5.29 0 0 1 2.81 4.89 3.09 3.09 0 0 1-.33 1.59 1.1 1.1 0 0 1-1 .54l1.16 4.06a1 1 0 0 1 0 .22c0 .18-.08.23-.23.14l-1.23-.71a.75.75 0 0 1-.23-.19.7.7 0 0 1-.13-.3l-1-3.83-1.32-.76v2.89c0 .21 0 .35-.11.41s-.2 0-.38-.07l-.83-.47a.92.92 0 0 1-.35-.38zm2.91-3.44c.42.24.73.31.94.19s.32-.42.32-.93a2.65 2.65 0 0 0-.29-1.29 2.2 2.2 0 0 0-.86-.85l-1.32-.76v2.95z" style="fill:#455a64;transform-origin:319.453px 250.586px" id="ele17smd6nque" class="animable"/><path d="M323.52 257.78a1.28 1.28 0 0 1-.11-.55v-8.74a.6.6 0 0 1 .11-.42c.08-.06.21 0 .38.06l4.59 2.65a.9.9 0 0 1 .37.35 1.3 1.3 0 0 1 .09.53v.55a.66.66 0 0 1-.09.43c-.07.06-.19 0-.37-.06l-3.26-1.89V253l2.28 1.32a.87.87 0 0 1 .36.35 1.14 1.14 0 0 1 .1.53v.52c0 .22 0 .37-.1.43s-.19 0-.36-.07l-2.28-1.31v2.34l3.25 1.88a.78.78 0 0 1 .36.36 1.16 1.16 0 0 1 .1.54v.53c0 .23 0 .37-.1.42s-.18 0-.36-.07l-4.58-2.64a1 1 0 0 1-.38-.35z" style="fill:#455a64;transform-origin:326.181px 254.453px" id="elrojfwdk4e6j" class="animable"/><path d="M329.87 261.44a1.15 1.15 0 0 1-.12-.55v-8.74a.55.55 0 0 1 .12-.42c.07-.06.2 0 .38.06l2.32 1.34a7.46 7.46 0 0 1 2.87 2.87 8.85 8.85 0 0 1 1 4.37q0 2.56-1 3.21c-.66.43-1.62.29-2.86-.43l-2.32-1.34a.85.85 0 0 1-.39-.37zm2.79 0q1 .57 1.47.12a3.32 3.32 0 0 0 .48-2.22 6.53 6.53 0 0 0-.48-2.77 3.65 3.65 0 0 0-1.47-1.57l-1.09-.62v6.44z" style="fill:#455a64;transform-origin:333.095px 257.764px" id="elfr30ag2il4" class="animable"/><path d="M337.45 265.81a1.11 1.11 0 0 1-.12-.54v-8.74a.55.55 0 0 1 .12-.42c.07-.06.2 0 .38.06l.83.48a.87.87 0 0 1 .38.38 1.12 1.12 0 0 1 .11.55v8.74c0 .22 0 .36-.11.42s-.2 0-.38-.07l-.83-.48a.87.87 0 0 1-.38-.38z" style="fill:#455a64;transform-origin:338.239px 261.425px" id="elq644xe8rbh" class="animable"/><path d="M342.23 268.58a1.15 1.15 0 0 1-.11-.55v-7.59l-1.82-1a1 1 0 0 1-.36-.35 1.18 1.18 0 0 1-.1-.54V258c0-.22 0-.36.1-.42s.19 0 .36.06l5.46 3.15a.86.86 0 0 1 .37.36 1.22 1.22 0 0 1 .11.55v.54c0 .22 0 .36-.11.41s-.19 0-.37-.06L344 261.5v7.59c0 .22 0 .35-.12.41s-.2 0-.39-.07l-.82-.47a1 1 0 0 1-.44-.38z" style="fill:#455a64;transform-origin:343.04px 263.54px" id="elsru4479mv8" class="animable"/><path d="M351.74 273.09a9.22 9.22 0 0 1-1.06-4.49c0-1.7.34-2.8 1-3.29s1.68-.38 3 .36a8.41 8.41 0 0 1 1.46 1.06 7.12 7.12 0 0 1 1.11 1.25.46.46 0 0 1 .11.3.35.35 0 0 1-.06.22l-.39.67c0 .08-.1.1-.15.07a.66.66 0 0 1-.19-.19 5.53 5.53 0 0 0-1.67-1.5c-.76-.43-1.35-.48-1.77-.14a2.89 2.89 0 0 0-.63 2.24 6.27 6.27 0 0 0 .66 3 4.62 4.62 0 0 0 1.8 1.91 2.71 2.71 0 0 0 1.74.48.28.28 0 0 1 .19 0 .48.48 0 0 1 .15.25l.44 1.23a.68.68 0 0 1 0 .21c0 .06 0 .1-.13.14-.58.22-1.47 0-2.67-.71a7.63 7.63 0 0 1-2.94-3.07z" style="fill:#455a64;transform-origin:354.083px 270.982px" id="el7msvc41cicd" class="animable"/><path d="M357.91 277.53a.76.76 0 0 1 0-.21l2.86-7.44a.43.43 0 0 1 .17-.25.32.32 0 0 1 .28.06l.8.47a.71.71 0 0 1 .27.24 1.74 1.74 0 0 1 .16.45l2.87 10.74a1.38 1.38 0 0 1 0 .25c0 .17-.07.22-.2.14l-1.34-.77a.62.62 0 0 1-.22-.2 1.1 1.1 0 0 1-.13-.32l-.51-2-2.68-1.55-.5 1.45c0 .1-.08.16-.13.17s-.12 0-.23-.06l-1.33-.77a.39.39 0 0 1-.14-.4zm4.65-.8-.92-3.72-.92 2.65z" style="fill:#455a64;transform-origin:361.612px 275.819px" id="eld2vp8awoje" class="animable"/><path d="M366.41 282.54a1.15 1.15 0 0 1-.11-.55v-8.74a.56.56 0 0 1 .11-.42c.08-.06.21 0 .38.06l2.8 1.62a5.29 5.29 0 0 1 2.81 4.89 2.94 2.94 0 0 1-.34 1.58 1.1 1.1 0 0 1-1 .55l1.16 4.06a.89.89 0 0 1 0 .22c0 .18-.07.22-.23.13l-1.22-.71a.79.79 0 0 1-.24-.18 1 1 0 0 1-.13-.31l-1-3.82-1.31-.76V283a.57.57 0 0 1-.11.42c-.08.06-.2 0-.39-.07l-.83-.48a1 1 0 0 1-.35-.33zm2.91-3.44c.42.24.74.3.95.19s.31-.43.31-.94a2.61 2.61 0 0 0-.28-1.28 2.32 2.32 0 0 0-.87-.86l-1.31-.75v2.94z" style="fill:#455a64;transform-origin:369.35px 279.396px" id="elhdlcgkc8y9l" class="animable"/><path d="M373.42 286.58a1.13 1.13 0 0 1-.12-.54v-8.74q0-.33.12-.42c.08-.06.2 0 .38.06l2.32 1.34a7.37 7.37 0 0 1 2.87 2.86 8.88 8.88 0 0 1 1 4.37c0 1.71-.33 2.78-1 3.22s-1.62.29-2.86-.43l-2.33-1.3a.93.93 0 0 1-.38-.42zm2.79 0q1 .57 1.47.12c.32-.29.48-1 .48-2.21a6.5 6.5 0 0 0-.48-2.77 3.6 3.6 0 0 0-1.47-1.57l-1.08-.63v6.44z" style="fill:#455a64;transform-origin:376.647px 282.916px" id="eliisfztme1ze" class="animable"/></g><path d="m275.78 269.19 4.91 2.84a2.53 2.53 0 0 1 1.16 2v1.5c0 .74-.52 1-1.16.67l-4.91-2.84a2.55 2.55 0 0 1-1.16-2v-1.5c0-.74.52-1.04 1.16-.67z" style="fill:#ba68c8;transform-origin:278.235px 272.686px" id="el8rc7w8py18u" class="animable"/><path d="m264.94 262.93 4.91 2.84a2.55 2.55 0 0 1 1.16 2v1.5c0 .74-.52 1-1.16.67l-4.91-2.84a2.55 2.55 0 0 1-1.16-2v-1.5c0-.74.52-1.04 1.16-.67z" style="fill:#ba68c8;transform-origin:267.395px 266.426px" id="elahydgkunfrl" class="animable"/><path d="m327 309.19-61.2-35.33c-1.06-.62-1.92-.12-1.92 1.11v1.81a4.27 4.27 0 0 0 1.92 3.34l61.2 35.32c1.07.62 1.93.12 1.93-1.11v-1.81a4.22 4.22 0 0 0-1.93-3.33z" style="fill:#ba68c8;transform-origin:296.405px 294.65px" id="eltlim0yhen8" class="animable"/><path d="m275.78 269.19 4.91 2.84a2.53 2.53 0 0 1 1.16 2v1.5c0 .74-.52 1-1.16.67l-4.91-2.84a2.55 2.55 0 0 1-1.16-2v-1.5c0-.74.52-1.04 1.16-.67z" style="fill:#455a64;transform-origin:278.235px 272.686px" id="el2y5kh8k25r7" class="animable"/><path d="m264.94 262.93 4.91 2.84a2.55 2.55 0 0 1 1.16 2v1.5c0 .74-.52 1-1.16.67l-4.91-2.84a2.55 2.55 0 0 1-1.16-2v-1.5c0-.74.52-1.04 1.16-.67z" style="fill:#455a64;transform-origin:267.395px 266.426px" id="ela7m29ehk14" class="animable"/><path d="m327 309.19-61.2-35.33c-1.06-.62-1.92-.12-1.92 1.11v1.81a4.27 4.27 0 0 0 1.92 3.34l61.2 35.32c1.07.62 1.93.12 1.93-1.11v-1.81a4.22 4.22 0 0 0-1.93-3.33z" style="fill:#455a64;transform-origin:296.405px 294.65px" id="elpurnwxnajwf" class="animable"/><path d="m265 245.89.23.13a3 3 0 0 1 1.25 2.4v4.82c0 .92-.56 1.36-1.27 1l-.19-.1a2.9 2.9 0 0 1-1.27-2.36v-4.92c.03-.94.59-1.37 1.25-.97z" style="fill:#fafafa;transform-origin:265.115px 250.053px" id="el16rs43e2lqg" class="animable"/><path d="m271.5 249.65.22.13a3 3 0 0 1 1.26 2.39V257c0 .93-.57 1.37-1.27 1l-.2-.11a2.89 2.89 0 0 1-1.27-2.36v-4.93c0-.93.56-1.35 1.26-.95z" style="fill:#fafafa;transform-origin:271.61px 253.815px" id="elw0db4fxogo" class="animable"/><path d="m278 253.4.23.13a3 3 0 0 1 1.25 2.4v4.82c0 .92-.57 1.36-1.27 1l-.19-.1a2.88 2.88 0 0 1-1.27-2.36v-4.92c-.04-.94.52-1.37 1.25-.97z" style="fill:#fafafa;transform-origin:278.114px 257.563px" id="el1oappp8rzehj" class="animable"/><path d="m284.42 257.16.23.13a3 3 0 0 1 1.25 2.39v4.82c0 .93-.57 1.37-1.27 1l-.19-.11a2.9 2.9 0 0 1-1.27-2.36v-4.93c0-.92.56-1.34 1.25-.94z" style="fill:#fafafa;transform-origin:284.535px 261.32px" id="elgz9mf4ck61a" class="animable"/><path d="m295.26 263.34.23.13a3 3 0 0 1 1.25 2.4v4.82c0 .92-.57 1.36-1.27 1l-.19-.1a2.9 2.9 0 0 1-1.27-2.36v-4.92c-.01-.94.56-1.37 1.25-.97z" style="fill:#fafafa;transform-origin:295.375px 267.503px" id="eluwxzcq0ool" class="animable"/><path d="m301.72 267.1.23.13a3 3 0 0 1 1.25 2.39v4.82c0 .92-.57 1.36-1.27 1l-.2-.1a2.9 2.9 0 0 1-1.27-2.36V268c.01-.88.54-1.3 1.26-.9z" style="fill:#fafafa;transform-origin:301.83px 271.257px" id="elxqgwhfqu9x7" class="animable"/><path d="m308.19 270.85.22.13a3 3 0 0 1 1.26 2.4v4.82c0 .92-.57 1.36-1.27 1l-.2-.11a2.89 2.89 0 0 1-1.27-2.35v-4.94c0-.92.56-1.35 1.26-.95z" style="fill:#fafafa;transform-origin:308.3px 275.013px" id="elvxo8h7kxsh" class="animable"/><path d="m314.65 274.61.23.13a3 3 0 0 1 1.25 2.39V282c0 .92-.57 1.36-1.27 1l-.19-.1a2.9 2.9 0 0 1-1.27-2.36v-4.92c0-.99.6-1.41 1.25-1.01z" style="fill:#fafafa;transform-origin:314.765px 278.793px" id="ely1j7zw0an5" class="animable"/><path d="m325.49 280.79.23.13a3 3 0 0 1 1.25 2.4v4.82c0 .92-.57 1.36-1.27 1l-.19-.11a2.89 2.89 0 0 1-1.27-2.35v-4.92c0-.95.56-1.37 1.25-.97z" style="fill:#fafafa;transform-origin:325.605px 284.952px" id="elzj859m35c5" class="animable"/><path d="m332 284.55.23.13a3 3 0 0 1 1.25 2.39v4.82c0 .92-.56 1.36-1.27 1l-.19-.1a2.9 2.9 0 0 1-1.27-2.36v-4.92c-.05-.94.51-1.36 1.25-.96z" style="fill:#fafafa;transform-origin:332.113px 288.707px" id="elfow3e6gsmas" class="animable"/><path d="m338.42 288.3.22.13a3 3 0 0 1 1.26 2.4v4.81c0 .93-.57 1.37-1.27 1l-.2-.11a2.89 2.89 0 0 1-1.27-2.36v-4.91c0-.94.56-1.36 1.26-.96z" style="fill:#fafafa;transform-origin:338.53px 292.46px" id="elhaqx2i1mwhi" class="animable"/><path d="m344.88 292.05.23.14a3 3 0 0 1 1.25 2.39v4.82c0 .92-.57 1.36-1.27 1l-.19-.1a2.88 2.88 0 0 1-1.27-2.36V293c-.01-.92.56-1.35 1.25-.95z" style="fill:#fafafa;transform-origin:344.995px 296.213px" id="ell07kobl5egg" class="animable"/><path d="m355.72 298.24.23.13a3 3 0 0 1 1.25 2.4v4.81c0 .93-.57 1.37-1.27 1l-.19-.11a2.86 2.86 0 0 1-1.27-2.36v-4.91c0-.94.53-1.36 1.25-.96z" style="fill:#fafafa;transform-origin:355.835px 302.4px" id="el1bykhh4wt0i" class="animable"/><path d="m362.18 302 .23.14a3 3 0 0 1 1.25 2.39v4.82c0 .92-.57 1.36-1.27 1l-.19-.1a2.9 2.9 0 0 1-1.27-2.36v-4.92c0-.97.56-1.38 1.25-.97z" style="fill:#fafafa;transform-origin:362.295px 306.159px" id="elsroyagsi2f9" class="animable"/><path d="m368.64 305.75.23.13a3 3 0 0 1 1.25 2.39v4.82c0 .93-.56 1.37-1.27 1l-.19-.11a2.89 2.89 0 0 1-1.27-2.36v-4.92c0-.93.61-1.35 1.25-.95z" style="fill:#fafafa;transform-origin:368.755px 309.91px" id="els8472r505jm" class="animable"/><path d="m375.11 309.5.22.13a3 3 0 0 1 1.26 2.4v4.82c0 .92-.57 1.36-1.27 1l-.2-.1a2.9 2.9 0 0 1-1.27-2.36v-4.92c0-.94.56-1.37 1.26-.97z" style="fill:#fafafa;transform-origin:375.22px 313.663px" id="elm6a26rai3s" class="animable"/></g></g><path d="M392.43 367.17c0 2.75-1.95 3.87-4.33 2.5L270.84 302a9.6 9.6 0 0 1-4.33-7.5v-65.39l125.92 72.7z" style="fill:#fff;opacity:.35;transform-origin:329.47px 299.682px" class="animable" id="el3p9xvilm61y"/><path d="m235.22 321.1 98.06 102.69c1 1.07 2 1.39 2.58 1s.87-1.13.87-2.4V301.13a12.81 12.81 0 0 0-1-4.44 13 13 0 0 0-2.5-4.17l-98.01-102.75a15.66 15.66 0 0 1-4.49-10.77v131.32a15.66 15.66 0 0 0 4.49 10.78z" style="fill:#37474f;transform-origin:283.73px 301.975px" id="el3we3xqaprub" class="animable"/><path d="M237.73 204.54a.5.5 0 0 1-.5-.5v-1.5a.5.5 0 0 1 .32-.46.49.49 0 0 1 .54.11l1 1.09a.5.5 0 0 1 0 .71.49.49 0 0 1-.7 0l-.18-.18v.19a.5.5 0 0 1-.48.54z" style="fill:#455a64;transform-origin:238.234px 203.291px" id="elreuhurtw2zk" class="animable"/><path d="M329.73 404a.51.51 0 0 1-.5-.5v-2.95a.5.5 0 0 1 .5-.5.5.5 0 0 1 .5.5v2.95a.5.5 0 0 1-.5.5zm0-7.87a.5.5 0 0 1-.5-.5v-2.93a.5.5 0 0 1 .5-.5.5.5 0 0 1 .5.5v2.95a.5.5 0 0 1-.5.5zm0-7.87a.5.5 0 0 1-.5-.5v-2.95a.5.5 0 0 1 .5-.5.5.5 0 0 1 .5.5v2.95a.5.5 0 0 1-.5.52zm0-7.87a.5.5 0 0 1-.5-.5v-3a.5.5 0 0 1 .5-.5.5.5 0 0 1 .5.5v3a.5.5 0 0 1-.5.52zm0-7.87a.5.5 0 0 1-.5-.5v-3a.5.5 0 0 1 .5-.5.5.5 0 0 1 .5.5v3a.5.5 0 0 1-.5.52zm0-7.87a.5.5 0 0 1-.5-.5v-2.95a.51.51 0 0 1 .5-.5.5.5 0 0 1 .5.5v2.95a.5.5 0 0 1-.5.52zm0-7.87a.5.5 0 0 1-.5-.5v-2.95a.51.51 0 0 1 .5-.5.5.5 0 0 1 .5.5v2.95a.5.5 0 0 1-.5.52zm0-7.86a.51.51 0 0 1-.5-.5v-3a.51.51 0 0 1 .5-.5.5.5 0 0 1 .5.5v3a.5.5 0 0 1-.5.52zm0-7.87a.51.51 0 0 1-.5-.5v-2.95a.5.5 0 0 1 .5-.5.5.5 0 0 1 .5.5v2.95a.5.5 0 0 1-.5.52zm0-7.87a.51.51 0 0 1-.5-.5v-2.95a.5.5 0 0 1 .5-.5.5.5 0 0 1 .5.5v2.95a.5.5 0 0 1-.5.52zm0-7.87a.51.51 0 0 1-.5-.5v-2.95a.5.5 0 0 1 .5-.5.5.5 0 0 1 .5.5v2.95a.5.5 0 0 1-.5.52zm0-7.87a.5.5 0 0 1-.5-.5V314a.5.5 0 0 1 .5-.5.5.5 0 0 1 .5.5v3a.5.5 0 0 1-.5.46zm0-7.87a.5.5 0 0 1-.5-.5v-2.95a.5.5 0 0 1 .5-.5.5.5 0 0 1 .5.5v2.95a.5.5 0 0 1-.5.52zm0-7.91a.47.47 0 0 1-.5-.46 5.59 5.59 0 0 0-.44-1.81c-.12-.29-.23-.55-.34-.77a.49.49 0 0 1 .22-.67.49.49 0 0 1 .67.22c.12.25.25.53.38.86a6.6 6.6 0 0 1 .51 2.08.54.54 0 0 1-.5.57zm-4-6.47a.52.52 0 0 1-.36-.16l-2-2.13a.5.5 0 1 1 .73-.69l2 2.13a.5.5 0 0 1 0 .71.52.52 0 0 1-.41.16zm-5.43-5.7a.51.51 0 0 1-.36-.15l-2-2.14a.5.5 0 0 1 .72-.69l2 2.14a.5.5 0 0 1-.36.84zm-5.43-5.69a.49.49 0 0 1-.36-.15l-2-2.14a.5.5 0 0 1 0-.71.49.49 0 0 1 .7 0l2 2.14a.5.5 0 0 1-.36.84zm-5.44-5.69a.48.48 0 0 1-.43-.11l-2-2.13a.5.5 0 0 1 0-.71.5.5 0 0 1 .71 0l2 2.13a.5.5 0 0 1 0 .71.52.52 0 0 1-.32.13zm-5.43-5.67a.52.52 0 0 1-.36-.16l-2-2.13a.5.5 0 1 1 .73-.69l2 2.13a.5.5 0 0 1 0 .71.52.52 0 0 1-.37.14zm-5.43-5.7a.51.51 0 0 1-.36-.15l-2-2.14a.5.5 0 0 1 .72-.69l2 2.14a.49.49 0 0 1 0 .7.45.45 0 0 1-.4.14zm-5.43-5.69a.48.48 0 0 1-.36-.15l-2-2.14a.5.5 0 1 1 .72-.69l2 2.14a.49.49 0 0 1 0 .7.51.51 0 0 1-.4.14zm-5.44-5.69a.48.48 0 0 1-.36-.16l-2-2.13a.5.5 0 1 1 .73-.69l2 2.13a.5.5 0 0 1 0 .71.52.52 0 0 1-.41.14zm-5.43-5.7a.51.51 0 0 1-.36-.15l-2-2.13a.5.5 0 0 1 0-.71.49.49 0 0 1 .7 0l2 2.13a.5.5 0 0 1 0 .71.53.53 0 0 1-.38.15zM276.8 244a.49.49 0 0 1-.36-.15l-2-2.14a.49.49 0 0 1 0-.7.5.5 0 0 1 .71 0l2 2.14a.49.49 0 0 1 0 .7.45.45 0 0 1-.35.15zm-5.44-5.69a.51.51 0 0 1-.36-.15l-2-2.16a.5.5 0 0 1 0-.71.5.5 0 0 1 .71 0l2 2.14a.49.49 0 0 1 0 .7.52.52 0 0 1-.35.15zm-5.43-5.69a.48.48 0 0 1-.36-.16l-2-2.13a.5.5 0 0 1 .73-.69l2 2.13a.5.5 0 0 1 0 .71.52.52 0 0 1-.37.11zm-5.43-5.69a.52.52 0 0 1-.36-.16l-2-2.13a.5.5 0 0 1 .72-.7l2 2.14a.5.5 0 0 1 0 .71.49.49 0 0 1-.36.11zm-5.43-5.7a.51.51 0 0 1-.37-.15l-2-2.14a.49.49 0 0 1 0-.7.5.5 0 0 1 .71 0l2 2.14a.49.49 0 0 1 0 .7.47.47 0 0 1-.34.12zm-5.44-5.69a.48.48 0 0 1-.36-.16l-2-2.13a.5.5 0 0 1 .73-.69l2 2.13a.5.5 0 0 1 0 .71.52.52 0 0 1-.37.11zm-5.43-5.69a.48.48 0 0 1-.36-.16l-2-2.13a.5.5 0 0 1 0-.71.49.49 0 0 1 .7 0l2 2.13a.5.5 0 0 1 0 .71.49.49 0 0 1-.34.13z" style="fill:#455a64;transform-origin:285.962px 305.351px" id="el2w41jlw0wwd" class="animable"/><path d="M329.73 410.44a.51.51 0 0 1-.36-.15l-1-1.09a.5.5 0 1 1 .73-.69l.17.18v-.25a.5.5 0 0 1 .5-.5.5.5 0 0 1 .5.5v1.5a.48.48 0 0 1-.31.46.43.43 0 0 1-.23.04z" style="fill:#455a64;transform-origin:329.251px 409.191px" id="elvetorkafobh" class="animable"/><path d="M325.19 405.68a.48.48 0 0 1-.36-.15l-2.11-2.21a.51.51 0 0 1 0-.71.5.5 0 0 1 .71 0l2.11 2.21a.49.49 0 0 1 0 .7.51.51 0 0 1-.35.16zm-5.62-5.88a.48.48 0 0 1-.36-.16l-2.11-2.2a.5.5 0 0 1 .73-.69l2.1 2.2a.5.5 0 0 1 0 .71.54.54 0 0 1-.36.14zm-5.57-5.88a.48.48 0 0 1-.36-.16l-2.1-2.2a.5.5 0 0 1 0-.71.5.5 0 0 1 .71 0l2.1 2.2a.5.5 0 0 1 0 .71.52.52 0 0 1-.35.16zm-5.66-5.92a.5.5 0 0 1-.36-.16l-2.11-2.21a.5.5 0 0 1 .72-.69l2.11 2.21a.5.5 0 0 1 0 .71.51.51 0 0 1-.36.14zm-5.62-5.89a.51.51 0 0 1-.36-.15l-2.11-2.21a.49.49 0 0 1 0-.7.5.5 0 0 1 .71 0l2.1 2.21a.5.5 0 0 1 0 .71.53.53 0 0 1-.34.18zm-5.62-5.88a.51.51 0 0 1-.36-.15l-2.1-2.21a.5.5 0 1 1 .72-.69l2.11 2.21a.49.49 0 0 1 0 .7.47.47 0 0 1-.37.18zm-5.61-5.88a.49.49 0 0 1-.36-.15L289 368a.5.5 0 0 1 0-.71.49.49 0 0 1 .7 0l2.11 2.2a.5.5 0 0 1 0 .71.49.49 0 0 1-.32.19zm-5.62-5.88a.48.48 0 0 1-.36-.16l-2.11-2.2a.5.5 0 1 1 .73-.69l2.1 2.2a.5.5 0 0 1 0 .71.52.52 0 0 1-.36.18zm-5.62-5.88a.48.48 0 0 1-.36-.16l-2.1-2.2a.5.5 0 1 1 .72-.69l2.11 2.2a.5.5 0 0 1 0 .71.52.52 0 0 1-.37.18zm-5.61-5.88a.52.52 0 0 1-.36-.16l-2.11-2.21a.5.5 0 0 1 .72-.69l2.11 2.25a.5.5 0 0 1 0 .71.49.49 0 0 1-.36.14zm-5.64-5.85a.51.51 0 0 1-.36-.15l-2.11-2.21a.49.49 0 0 1 0-.7.5.5 0 0 1 .71 0l2.1 2.21a.49.49 0 0 1-.36.84zm-5.59-5.86a.51.51 0 0 1-.37-.15l-2.1-2.21a.5.5 0 1 1 .72-.69l2.11 2.21a.49.49 0 0 1 0 .7.47.47 0 0 1-.36.14zm-5.62-5.88a.51.51 0 0 1-.36-.15l-2.11-2.21a.5.5 0 0 1 0-.71.49.49 0 0 1 .7 0l2.11 2.2a.5.5 0 0 1 0 .71.49.49 0 0 1-.34.14zm-5.62-5.88a.48.48 0 0 1-.36-.16l-2.11-2.2a.5.5 0 1 1 .73-.69l2.1 2.2a.5.5 0 0 1 0 .71.52.52 0 0 1-.36.12zm-5.61-5.88a.49.49 0 0 1-.37-.16l-2.1-2.2a.5.5 0 1 1 .72-.69l2.11 2.2a.5.5 0 0 1 0 .71.51.51 0 0 1-.36.12zm-5.62-5.88a.52.52 0 0 1-.36-.16l-.66-.69a9.62 9.62 0 0 1-1.34-1.74.48.48 0 0 1 .16-.68.49.49 0 0 1 .69.16 9.47 9.47 0 0 0 1.22 1.57l.65.69a.5.5 0 0 1 0 .71.49.49 0 0 1-.36.12zm-3.21-7.19a.5.5 0 0 1-.5-.5v-3a.5.5 0 0 1 .5-.5.5.5 0 0 1 .5.5v3a.5.5 0 0 1-.5.48zm0-8.13a.51.51 0 0 1-.5-.5v-3.05a.5.5 0 0 1 .5-.5.5.5 0 0 1 .5.5v3.05a.5.5 0 0 1-.5.48zm0-8.14a.5.5 0 0 1-.5-.5v-3.05a.51.51 0 0 1 .5-.5.5.5 0 0 1 .5.5v3.05a.5.5 0 0 1-.5.48zm0-8.13a.5.5 0 0 1-.5-.5v-3.05a.51.51 0 0 1 .5-.5.5.5 0 0 1 .5.5v3.05a.5.5 0 0 1-.5.48zm0-8.13a.5.5 0 0 1-.5-.5v-3.05a.5.5 0 0 1 .5-.5.5.5 0 0 1 .5.5v3.05a.5.5 0 0 1-.5.48zm0-8.13a.51.51 0 0 1-.5-.5v-3.05a.5.5 0 0 1 .5-.5.5.5 0 0 1 .5.5v3.05a.5.5 0 0 1-.5.48zm0-8.14a.5.5 0 0 1-.5-.5v-3.05a.51.51 0 0 1 .5-.5.5.5 0 0 1 .5.5V261a.5.5 0 0 1-.5.47zm0-8.13a.5.5 0 0 1-.5-.5v-3.05a.51.51 0 0 1 .5-.5.5.5 0 0 1 .5.5v3.05a.5.5 0 0 1-.5.48zm0-8.13a.5.5 0 0 1-.5-.5v-3.05a.5.5 0 0 1 .5-.5.5.5 0 0 1 .5.5v3.05a.5.5 0 0 1-.5.48zm0-8.13a.51.51 0 0 1-.5-.5v-3.05a.5.5 0 0 1 .5-.5.5.5 0 0 1 .5.5v3.05a.5.5 0 0 1-.5.48zm0-8.14a.5.5 0 0 1-.5-.5v-3.05a.51.51 0 0 1 .5-.5.5.5 0 0 1 .5.5v3.05a.5.5 0 0 1-.5.48zm0-8.13a.5.5 0 0 1-.5-.5v-3.05a.51.51 0 0 1 .5-.5.5.5 0 0 1 .5.5v3.05a.5.5 0 0 1-.5.48zm0-8.13a.5.5 0 0 1-.5-.5v-3.05a.5.5 0 0 1 .5-.5.5.5 0 0 1 .5.5v3.05a.5.5 0 0 1-.5.48z" style="fill:#455a64;transform-origin:281.459px 307.165px" id="elheovzn47gs" class="animable"/><path d="m342.57 292.76-6.79 3.93a12.81 12.81 0 0 1 1 4.44v121.28c0 1.27-.33 2.08-.87 2.4l6.68-3.86c.55-.31.88-1.13.88-2.4V297.27a12.37 12.37 0 0 0-.9-4.51z" style="fill:#263238;transform-origin:339.625px 358.785px" id="elilo2hz0r4wa" class="animable"/><path d="M318.81 343.09a16.16 16.16 0 0 0-3.64-9.74c-2-2.1-3.64-1.16-3.64 2.11a16.11 16.11 0 0 0 3.64 9.73c2.01 2.11 3.64 1.17 3.64-2.1z" style="fill:#fafafa;transform-origin:315.17px 339.274px" id="elqbduvfk4bu" class="animable"/><path style="fill:#37474f;transform-origin:420.295px 308.68px" id="elra4elf7mkma" class="animable" d="m411.87 298.95 16.85 9.73-16.85 9.73v-19.46z"/><path d="m424.66 311 3.79-2.19a2.64 2.64 0 0 0 0-5l-16.58-9.58V299l11.57 6.68a.82.82 0 0 1 0 1.41l-2.84 1.64z" style="fill:#455a64;transform-origin:421.056px 302.615px" id="eljnkq9sjzr7l" class="animable"/><path d="M400.82 320.1c-4.78 2.76-8.66 9.2-8.66 14.38 0 2.5.91 4.25 2.38 5.08s4.11 2.37 4.11 2.37l25.74-16.68a3 3 0 0 0 1.79-2.49V304a3 3 0 0 1-1.79 2.5z" style="fill:#455a64;transform-origin:409.17px 322.965px" id="ellyn7h3lmtk8" class="animable"/><path d="M404.89 322.44c-4.79 2.76-8.66 9.2-8.66 14.38s3.87 7.14 8.66 4.38l23.56-13.61a3.06 3.06 0 0 0 1.8-2.49v-18.76a3 3 0 0 1-1.8 2.5z" style="fill:#37474f;transform-origin:413.24px 324.395px" id="el3lzsfdrwoxy" class="animable"/><path d="M406.35 325.25c2.75-1.59 5-.3 5 2.87a11.07 11.07 0 0 1-5 8.63c-2.75 1.59-5 .3-5-2.88a11 11 0 0 1 5-8.62z" style="fill:#fafafa;transform-origin:406.35px 331px" id="elxm24268kc1c" class="animable"/><path d="m340 288.66-99.35-104.07a8.8 8.8 0 0 1-2.05-3.34l-3.38 8.52 98.06 102.75a13.28 13.28 0 0 1 2.5 4.17l6.79-3.93a12.45 12.45 0 0 0-2.57-4.1z" style="fill:#455a64;transform-origin:288.895px 238.97px" id="elst83dwxzjng" class="animable"/></g></g><g id="freepik--speech-bubble--inject-33" class="animable" style="transform-origin:342.74px 117.245px"><g id="freepik--speech-bubble--inject-33" class="animable" style="transform-origin:342.74px 117.245px"><g id="freepik--speech-bubble--inject-33" class="animable" style="transform-origin:342.74px 117.245px"><path d="m338.12 165.29 5.25-9.88-4.22-12.2v-7.47l12.93 7.47v7.47l-5.56 9.63a.78.78 0 0 1-.38.34z" style="fill:#263238;transform-origin:345.1px 150.515px" id="el8zs3atv28im" class="animable"/><path d="M302.82 73.94a8.59 8.59 0 0 1 3.88-6.72l3.16-1.82a8.54 8.54 0 0 1 7.75 0l61.17 35.15a8.59 8.59 0 0 1 3.88 6.72v53.28a8.58 8.58 0 0 1-3.88 6.72l-3.16 1.82a8.54 8.54 0 0 1-7.75 0L344 155.38l-5.59 9.62a.83.83 0 0 1-1.5-.15l-5.86-16.93-24.35-14a8.56 8.56 0 0 1-3.88-6.72z" style="fill:#37474f;transform-origin:342.74px 117.245px" id="el33clqs8t4l6" class="animable"/><path d="M382.66 160.55a8.58 8.58 0 0 1-3.88 6.72l-3.16 1.82a8.66 8.66 0 0 1-7.09.32c1.82.69 3.21-.34 3.21-2.56v-53.28a7.9 7.9 0 0 0-1.13-3.82l10.91-6.3a7.92 7.92 0 0 1 1.14 3.82z" style="fill:#263238;transform-origin:375.595px 136.734px" id="ellbodom62l7h" class="animable"/><path d="M303 72.84c.45-1.65 1.95-2.17 3.74-1.14l61.18 35.16a7.63 7.63 0 0 1 2.73 2.89l10.91-6.29a7.81 7.81 0 0 0-2.73-2.9L317.62 65.4a8.62 8.62 0 0 0-7.76 0l-3.17 1.83a8.57 8.57 0 0 0-3.69 5.61z" style="fill:#455a64;transform-origin:342.28px 87.1137px" id="el2e98755nlh" class="animable"/></g><path d="m361 115.88-44.72-25.82c-.88-.51-1.6-.09-1.6.92v30.9a3.54 3.54 0 0 0 1.6 2.76L361 150.46c.88.51 1.6.1 1.6-.92v-30.89a3.54 3.54 0 0 0-1.6-2.77z" style="fill:#ba68c8;transform-origin:338.64px 120.261px" id="elshqcefh12uo" class="animable"/><path d="M356.33 145.1a.79.79 0 0 1-.37-.1l-36.48-21.07a.73.73 0 0 1-.37-.64 3.7 3.7 0 0 0-1.85-3.19.75.75 0 0 1-.37-.64V98.08a.76.76 0 0 1 .37-.64.75.75 0 0 1 .74 0 1.48 1.48 0 0 0 2.21-1.28.72.72 0 0 1 .37-.63.7.7 0 0 1 .74 0l36.48 21.06a.74.74 0 0 1 .37.64 3.69 3.69 0 0 0 1.85 3.19.75.75 0 0 1 .36.64v21.38a.74.74 0 0 1-1.1.64 1.47 1.47 0 0 0-2.21 1.28.74.74 0 0 1-.37.64.82.82 0 0 1-.37.1zm-35.77-22.24 35.26 20.35a2.87 2.87 0 0 1 1.25-1.4 2.94 2.94 0 0 1 1.84-.38v-20a5.17 5.17 0 0 1-2.19-3.79l-35.26-20.33a3 3 0 0 1-3.09 1.78v20a5.19 5.19 0 0 1 2.19 3.77z" style="fill:#455a64;transform-origin:338.635px 120.262px" id="el2glbnmreaqp" class="animable"/><path d="M341.59 129.52a6.72 6.72 0 0 1-3.32-1 15.43 15.43 0 0 1-7-12.07c0-2.31.82-4 2.3-4.91s3.41-.69 5.41.46a15.45 15.45 0 0 1 7 12.07c0 2.31-.82 4.06-2.31 4.91a4.11 4.11 0 0 1-2.08.54zm-5.89-17.05a2.67 2.67 0 0 0-1.36.35c-1 .58-1.56 1.87-1.56 3.63a13.77 13.77 0 0 0 6.22 10.79c1.52.88 2.92 1 3.93.47s1.56-1.88 1.56-3.64a13.77 13.77 0 0 0-6.23-10.79 5.31 5.31 0 0 0-2.56-.81z" style="fill:#455a64;transform-origin:338.625px 120.248px" id="ela5lpq7jzown" class="animable"/></g></g><g id="freepik--Coin--inject-33" class="animable" style="transform-origin:71.2649px 81.2745px;animation:6s Infinite linear heartbeat;animation-delay:1.5s"><g id="freepik--coin--inject-33" class="animable" style="transform-origin:71.2649px 81.2745px"><path d="M83.26 50.54c-3.48-2-8.06-2-13.23.52C57.82 56.94 47 74.36 45.79 90c-.67 8.84 1.91 15.2 6.49 18 1.17.71 5.72 3.29 6.8 3.94 3.5 2.07 8.15 2.09 13.4-.43 12.21-5.88 23.07-23.3 24.24-38.9.68-9-2-15.39-6.7-18.11-1.12-.7-5.61-3.31-6.76-3.96z" style="fill:#ba68c8;transform-origin:71.2548px 81.2745px" id="el98wv1pcbzpn" class="animable"/><path d="M83.26 50.54c-3.48-2-8.06-2-13.23.52C57.82 56.94 47 74.36 45.79 90c-.67 8.84 1.91 15.2 6.49 18 1.17.71 5.72 3.29 6.8 3.94 3.5 2.07 8.15 2.09 13.4-.43 12.21-5.88 23.07-23.3 24.24-38.9.68-9-2-15.39-6.7-18.11-1.12-.7-5.61-3.31-6.76-3.96z" style="opacity:.25;transform-origin:71.2548px 81.2745px" class="animable" id="elt70zgz52xu"/><path d="M94.9 82.1 58.11 60.86c-6.68 8-11.56 18.94-12.32 29.1-.67 8.84 1.91 15.2 6.49 18 1.17.71 5.72 3.29 6.8 3.94 3.5 2.07 8.15 2.09 13.4-.43 9.75-4.71 18.63-16.76 22.42-29.37z" style="opacity:.1;transform-origin:70.2925px 87.1348px" class="animable" id="el66umo9sqs8m"/><path d="M47.82 79.75a45.49 45.49 0 0 0-2 10.21c-.67 8.84 1.91 15.2 6.49 18 1.17.71 5.72 3.29 6.8 3.94 3.5 2.07 8.15 2.09 13.4-.43a37.6 37.6 0 0 0 12.36-10.33z" style="opacity:.1;transform-origin:65.2925px 96.5798px" class="animable" id="elrh3wmtcmw6m"/><path d="M76.74 54.93c-12.22 5.88-23.07 23.3-24.25 38.91s7.77 23.49 20 17.62 23.07-23.3 24.25-38.9-7.74-23.5-20-17.63z" style="fill:#ba68c8;transform-origin:74.6151px 83.1962px" id="elaetdlwmt1ed" class="animable"/><path d="M76.74 54.93c-12.22 5.88-23.07 23.3-24.25 38.91s7.77 23.49 20 17.62 23.07-23.3 24.25-38.9-7.74-23.5-20-17.63z" style="opacity:.2;transform-origin:74.6151px 83.1962px" class="animable" id="el77fsrw2cvgu"/><path d="M88.84 76.12a37.25 37.25 0 0 1-5.49 14.78c-3 4.77-6.63 8.52-10.3 10.55-3.89 2.15-7.38 2.15-9.82 0s-3.46-6.12-2.85-11.17a37 37 0 0 1 5.48-14.78c3-4.77 6.63-8.51 10.31-10.55 3.88-2.15 7.37-2.15 9.81 0s3.46 6.12 2.86 11.17z" style="fill:#ba68c8;transform-origin:74.6077px 83.2px" id="elx11lrxewv4" class="animable"/><path d="M88.84 76.12a37.25 37.25 0 0 1-5.49 14.78c-3 4.77-6.63 8.52-10.3 10.55-3.89 2.15-7.38 2.15-9.82 0s-3.46-6.12-2.85-11.17a37 37 0 0 1 5.48-14.78c3-4.77 6.63-8.51 10.31-10.55 3.88-2.15 7.37-2.15 9.81 0s3.46 6.12 2.86 11.17z" style="opacity:.4;transform-origin:74.6077px 83.2px" class="animable" id="eltcxnyj7y06i"/><path d="M91 56.88c-3.38-3-8.26-3.16-13.72-.54-5.7 2.75-11.3 8.2-15.75 15.34a50.81 50.81 0 0 0-7.76 22.37c-.52 7 1 12.47 4.43 15.45s8.25 3.17 13.72.54c5.7-2.74 11.3-8.18 15.75-15.32a50.71 50.71 0 0 0 7.75-22.38C96 65.35 94.39 59.87 91 56.88zM86 65c2.44 2.15 3.46 6.12 2.86 11.17a37.25 37.25 0 0 1-5.51 14.73c-3 4.77-6.63 8.52-10.3 10.55-3.89 2.15-7.38 2.15-9.82 0s-3.46-6.12-2.85-11.17a37 37 0 0 1 5.48-14.78c3-4.77 6.63-8.51 10.31-10.55 3.88-2.16 7.37-2.16 9.83.05z" style="fill:#ba68c8;transform-origin:74.6032px 83.1885px" id="ely7pxsqek4wk" class="animable"/><path d="M76.65 66c7.29-4 12.3.37 11.17 9.85s-7.95 20.43-15.25 24.47-12.3-.32-11.17-9.82S69.35 70.07 76.65 66z" style="opacity:.2;transform-origin:74.6099px 83.1723px" class="animable" id="elzgt8q6xzo"/><path d="M76.65 66c7.29-4 12.3.37 11.17 9.85s-7.95 20.43-15.25 24.47-12.3-.32-11.17-9.82S69.35 70.07 76.65 66z" style="fill:#ba68c8;transform-origin:74.6099px 83.1723px" id="elc9g6qy0m2sk" class="animable"/><path d="M76.65 66c7.29-4 12.3.37 11.17 9.85s-7.95 20.43-15.25 24.47-12.3-.32-11.17-9.82S69.35 70.07 76.65 66z" style="opacity:.6;transform-origin:74.6099px 83.1723px" class="animable" id="ela8txpjmssx"/><path d="M85.73 74c-1.13 9.48-8 20.43-15.25 24.47-3 1.67-5.64 1.89-7.61.91-1.36-2-1.94-5-1.47-8.92C62.52 81 69.35 70.07 76.65 66c3-1.67 5.64-1.89 7.6-.91 1.36 1.99 1.94 5.03 1.48 8.91z" style="fill:#ba68c8;transform-origin:73.5623px 82.235px" id="elshwgr8dgmt" class="animable"/><path d="M85.73 74c-1.13 9.48-8 20.43-15.25 24.47-3 1.67-5.64 1.89-7.61.91-1.36-2-1.94-5-1.47-8.92C62.52 81 69.35 70.07 76.65 66c3-1.67 5.64-1.89 7.6-.91 1.36 1.99 1.94 5.03 1.48 8.91z" style="opacity:.5;transform-origin:73.5623px 82.235px" class="animable" id="el557tgu0x18o"/><path d="M78.65 79.51c-.88-.55-2.16-.34-3.48 0l-1.17.42a3.85 3.85 0 0 1 1.53-1.52c1.75-1.06 2.49-.16 2.67.72l4.23-3.79a4.08 4.08 0 0 0-.43-1.17 2.61 2.61 0 0 0-.77-.78c-.2-.12-3.08-1.69-3.36-1.77a3.42 3.42 0 0 0-.79-.11v-.5l-2.79-1.51-3.32 2v.6l.07 2.06s-1.64.69-3.41 3.8c-.08.13-.14.25-.21.37a8.4 8.4 0 0 0-1 4.27 3 3 0 0 0 1.15 2.63c.06 0 2.31 1.23 2.68 1.47l.26.14.2.08.23.06H71.4a5.94 5.94 0 0 0 1.49.02c.25 0 .51-.12.77-.19l1.11-.33.33-.11a4.14 4.14 0 0 1-1.53 1.45 4.29 4.29 0 0 1-1 .48L71 87.39 67 91a3 3 0 0 0 1.12 1.55c.49.33 2.43 1.33 2.86 1.58a2.52 2.52 0 0 0 1.17.36v.59l2.73 1.5 3.36-2-.11-2.65a12.27 12.27 0 0 0 3.3-3.68 8.45 8.45 0 0 0 1.11-4.46c-.06-1.49-.49-2.32-1.13-2.73s-2.41-1.31-2.76-1.55z" style="fill:#ba68c8;transform-origin:74.4765px 83.04px" id="eluuqi1axrj3" class="animable"/><path d="M78.65 79.51c-.88-.55-2.16-.34-3.48 0l-1.17.42a3.85 3.85 0 0 1 1.53-1.52c1.75-1.06 2.49-.16 2.67.72l4.23-3.79a4.08 4.08 0 0 0-.43-1.17 2.61 2.61 0 0 0-.77-.78c-.2-.12-3.08-1.69-3.36-1.77a3.42 3.42 0 0 0-.79-.11v-.5l-2.79-1.51-3.32 2v.6l.07 2.06s-1.64.69-3.41 3.8c-.08.13-.14.25-.21.37a8.4 8.4 0 0 0-1 4.27 3 3 0 0 0 1.15 2.63c.06 0 2.31 1.23 2.68 1.47l.26.14.2.08.23.06H71.4a5.94 5.94 0 0 0 1.49.02c.25 0 .51-.12.77-.19l1.11-.33.33-.11a4.14 4.14 0 0 1-1.53 1.45 4.29 4.29 0 0 1-1 .48L71 87.39 67 91a3 3 0 0 0 1.12 1.55c.49.33 2.43 1.33 2.86 1.58a2.52 2.52 0 0 0 1.17.36v.59l2.73 1.5 3.36-2-.11-2.65a12.27 12.27 0 0 0 3.3-3.68 8.45 8.45 0 0 0 1.11-4.46c-.06-1.49-.49-2.32-1.13-2.73s-2.41-1.31-2.76-1.55z" style="opacity:.3;transform-origin:74.4765px 83.04px" class="animable" id="elzvr4e5ofol"/><g style="opacity:.1;transform-origin:74.165px 84.055px" class="animable" id="elxz73qz4emz"><path d="M77.9 81.06a4.63 4.63 0 0 1 3.43-.06c-.59-.36-2.31-1.24-2.68-1.47-.88-.55-2.16-.34-3.48 0l-1.17.4a2.32 2.32 0 0 0-.26 1.13c.09 1.7 2 .65 4.16 0z" id="el3g022oi48qd" class="animable" style="transform-origin:77.5346px 80.5867px"/><path d="M72.1 94.52v.59l2.73 1.5-.08-2.61a6 6 0 0 1-2.65.52z" id="elswv73c6t1xg" class="animable" style="transform-origin:73.465px 95.305px"/><path d="M69.68 92.54 67 91a3 3 0 0 0 1.12 1.55c.47.32 2.24 1.23 2.78 1.54a3 3 0 0 1-1.22-1.55z" id="elwfcgdsazca" class="animable" style="transform-origin:68.95px 92.545px"/><path d="M78.05 86.15a.65.65 0 0 0-.62-.38 7.79 7.79 0 0 0-2.24.52h-.09a4.14 4.14 0 0 1-1.53 1.45 4.29 4.29 0 0 1-1 .48l1.19.65c.24 1 1.11 1.27 2.6.37s1.87-1.82 1.84-2.62a1.38 1.38 0 0 0-.15-.47z" id="elx4g56p9u6k" class="animable" style="transform-origin:75.3858px 87.7784px"/><path id="elfjoosb6o4wi" class="animable" style="transform-origin:72.385px 73.59px" d="m70.97 71.5 2.73 1.51.1 2.67-2.74-1.51-.09-2.67z"/></g><path d="m73.72 73.61.08 2.07s-1.65.68-3.42 3.79c-.08.13-.14.26-.2.38a8.39 8.39 0 0 0-1 4.27c.06 1.58.59 2.39 1.35 2.74l.2.08.23.06H71.42a5.94 5.94 0 0 0 1.47 0c.25 0 .51-.12.77-.19l1.11-.33.42-.14a7.15 7.15 0 0 1 2.24-.52.65.65 0 0 1 .62.38 1.38 1.38 0 0 1 .1.5c0 .8-.45 1.78-1.84 2.62s-2.36.67-2.6-.37l-4 3.64c.72 2 2.45 2.53 5.07 1.42l.11 2.65 3.36-2-.11-2.65a12.27 12.27 0 0 0 3.3-3.68 8.45 8.45 0 0 0 1.11-4.46c-.14-3.51-2.32-3.37-4.64-2.7-2.16.65-4.07 1.7-4.14 0a3.11 3.11 0 0 1 1.79-2.65c1.75-1.06 2.49-.16 2.67.72l4.23-3.79a4.08 4.08 0 0 0-.46-1.28 2.4 2.4 0 0 0-1.4-1 5.36 5.36 0 0 0-3.44.56L77 71l-3.3 2z" style="fill:#ba68c8;transform-origin:75.8646px 83.83px" id="elexz4rezgue" class="animable"/><path style="fill:#f5f5f5;transform-origin:76.485px 95.28px" id="el9523g3cfh2" class="animable" d="m78.22 94.59-3.36 2.02-.11-2.66.43 2.08 3.04-1.44z"/><path d="m73.71 88.9-4 3.64 3.77-3.19s.48 1.87 2.86-.08c-1.49.9-2.36.67-2.6-.37" style="fill:#f5f5f5;transform-origin:73.025px 90.72px" id="el8dzz1ycefp8" class="animable"/><path d="M82.45 75.34a4.08 4.08 0 0 0-.45-1.17 2.4 2.4 0 0 0-1.4-1 2.7 2.7 0 0 1 1.52 2.27l-3.87 3.74z" style="fill:#f5f5f5;transform-origin:80.35px 76.175px" id="elja38rdk3z9a" class="animable"/><path style="fill:#f5f5f5;transform-origin:75.415px 72.345px" id="el42cigfrd4kj" class="animable" d="m77.13 73.68-.36-2.21-3.07 1.54 3.32-2 .11 2.67z"/><path d="M71.73 109.54c8.48-3.81 16-14.82 16-14.82-4.5 7.14-10.1 12.58-15.8 15.28-5.47 2.63-10.34 2.44-13.72-.54 0 .04 4.9 3.96 13.52.08z" style="fill:#f5f5f5;transform-origin:72.97px 103.281px" id="el6e11l0ych9u" class="animable"/><path d="M59.19 72.9c4.51-8 10.83-14.73 17.55-18 7-3.36 12.91-2.21 16.47 2.31 0 0-6-7.07-16.51-1.62S59.19 72.9 59.19 72.9z" style="fill:#f5f5f5;transform-origin:76.2px 62.9295px" id="el4tw6sunjfw4" class="animable"/></g></g><defs><filter id="active" height="200%"><feMorphology in="SourceAlpha" result="DILATED" operator="dilate" radius="2"/><feFlood flood-color="#32DFEC" flood-opacity="1" result="PINK"/><feComposite in="PINK" in2="DILATED" operator="in" result="OUTLINE"/><feMerge><feMergeNode in="OUTLINE"/><feMergeNode in="SourceGraphic"/></feMerge></filter><filter id="hover" height="200%"><feMorphology in="SourceAlpha" result="DILATED" operator="dilate" radius="2"/><feFlood flood-color="red" flood-opacity=".5" result="PINK"/><feComposite in="PINK" in2="DILATED" operator="in" result="OUTLINE"/><feMerge><feMergeNode in="OUTLINE"/><feMergeNode in="SourceGraphic"/></feMerge><feColorMatrix values="0 0 0 0 0 0 1 0 0 0 0 0 0 0 0 0 0 0 1 0"/></filter></defs><defs><clipPath id="freepik--clip-path--inject-33"><path d="M376.59 331.88v16.41c0 1.23-.86 1.73-1.93 1.12l-17.23-9.82a4.26 4.26 0 0 1-1.93-3.34v-16.41c0-1.23.87-1.73 1.93-1.11 4.7 2.71 12.53 7.1 17.23 9.81a4.26 4.26 0 0 1 1.93 3.34z" style="fill:#455a64"/></clipPath></defs></svg>